%TF.GenerationSoftware,KiCad,Pcbnew,8.0.8*%
%TF.CreationDate,2026-08-01T23:54:53+03:00*%
%TF.ProjectId,Wearable Electronics,57656172-6162-46c6-9520-456c65637472,rev?*%
%TF.SameCoordinates,Original*%
%TF.FileFunction,Legend,Top*%
%TF.FilePolarity,Positive*%
%FSLAX46Y46*%
G04 Gerber Fmt 4.6, Leading zero omitted, Abs format (unit mm)*
G04 Created by KiCad (PCBNEW 8.0.8) date 2026-08-01 23:54:53*
%MOMM*%
%LPD*%
G01*
G04 APERTURE LIST*
%ADD10C,0.000000*%
%ADD11C,0.300000*%
%ADD12C,0.150000*%
%ADD13C,0.100000*%
%ADD14C,0.120000*%
G04 APERTURE END LIST*
D10*
G36*
X82967555Y-69369504D02*
G01*
X83020480Y-69375300D01*
X83073316Y-69385685D01*
X83125836Y-69400799D01*
X83177812Y-69420784D01*
X83229015Y-69445781D01*
X83279218Y-69475929D01*
X83328193Y-69511372D01*
X83375712Y-69552249D01*
X83387668Y-69563682D01*
X83399820Y-69575809D01*
X83412081Y-69588522D01*
X83424367Y-69601716D01*
X83448667Y-69629121D01*
X83472038Y-69657177D01*
X83493794Y-69685037D01*
X83503852Y-69698627D01*
X83513251Y-69711851D01*
X83521903Y-69724602D01*
X83529725Y-69736773D01*
X83536630Y-69748259D01*
X83542532Y-69758954D01*
X83554441Y-69785534D01*
X83564746Y-69816309D01*
X83573450Y-69850686D01*
X83580553Y-69888068D01*
X83586056Y-69927861D01*
X83589961Y-69969469D01*
X83592269Y-70012298D01*
X83592980Y-70055752D01*
X83592097Y-70099237D01*
X83589620Y-70142157D01*
X83585550Y-70183916D01*
X83579889Y-70223921D01*
X83572638Y-70261576D01*
X83563798Y-70296285D01*
X83553370Y-70327454D01*
X83541356Y-70354488D01*
X83528218Y-70377592D01*
X83512201Y-70401890D01*
X83493647Y-70427067D01*
X83472899Y-70452805D01*
X83450298Y-70478791D01*
X83426186Y-70504707D01*
X83400907Y-70530238D01*
X83374800Y-70555068D01*
X83348210Y-70578881D01*
X83321478Y-70601362D01*
X83294946Y-70622195D01*
X83268956Y-70641063D01*
X83243851Y-70657652D01*
X83219972Y-70671645D01*
X83197662Y-70682727D01*
X83177263Y-70690581D01*
X83170979Y-70692661D01*
X83165077Y-70694881D01*
X83159545Y-70697379D01*
X83156914Y-70698774D01*
X83154370Y-70700291D01*
X83151913Y-70701945D01*
X83149541Y-70703754D01*
X83147252Y-70705735D01*
X83145046Y-70707906D01*
X83142920Y-70710283D01*
X83140872Y-70712883D01*
X83138903Y-70715725D01*
X83137009Y-70718824D01*
X83135190Y-70722198D01*
X83133443Y-70725865D01*
X83131768Y-70729840D01*
X83130164Y-70734143D01*
X83128627Y-70738788D01*
X83127158Y-70743795D01*
X83125754Y-70749179D01*
X83124415Y-70754959D01*
X83121922Y-70767772D01*
X83119667Y-70782370D01*
X83117638Y-70798892D01*
X83115824Y-70817474D01*
X83114212Y-70838254D01*
X83112791Y-70861367D01*
X83111548Y-70886953D01*
X83110472Y-70915148D01*
X83109551Y-70946088D01*
X83108772Y-70979912D01*
X83108124Y-71016757D01*
X83107596Y-71056758D01*
X83106847Y-71146783D01*
X83106430Y-71251084D01*
X83106250Y-71370759D01*
X83106211Y-71506904D01*
X83106211Y-72300677D01*
X82762253Y-72650209D01*
X82418295Y-72999742D01*
X82418295Y-78054160D01*
X82219521Y-78250858D01*
X82179085Y-78290371D01*
X82140383Y-78327233D01*
X82104333Y-78360637D01*
X82071851Y-78389777D01*
X82043855Y-78413846D01*
X82021260Y-78432037D01*
X82012276Y-78438676D01*
X82004985Y-78443543D01*
X81999504Y-78446537D01*
X81995947Y-78447558D01*
X81990965Y-78389948D01*
X81986317Y-78224836D01*
X81978432Y-77618416D01*
X81973104Y-76720914D01*
X81971147Y-75624947D01*
X81971147Y-72802336D01*
X82315106Y-72448806D01*
X82659064Y-72095276D01*
X82659064Y-70731157D01*
X82483931Y-70573644D01*
X82458854Y-70550755D01*
X82435873Y-70529031D01*
X82414861Y-70508279D01*
X82395691Y-70488309D01*
X82378239Y-70468931D01*
X82362378Y-70449953D01*
X82347981Y-70431186D01*
X82334923Y-70412437D01*
X82323078Y-70393517D01*
X82312319Y-70374235D01*
X82302520Y-70354401D01*
X82293557Y-70333823D01*
X82285301Y-70312310D01*
X82277627Y-70289673D01*
X82270410Y-70265720D01*
X82263523Y-70240261D01*
X82250182Y-70178241D01*
X82242224Y-70117426D01*
X82239420Y-70057955D01*
X82239505Y-70055614D01*
X82694655Y-70055614D01*
X82695119Y-70071000D01*
X82696753Y-70086182D01*
X82699534Y-70101105D01*
X82703439Y-70115712D01*
X82708447Y-70129948D01*
X82714536Y-70143755D01*
X82721683Y-70157078D01*
X82729866Y-70169861D01*
X82739062Y-70182048D01*
X82749250Y-70193583D01*
X82760408Y-70204408D01*
X82772512Y-70214470D01*
X82785542Y-70223710D01*
X82799475Y-70232073D01*
X82814288Y-70239504D01*
X82829959Y-70245945D01*
X82846466Y-70251341D01*
X82863788Y-70255635D01*
X82881901Y-70258772D01*
X82900783Y-70260696D01*
X82920413Y-70261349D01*
X82934715Y-70261069D01*
X82948424Y-70260224D01*
X82961555Y-70258806D01*
X82974126Y-70256808D01*
X82986151Y-70254222D01*
X82997647Y-70251042D01*
X83008631Y-70247259D01*
X83019118Y-70242868D01*
X83029124Y-70237859D01*
X83038666Y-70232226D01*
X83047759Y-70225961D01*
X83056420Y-70219057D01*
X83064665Y-70211507D01*
X83072509Y-70203303D01*
X83079969Y-70194438D01*
X83087062Y-70184904D01*
X83099832Y-70165236D01*
X83110757Y-70145377D01*
X83119841Y-70125390D01*
X83127086Y-70105339D01*
X83130021Y-70095309D01*
X83132497Y-70085287D01*
X83134515Y-70075282D01*
X83136075Y-70065300D01*
X83137178Y-70055350D01*
X83137825Y-70045440D01*
X83138015Y-70035579D01*
X83137749Y-70025773D01*
X83137028Y-70016030D01*
X83135851Y-70006360D01*
X83134220Y-69996770D01*
X83132134Y-69987267D01*
X83129595Y-69977860D01*
X83126601Y-69968557D01*
X83123155Y-69959366D01*
X83119256Y-69950295D01*
X83114905Y-69941351D01*
X83110101Y-69932544D01*
X83104847Y-69923880D01*
X83099141Y-69915367D01*
X83092984Y-69907015D01*
X83086377Y-69898830D01*
X83079320Y-69890821D01*
X83071814Y-69882995D01*
X83063364Y-69874873D01*
X83054800Y-69867288D01*
X83046128Y-69860240D01*
X83037353Y-69853730D01*
X83028482Y-69847756D01*
X83019518Y-69842319D01*
X83010470Y-69837418D01*
X83001341Y-69833055D01*
X82992138Y-69829227D01*
X82982866Y-69825936D01*
X82973532Y-69823181D01*
X82964140Y-69820962D01*
X82954697Y-69819280D01*
X82945209Y-69818133D01*
X82935680Y-69817522D01*
X82926116Y-69817446D01*
X82916524Y-69817906D01*
X82906909Y-69818901D01*
X82897277Y-69820432D01*
X82887633Y-69822498D01*
X82877983Y-69825099D01*
X82868332Y-69828235D01*
X82858688Y-69831905D01*
X82849054Y-69836111D01*
X82839437Y-69840851D01*
X82829842Y-69846125D01*
X82820276Y-69851934D01*
X82810744Y-69858278D01*
X82801251Y-69865155D01*
X82791804Y-69872566D01*
X82782407Y-69880512D01*
X82773067Y-69888991D01*
X82759204Y-69902911D01*
X82746755Y-69917245D01*
X82735697Y-69931936D01*
X82726008Y-69946930D01*
X82717666Y-69962169D01*
X82710648Y-69977597D01*
X82704934Y-69993158D01*
X82700499Y-70008797D01*
X82697322Y-70024456D01*
X82695382Y-70040081D01*
X82694655Y-70055614D01*
X82239505Y-70055614D01*
X82241543Y-69999970D01*
X82248365Y-69943613D01*
X82259657Y-69889023D01*
X82275193Y-69836343D01*
X82294743Y-69785712D01*
X82318080Y-69737273D01*
X82344976Y-69691165D01*
X82375204Y-69647531D01*
X82408534Y-69606511D01*
X82444739Y-69568246D01*
X82483592Y-69532877D01*
X82524863Y-69500546D01*
X82568326Y-69471392D01*
X82613752Y-69445558D01*
X82660913Y-69423184D01*
X82709582Y-69404412D01*
X82759529Y-69389381D01*
X82810529Y-69378234D01*
X82862351Y-69371112D01*
X82914769Y-69368155D01*
X82967555Y-69369504D01*
G37*
G36*
X100389179Y-70594917D02*
G01*
X100392474Y-70595629D01*
X100395359Y-70596715D01*
X100397859Y-70598173D01*
X100400000Y-70600000D01*
X100401807Y-70602192D01*
X100403307Y-70604745D01*
X100404523Y-70607658D01*
X100406211Y-70614546D01*
X100407074Y-70622830D01*
X100407317Y-70632484D01*
X100407073Y-70639020D01*
X100406358Y-70646063D01*
X100405196Y-70653548D01*
X100403611Y-70661408D01*
X100401627Y-70669578D01*
X100399267Y-70677992D01*
X100396557Y-70686584D01*
X100393521Y-70695287D01*
X100390181Y-70704037D01*
X100386563Y-70712766D01*
X100382690Y-70721410D01*
X100378587Y-70729902D01*
X100374277Y-70738177D01*
X100369785Y-70746168D01*
X100365134Y-70753809D01*
X100360350Y-70761035D01*
X100332004Y-70806462D01*
X100304315Y-70860129D01*
X100277173Y-70922534D01*
X100250469Y-70994174D01*
X100224095Y-71075545D01*
X100197943Y-71167145D01*
X100171904Y-71269470D01*
X100145869Y-71383017D01*
X100119730Y-71508285D01*
X100093378Y-71645768D01*
X100066705Y-71795965D01*
X100039601Y-71959373D01*
X99983670Y-72327808D01*
X99924716Y-72755048D01*
X99656490Y-74679317D01*
X99527207Y-75560642D01*
X99443897Y-76091444D01*
X99360876Y-76597253D01*
X99283365Y-77126781D01*
X99226047Y-77573705D01*
X99209548Y-77732964D01*
X99203603Y-77831701D01*
X99204203Y-77860556D01*
X99206051Y-77887767D01*
X99209139Y-77913333D01*
X99213459Y-77937253D01*
X99219003Y-77959524D01*
X99225764Y-77980147D01*
X99233733Y-77999118D01*
X99242904Y-78016439D01*
X99253267Y-78032106D01*
X99264816Y-78046118D01*
X99277542Y-78058475D01*
X99291438Y-78069175D01*
X99306496Y-78078217D01*
X99322708Y-78085598D01*
X99340067Y-78091319D01*
X99358564Y-78095377D01*
X99378193Y-78097772D01*
X99398944Y-78098502D01*
X99420810Y-78097566D01*
X99443784Y-78094962D01*
X99467858Y-78090689D01*
X99493024Y-78084745D01*
X99519274Y-78077131D01*
X99546600Y-78067843D01*
X99574995Y-78056881D01*
X99604450Y-78044244D01*
X99634959Y-78029930D01*
X99666513Y-78013937D01*
X99699104Y-77996266D01*
X99732726Y-77976913D01*
X99767369Y-77955878D01*
X99803026Y-77933160D01*
X99846749Y-77905213D01*
X99889140Y-77879141D01*
X99929158Y-77855515D01*
X99965759Y-77834904D01*
X99997902Y-77817880D01*
X100024544Y-77805014D01*
X100035476Y-77800319D01*
X100044643Y-77796876D01*
X100051913Y-77794758D01*
X100057156Y-77794037D01*
X100064973Y-77794495D01*
X100071955Y-77795860D01*
X100078109Y-77798116D01*
X100083441Y-77801245D01*
X100087955Y-77805232D01*
X100091659Y-77810060D01*
X100094557Y-77815712D01*
X100096655Y-77822174D01*
X100097959Y-77829427D01*
X100098476Y-77837457D01*
X100098210Y-77846246D01*
X100097167Y-77855779D01*
X100095353Y-77866038D01*
X100092774Y-77877008D01*
X100089436Y-77888673D01*
X100085344Y-77901015D01*
X100080504Y-77914019D01*
X100074922Y-77927669D01*
X100068604Y-77941948D01*
X100061554Y-77956839D01*
X100053780Y-77972327D01*
X100045287Y-77988395D01*
X100036081Y-78005026D01*
X100026167Y-78022206D01*
X100015551Y-78039916D01*
X100004238Y-78058141D01*
X99979548Y-78096070D01*
X99952143Y-78135863D01*
X99922068Y-78177389D01*
X99851326Y-78268670D01*
X99776650Y-78357232D01*
X99698660Y-78442639D01*
X99617972Y-78524452D01*
X99535208Y-78602235D01*
X99450984Y-78675549D01*
X99365919Y-78743958D01*
X99280633Y-78807023D01*
X99195744Y-78864307D01*
X99111870Y-78915373D01*
X99029630Y-78959784D01*
X98949644Y-78997100D01*
X98872529Y-79026886D01*
X98798904Y-79048703D01*
X98763593Y-79056487D01*
X98729388Y-79062114D01*
X98696364Y-79065531D01*
X98664599Y-79066682D01*
X98628196Y-79066137D01*
X98593328Y-79064480D01*
X98559971Y-79061676D01*
X98528101Y-79057691D01*
X98497693Y-79052491D01*
X98468723Y-79046041D01*
X98441166Y-79038307D01*
X98414999Y-79029254D01*
X98390196Y-79018849D01*
X98366734Y-79007057D01*
X98344588Y-78993843D01*
X98323734Y-78979173D01*
X98304147Y-78963013D01*
X98285804Y-78945329D01*
X98268679Y-78926085D01*
X98252749Y-78905249D01*
X98237989Y-78882785D01*
X98224375Y-78858659D01*
X98211883Y-78832837D01*
X98200487Y-78805285D01*
X98190165Y-78775968D01*
X98180890Y-78744851D01*
X98172640Y-78711901D01*
X98165390Y-78677083D01*
X98159115Y-78640362D01*
X98153791Y-78601705D01*
X98149394Y-78561078D01*
X98145899Y-78518444D01*
X98141519Y-78427025D01*
X98140457Y-78327172D01*
X98141334Y-78254403D01*
X98143164Y-78179410D01*
X98149234Y-78031353D01*
X98153249Y-77962587D01*
X98157768Y-77900196D01*
X98162678Y-77846328D01*
X98167867Y-77803134D01*
X98177247Y-77733850D01*
X98183822Y-77678331D01*
X98185869Y-77657496D01*
X98186990Y-77642218D01*
X98187110Y-77633202D01*
X98186770Y-77631263D01*
X98186497Y-77630974D01*
X98186153Y-77631154D01*
X98166295Y-77657283D01*
X98117675Y-77722438D01*
X97963384Y-77930530D01*
X97889687Y-78027380D01*
X97813218Y-78122522D01*
X97734473Y-78215513D01*
X97653951Y-78305909D01*
X97572150Y-78393267D01*
X97489569Y-78477145D01*
X97406705Y-78557099D01*
X97324057Y-78632686D01*
X97242123Y-78703463D01*
X97161402Y-78768988D01*
X97082390Y-78828817D01*
X97005588Y-78882506D01*
X96931492Y-78929614D01*
X96860601Y-78969697D01*
X96793413Y-79002312D01*
X96730427Y-79027015D01*
X96697962Y-79037085D01*
X96664746Y-79045551D01*
X96630895Y-79052419D01*
X96596523Y-79057695D01*
X96561748Y-79061385D01*
X96526684Y-79063495D01*
X96491447Y-79064032D01*
X96456154Y-79063000D01*
X96420920Y-79060406D01*
X96385860Y-79056256D01*
X96351091Y-79050556D01*
X96316729Y-79043312D01*
X96282888Y-79034529D01*
X96249686Y-79024214D01*
X96217237Y-79012372D01*
X96185657Y-78999010D01*
X96169006Y-78991011D01*
X96152541Y-78982217D01*
X96136264Y-78972633D01*
X96120179Y-78962262D01*
X96104288Y-78951108D01*
X96088594Y-78939176D01*
X96073099Y-78926470D01*
X96057808Y-78912994D01*
X96042721Y-78898751D01*
X96027843Y-78883747D01*
X96013176Y-78867985D01*
X95998722Y-78851469D01*
X95970466Y-78816193D01*
X95943099Y-78777951D01*
X95916642Y-78736776D01*
X95891118Y-78692701D01*
X95866548Y-78645760D01*
X95842956Y-78595983D01*
X95820362Y-78543406D01*
X95798791Y-78488060D01*
X95778263Y-78429978D01*
X95758801Y-78369193D01*
X95687792Y-78136048D01*
X95318593Y-78492740D01*
X95241535Y-78565971D01*
X95167554Y-78633757D01*
X95096485Y-78696196D01*
X95028160Y-78753389D01*
X94962415Y-78805435D01*
X94899085Y-78852433D01*
X94838002Y-78894484D01*
X94779001Y-78931685D01*
X94721916Y-78964137D01*
X94666583Y-78991940D01*
X94612834Y-79015192D01*
X94560504Y-79033994D01*
X94509427Y-79048444D01*
X94459438Y-79058643D01*
X94410370Y-79064689D01*
X94362059Y-79066682D01*
X94323175Y-79065695D01*
X94286330Y-79062697D01*
X94251443Y-79057632D01*
X94218429Y-79050443D01*
X94187207Y-79041074D01*
X94172242Y-79035554D01*
X94157694Y-79029468D01*
X94143553Y-79022809D01*
X94129808Y-79015570D01*
X94116448Y-79007744D01*
X94103465Y-78999323D01*
X94090846Y-78990302D01*
X94078582Y-78980671D01*
X94066663Y-78970426D01*
X94055079Y-78959558D01*
X94032871Y-78935926D01*
X94011876Y-78909721D01*
X93992011Y-78880885D01*
X93973195Y-78849362D01*
X93955343Y-78815096D01*
X93938374Y-78778031D01*
X93926712Y-78750251D01*
X93916377Y-78723922D01*
X93907311Y-78698463D01*
X93899456Y-78673295D01*
X93892753Y-78647838D01*
X93887144Y-78621512D01*
X93882570Y-78593737D01*
X93878973Y-78563932D01*
X93876294Y-78531519D01*
X93874475Y-78495917D01*
X93873457Y-78456545D01*
X93873182Y-78412825D01*
X93873591Y-78364176D01*
X93874625Y-78310018D01*
X93878337Y-78182856D01*
X93882180Y-78020679D01*
X93882668Y-77951233D01*
X93882236Y-77891721D01*
X93880911Y-77843772D01*
X93878719Y-77809016D01*
X93875687Y-77789082D01*
X93873864Y-77785183D01*
X93872877Y-77784839D01*
X93871841Y-77785600D01*
X93851783Y-77811708D01*
X93812378Y-77863844D01*
X93698304Y-78015963D01*
X93587891Y-78158616D01*
X93477072Y-78291731D01*
X93366204Y-78415084D01*
X93255647Y-78528450D01*
X93145758Y-78631604D01*
X93036895Y-78724323D01*
X92929417Y-78806380D01*
X92823681Y-78877553D01*
X92720046Y-78937617D01*
X92618871Y-78986346D01*
X92569317Y-79006390D01*
X92520513Y-79023517D01*
X92472502Y-79037697D01*
X92425330Y-79048904D01*
X92379041Y-79057109D01*
X92333681Y-79062284D01*
X92289294Y-79064401D01*
X92245924Y-79063432D01*
X92203617Y-79059349D01*
X92162417Y-79052124D01*
X92122369Y-79041728D01*
X92083518Y-79028134D01*
X92083522Y-79028134D01*
X92052792Y-79014782D01*
X92022950Y-78999523D01*
X91994001Y-78982371D01*
X91965952Y-78963339D01*
X91938808Y-78942443D01*
X91912574Y-78919696D01*
X91887256Y-78895113D01*
X91862860Y-78868707D01*
X91839391Y-78840494D01*
X91816854Y-78810487D01*
X91795257Y-78778700D01*
X91774603Y-78745148D01*
X91754899Y-78709844D01*
X91736151Y-78672804D01*
X91718363Y-78634041D01*
X91701542Y-78593569D01*
X91685694Y-78551403D01*
X91670823Y-78507557D01*
X91656935Y-78462045D01*
X91644037Y-78414881D01*
X91632133Y-78366079D01*
X91621229Y-78315654D01*
X91611331Y-78263620D01*
X91602445Y-78209991D01*
X91594576Y-78154781D01*
X91587729Y-78098005D01*
X91577127Y-77979809D01*
X91570682Y-77855518D01*
X91568441Y-77725245D01*
X91572795Y-77524833D01*
X91586163Y-77326371D01*
X91608444Y-77130126D01*
X91612907Y-77102312D01*
X92565063Y-77102312D01*
X92567378Y-77224804D01*
X92574294Y-77338203D01*
X92585765Y-77442440D01*
X92601744Y-77537448D01*
X92622187Y-77623160D01*
X92647047Y-77699509D01*
X92661120Y-77734150D01*
X92676280Y-77766426D01*
X92692521Y-77796327D01*
X92709838Y-77823844D01*
X92728225Y-77848971D01*
X92747676Y-77871697D01*
X92768187Y-77892015D01*
X92789750Y-77909916D01*
X92812360Y-77925392D01*
X92836012Y-77938435D01*
X92860700Y-77949035D01*
X92886417Y-77957185D01*
X92913159Y-77962876D01*
X92940920Y-77966100D01*
X92969694Y-77966847D01*
X92999475Y-77965111D01*
X93030257Y-77960882D01*
X93062035Y-77954152D01*
X93094804Y-77944913D01*
X93128556Y-77933155D01*
X93150772Y-77923855D01*
X93173529Y-77912665D01*
X93196784Y-77899641D01*
X93220494Y-77884838D01*
X93244615Y-77868309D01*
X93269105Y-77850111D01*
X93319013Y-77808921D01*
X93369874Y-77761706D01*
X93421338Y-77708904D01*
X93473060Y-77650952D01*
X93524691Y-77588288D01*
X93575886Y-77521348D01*
X93626297Y-77450571D01*
X93675576Y-77376393D01*
X93723377Y-77299253D01*
X93769352Y-77219588D01*
X93813155Y-77137835D01*
X93854439Y-77054432D01*
X93892856Y-76969816D01*
X93922922Y-76896553D01*
X93953580Y-76814508D01*
X94015445Y-76629018D01*
X94075997Y-76423241D01*
X94132783Y-76207071D01*
X94183347Y-75990405D01*
X94225237Y-75783135D01*
X94255998Y-75595158D01*
X94266438Y-75511496D01*
X94273176Y-75436367D01*
X94278817Y-75344264D01*
X94281749Y-75268256D01*
X94282085Y-75235238D01*
X94281608Y-75204986D01*
X94280273Y-75177079D01*
X94278036Y-75151098D01*
X94274849Y-75126625D01*
X94270670Y-75103238D01*
X94265452Y-75080519D01*
X94259151Y-75058049D01*
X94251721Y-75035408D01*
X94243117Y-75012176D01*
X94222208Y-74962263D01*
X94211844Y-74939482D01*
X94201630Y-74918411D01*
X94191471Y-74898946D01*
X94181271Y-74880985D01*
X94170934Y-74864424D01*
X94160365Y-74849162D01*
X94149469Y-74835095D01*
X94138150Y-74822120D01*
X94126314Y-74810135D01*
X94113863Y-74799036D01*
X94100704Y-74788721D01*
X94086741Y-74779088D01*
X94071878Y-74770032D01*
X94056019Y-74761451D01*
X94039070Y-74753243D01*
X94020936Y-74745304D01*
X93979103Y-74729794D01*
X93936833Y-74717988D01*
X93894186Y-74709832D01*
X93851223Y-74705274D01*
X93808005Y-74704261D01*
X93764594Y-74706741D01*
X93721050Y-74712661D01*
X93677435Y-74721968D01*
X93633810Y-74734610D01*
X93590235Y-74750534D01*
X93546772Y-74769688D01*
X93503481Y-74792018D01*
X93460425Y-74817473D01*
X93417664Y-74846000D01*
X93375258Y-74877545D01*
X93333270Y-74912058D01*
X93291760Y-74949483D01*
X93250790Y-74989771D01*
X93210419Y-75032866D01*
X93170710Y-75078718D01*
X93131724Y-75127273D01*
X93093521Y-75178479D01*
X93056163Y-75232282D01*
X93019711Y-75288632D01*
X92984225Y-75347474D01*
X92949768Y-75408756D01*
X92916399Y-75472427D01*
X92884180Y-75538432D01*
X92853173Y-75606719D01*
X92823437Y-75677236D01*
X92795035Y-75749931D01*
X92768027Y-75824750D01*
X92749172Y-75883162D01*
X92730427Y-75948915D01*
X92693880Y-76098600D01*
X92659606Y-76266122D01*
X92628826Y-76443795D01*
X92602761Y-76623935D01*
X92582631Y-76798858D01*
X92569659Y-76960878D01*
X92566237Y-77034648D01*
X92565063Y-77102312D01*
X91612907Y-77102312D01*
X91639534Y-76936361D01*
X91679332Y-76745342D01*
X91727733Y-76557334D01*
X91784637Y-76372602D01*
X91849939Y-76191410D01*
X91923538Y-76014025D01*
X92005330Y-75840710D01*
X92095214Y-75671731D01*
X92193086Y-75507352D01*
X92298844Y-75347840D01*
X92412384Y-75193458D01*
X92533605Y-75044472D01*
X92662404Y-74901147D01*
X92725979Y-74834869D01*
X92788869Y-74771475D01*
X92851225Y-74710848D01*
X92913202Y-74652870D01*
X92974951Y-74597426D01*
X93036626Y-74544398D01*
X93098380Y-74493670D01*
X93160366Y-74445124D01*
X93222736Y-74398644D01*
X93285643Y-74354113D01*
X93349240Y-74311414D01*
X93413681Y-74270431D01*
X93479117Y-74231047D01*
X93545702Y-74193144D01*
X93613588Y-74156606D01*
X93682929Y-74121316D01*
X93814207Y-74057788D01*
X93872663Y-74030828D01*
X93927046Y-74006862D01*
X93977893Y-73985734D01*
X94025740Y-73967287D01*
X94071126Y-73951366D01*
X94114587Y-73937815D01*
X94156660Y-73926476D01*
X94197881Y-73917194D01*
X94238789Y-73909812D01*
X94279920Y-73904174D01*
X94321810Y-73900125D01*
X94364998Y-73897507D01*
X94410020Y-73896164D01*
X94457412Y-73895940D01*
X94518206Y-73897868D01*
X94576879Y-73902973D01*
X94633540Y-73911317D01*
X94688297Y-73922962D01*
X94741256Y-73937970D01*
X94792525Y-73956401D01*
X94842213Y-73978319D01*
X94890427Y-74003784D01*
X94937273Y-74032859D01*
X94982861Y-74065605D01*
X95027298Y-74102084D01*
X95070690Y-74142358D01*
X95113146Y-74186488D01*
X95154774Y-74234536D01*
X95195681Y-74286564D01*
X95235974Y-74342633D01*
X95252429Y-74366947D01*
X95267543Y-74390184D01*
X95281351Y-74412435D01*
X95293890Y-74433793D01*
X95305196Y-74454350D01*
X95315306Y-74474198D01*
X95324256Y-74493429D01*
X95332081Y-74512135D01*
X95338819Y-74530407D01*
X95344505Y-74548339D01*
X95349175Y-74566022D01*
X95352867Y-74583549D01*
X95355616Y-74601010D01*
X95357459Y-74618498D01*
X95358431Y-74636106D01*
X95358569Y-74653925D01*
X95355254Y-74696984D01*
X95346506Y-74769724D01*
X95332920Y-74868224D01*
X95315093Y-74988564D01*
X95269098Y-75279080D01*
X95213287Y-75609901D01*
X95015489Y-76787948D01*
X94954372Y-77197844D01*
X94916452Y-77508009D01*
X94900236Y-77733208D01*
X94899800Y-77818560D01*
X94904231Y-77888208D01*
X94913341Y-77943998D01*
X94926944Y-77987775D01*
X94944853Y-78021385D01*
X94966881Y-78046674D01*
X94973684Y-78052473D01*
X94981069Y-78058109D01*
X94988967Y-78063554D01*
X94997306Y-78068777D01*
X95006015Y-78073750D01*
X95015022Y-78078444D01*
X95024256Y-78082830D01*
X95033646Y-78086877D01*
X95043121Y-78090558D01*
X95052610Y-78093843D01*
X95062040Y-78096702D01*
X95071342Y-78099107D01*
X95080444Y-78101028D01*
X95089274Y-78102437D01*
X95097762Y-78103304D01*
X95105835Y-78103599D01*
X95126071Y-78102338D01*
X95148572Y-78098653D01*
X95173061Y-78092688D01*
X95199258Y-78084590D01*
X95226885Y-78074504D01*
X95255664Y-78062575D01*
X95285315Y-78048950D01*
X95315560Y-78033773D01*
X95346120Y-78017191D01*
X95376717Y-77999348D01*
X95407072Y-77980390D01*
X95436907Y-77960464D01*
X95465942Y-77939713D01*
X95493899Y-77918285D01*
X95520499Y-77896324D01*
X95545464Y-77873976D01*
X95563221Y-77857151D01*
X95578881Y-77841510D01*
X95585978Y-77833931D01*
X95592613Y-77826403D01*
X95598809Y-77818844D01*
X95604585Y-77811174D01*
X95609963Y-77803311D01*
X95614963Y-77795172D01*
X95619607Y-77786676D01*
X95623916Y-77777743D01*
X95627911Y-77768289D01*
X95631612Y-77758233D01*
X95635040Y-77747495D01*
X95638217Y-77735991D01*
X95641163Y-77723641D01*
X95643900Y-77710362D01*
X95646448Y-77696074D01*
X95648828Y-77680695D01*
X95651061Y-77664142D01*
X95653169Y-77646334D01*
X95655172Y-77627190D01*
X95657091Y-77606628D01*
X95660760Y-77560924D01*
X95664346Y-77508567D01*
X95668015Y-77448906D01*
X95671935Y-77381287D01*
X95689896Y-77157594D01*
X95694840Y-77118814D01*
X96673374Y-77118814D01*
X96675953Y-77220452D01*
X96682137Y-77315262D01*
X96692022Y-77402292D01*
X96705709Y-77480588D01*
X96717641Y-77534605D01*
X96729653Y-77584284D01*
X96741873Y-77629849D01*
X96754432Y-77671523D01*
X96767460Y-77709530D01*
X96781086Y-77744092D01*
X96795442Y-77775434D01*
X96810658Y-77803777D01*
X96826862Y-77829346D01*
X96844186Y-77852363D01*
X96862759Y-77873052D01*
X96882712Y-77891637D01*
X96904175Y-77908339D01*
X96927277Y-77923384D01*
X96952149Y-77936992D01*
X96978922Y-77949389D01*
X97002798Y-77958866D01*
X97026194Y-77966615D01*
X97049289Y-77972604D01*
X97072259Y-77976804D01*
X97083753Y-77978223D01*
X97095283Y-77979183D01*
X97106871Y-77979681D01*
X97118538Y-77979712D01*
X97130308Y-77979273D01*
X97142202Y-77978360D01*
X97166452Y-77975097D01*
X97191465Y-77969891D01*
X97217421Y-77962712D01*
X97244495Y-77953530D01*
X97272867Y-77942314D01*
X97302712Y-77929034D01*
X97334210Y-77913659D01*
X97367537Y-77896158D01*
X97402872Y-77876502D01*
X97402876Y-77876502D01*
X97435522Y-77856730D01*
X97468517Y-77834466D01*
X97501802Y-77809804D01*
X97535316Y-77782837D01*
X97602785Y-77722360D01*
X97670440Y-77653779D01*
X97737795Y-77577838D01*
X97804365Y-77495284D01*
X97869663Y-77406860D01*
X97933204Y-77313311D01*
X97994503Y-77215381D01*
X98053075Y-77113817D01*
X98108432Y-77009362D01*
X98160091Y-76902762D01*
X98207565Y-76794760D01*
X98250369Y-76686102D01*
X98288018Y-76577533D01*
X98320025Y-76469797D01*
X98352943Y-76333952D01*
X98389801Y-76158492D01*
X98428034Y-75958504D01*
X98465072Y-75749077D01*
X98498349Y-75545299D01*
X98525297Y-75362255D01*
X98543349Y-75215036D01*
X98549937Y-75118727D01*
X98549871Y-75092669D01*
X98549487Y-75069687D01*
X98548500Y-75049436D01*
X98547693Y-75040228D01*
X98546628Y-75031573D01*
X98545272Y-75023429D01*
X98543589Y-75015753D01*
X98541542Y-75008502D01*
X98539098Y-75001632D01*
X98536220Y-74995102D01*
X98532874Y-74988867D01*
X98529023Y-74982885D01*
X98524633Y-74977112D01*
X98519668Y-74971507D01*
X98514093Y-74966025D01*
X98507872Y-74960623D01*
X98500970Y-74955260D01*
X98493352Y-74949891D01*
X98484982Y-74944474D01*
X98465846Y-74933323D01*
X98443279Y-74921463D01*
X98416998Y-74908550D01*
X98352162Y-74878186D01*
X98307774Y-74859265D01*
X98260120Y-74841974D01*
X98209723Y-74826362D01*
X98157102Y-74812482D01*
X98102779Y-74800384D01*
X98047276Y-74790118D01*
X97991113Y-74781735D01*
X97934812Y-74775285D01*
X97878893Y-74770820D01*
X97823879Y-74768391D01*
X97770290Y-74768047D01*
X97718646Y-74769839D01*
X97669471Y-74773819D01*
X97623284Y-74780036D01*
X97580607Y-74788543D01*
X97541961Y-74799388D01*
X97519159Y-74807725D01*
X97496273Y-74817698D01*
X97473325Y-74829273D01*
X97450340Y-74842418D01*
X97427341Y-74857098D01*
X97404352Y-74873282D01*
X97381397Y-74890935D01*
X97358499Y-74910025D01*
X97335683Y-74930519D01*
X97312971Y-74952383D01*
X97267957Y-75000090D01*
X97223647Y-75052882D01*
X97180230Y-75110494D01*
X97137897Y-75172659D01*
X97096837Y-75239115D01*
X97057240Y-75309595D01*
X97019295Y-75383834D01*
X96983192Y-75461568D01*
X96949121Y-75542532D01*
X96917271Y-75626460D01*
X96887833Y-75713088D01*
X96854815Y-75822406D01*
X96824224Y-75936320D01*
X96796158Y-76053879D01*
X96770715Y-76174130D01*
X96747993Y-76296122D01*
X96728091Y-76418901D01*
X96711105Y-76541517D01*
X96697136Y-76663017D01*
X96686280Y-76782448D01*
X96678635Y-76898860D01*
X96674301Y-77011299D01*
X96673374Y-77118814D01*
X95694840Y-77118814D01*
X95717897Y-76937977D01*
X95755779Y-76722770D01*
X95803379Y-76512309D01*
X95860536Y-76306928D01*
X95927088Y-76106961D01*
X96002873Y-75912745D01*
X96087730Y-75724612D01*
X96181497Y-75542899D01*
X96284012Y-75367939D01*
X96395114Y-75200067D01*
X96514641Y-75039618D01*
X96642432Y-74886927D01*
X96778324Y-74742328D01*
X96922156Y-74606157D01*
X97073767Y-74478747D01*
X97183901Y-74394919D01*
X97293910Y-74317644D01*
X97403591Y-74246985D01*
X97512740Y-74183008D01*
X97621154Y-74125777D01*
X97728630Y-74075357D01*
X97834963Y-74031812D01*
X97939949Y-73995208D01*
X98043386Y-73965608D01*
X98145070Y-73943078D01*
X98244796Y-73927683D01*
X98342362Y-73919486D01*
X98437563Y-73918554D01*
X98530196Y-73924949D01*
X98620058Y-73938738D01*
X98706944Y-73959984D01*
X98713133Y-73961723D01*
X98718971Y-73963157D01*
X98724476Y-73964215D01*
X98729667Y-73964825D01*
X98734561Y-73964913D01*
X98736903Y-73964738D01*
X98739177Y-73964407D01*
X98741387Y-73963909D01*
X98743533Y-73963235D01*
X98745620Y-73962377D01*
X98747648Y-73961324D01*
X98749621Y-73960070D01*
X98751539Y-73958603D01*
X98753407Y-73956915D01*
X98755226Y-73954998D01*
X98756997Y-73952841D01*
X98758725Y-73950436D01*
X98760410Y-73947775D01*
X98762055Y-73944847D01*
X98763663Y-73941644D01*
X98765235Y-73938156D01*
X98768283Y-73930292D01*
X98771217Y-73921183D01*
X98774055Y-73910755D01*
X98776816Y-73898936D01*
X98779517Y-73885654D01*
X98782178Y-73870837D01*
X98784815Y-73854411D01*
X98787448Y-73836305D01*
X98790095Y-73816446D01*
X98792774Y-73794761D01*
X98795503Y-73771179D01*
X98801184Y-73718030D01*
X98807285Y-73656421D01*
X98813951Y-73585771D01*
X98821329Y-73505500D01*
X98898610Y-72732683D01*
X98936464Y-72408235D01*
X98973288Y-72128669D01*
X99008705Y-71896665D01*
X99042335Y-71714906D01*
X99073799Y-71586070D01*
X99088602Y-71542337D01*
X99102720Y-71512840D01*
X99135609Y-71465212D01*
X99177563Y-71413582D01*
X99227687Y-71358640D01*
X99285083Y-71301075D01*
X99348856Y-71241578D01*
X99418109Y-71180838D01*
X99491945Y-71119547D01*
X99569467Y-71058393D01*
X99649780Y-70998067D01*
X99731986Y-70939259D01*
X99815189Y-70882659D01*
X99898492Y-70828957D01*
X99980999Y-70778843D01*
X100061813Y-70733007D01*
X100140037Y-70692140D01*
X100214776Y-70656931D01*
X100273224Y-70631431D01*
X100297439Y-70621254D01*
X100318586Y-70612758D01*
X100336870Y-70605917D01*
X100352495Y-70600705D01*
X100365663Y-70597096D01*
X100376580Y-70595064D01*
X100385449Y-70594584D01*
X100389179Y-70594917D01*
G37*
G36*
X85335520Y-72334460D02*
G01*
X85492909Y-72339362D01*
X85663256Y-72347477D01*
X85847559Y-72358779D01*
X86046817Y-72373244D01*
X86494199Y-72411560D01*
X86791932Y-72435442D01*
X87083168Y-72451770D01*
X87363584Y-72460583D01*
X87628858Y-72461923D01*
X87874669Y-72455829D01*
X88096693Y-72442342D01*
X88290610Y-72421501D01*
X88375677Y-72408336D01*
X88452096Y-72393348D01*
X88514101Y-72380075D01*
X88572634Y-72368380D01*
X88626365Y-72358470D01*
X88673962Y-72350551D01*
X88714097Y-72344831D01*
X88745439Y-72341517D01*
X88766658Y-72340814D01*
X88773055Y-72341507D01*
X88776423Y-72342930D01*
X88779383Y-72349032D01*
X88779737Y-72358655D01*
X88777572Y-72371656D01*
X88772978Y-72387891D01*
X88756854Y-72429491D01*
X88732071Y-72482309D01*
X88699339Y-72545197D01*
X88659364Y-72617010D01*
X88612855Y-72696600D01*
X88560518Y-72782819D01*
X88441194Y-72970562D01*
X88307055Y-73171065D01*
X88236198Y-73273233D01*
X88163760Y-73375151D01*
X88090450Y-73475671D01*
X88016973Y-73573647D01*
X87822038Y-73820261D01*
X87555979Y-74142642D01*
X87230573Y-74527210D01*
X86857601Y-74960382D01*
X86016074Y-75918212D01*
X85571078Y-76415706D01*
X85125632Y-76907476D01*
X84723134Y-77351358D01*
X84599954Y-77491634D01*
X84554951Y-77545162D01*
X84519891Y-77589067D01*
X84493936Y-77624435D01*
X84476249Y-77652355D01*
X84465994Y-77673914D01*
X84462333Y-77690199D01*
X84464429Y-77702298D01*
X84471446Y-77711298D01*
X84482546Y-77718287D01*
X84496892Y-77724352D01*
X84876359Y-77866279D01*
X85200986Y-77982023D01*
X85479343Y-78073884D01*
X85719999Y-78144158D01*
X85931524Y-78195145D01*
X86029039Y-78214123D01*
X86122486Y-78229141D01*
X86212934Y-78240486D01*
X86301455Y-78248445D01*
X86477001Y-78255355D01*
X86555430Y-78255292D01*
X86627840Y-78253583D01*
X86694846Y-78249997D01*
X86757066Y-78244307D01*
X86815114Y-78236280D01*
X86869607Y-78225689D01*
X86921161Y-78212304D01*
X86970392Y-78195894D01*
X87017914Y-78176231D01*
X87064346Y-78153084D01*
X87110301Y-78126224D01*
X87156397Y-78095421D01*
X87203250Y-78060446D01*
X87251474Y-78021069D01*
X87301687Y-77977060D01*
X87354503Y-77928190D01*
X87393082Y-77892688D01*
X87430050Y-77860545D01*
X87464529Y-77832395D01*
X87480560Y-77820015D01*
X87495639Y-77808871D01*
X87509656Y-77799042D01*
X87522501Y-77790608D01*
X87534064Y-77783646D01*
X87544236Y-77778237D01*
X87552907Y-77774461D01*
X87559966Y-77772395D01*
X87562857Y-77772028D01*
X87565304Y-77772119D01*
X87567293Y-77772678D01*
X87568811Y-77773713D01*
X87573955Y-77779726D01*
X87578484Y-77786830D01*
X87582405Y-77794990D01*
X87585723Y-77804169D01*
X87588447Y-77814330D01*
X87590584Y-77825438D01*
X87592140Y-77837457D01*
X87593122Y-77850349D01*
X87593393Y-77878608D01*
X87591453Y-77909927D01*
X87587357Y-77944014D01*
X87581161Y-77980579D01*
X87572921Y-78019331D01*
X87562693Y-78059978D01*
X87550532Y-78102231D01*
X87536494Y-78145799D01*
X87520635Y-78190390D01*
X87503011Y-78235715D01*
X87483676Y-78281482D01*
X87462688Y-78327401D01*
X87434111Y-78384393D01*
X87402625Y-78441299D01*
X87368473Y-78497850D01*
X87331896Y-78553776D01*
X87293136Y-78608806D01*
X87252435Y-78662670D01*
X87210033Y-78715097D01*
X87166174Y-78765818D01*
X87121098Y-78814562D01*
X87075047Y-78861058D01*
X87028263Y-78905037D01*
X86980988Y-78946228D01*
X86933464Y-78984361D01*
X86885931Y-79019165D01*
X86838632Y-79050370D01*
X86791808Y-79077706D01*
X86712902Y-79117038D01*
X86629244Y-79151751D01*
X86540903Y-79181841D01*
X86447949Y-79207307D01*
X86350451Y-79228145D01*
X86248480Y-79244353D01*
X86142104Y-79255928D01*
X86031392Y-79262866D01*
X85916415Y-79265165D01*
X85797242Y-79262823D01*
X85673943Y-79255836D01*
X85546587Y-79244201D01*
X85415243Y-79227916D01*
X85279981Y-79206977D01*
X85140871Y-79181383D01*
X84997981Y-79151130D01*
X84407127Y-79021128D01*
X84187901Y-78976185D01*
X84008013Y-78942620D01*
X83858865Y-78918938D01*
X83731861Y-78903642D01*
X83618403Y-78895236D01*
X83509893Y-78892226D01*
X83435125Y-78892375D01*
X83364174Y-78894064D01*
X83296476Y-78897437D01*
X83231465Y-78902637D01*
X83168574Y-78909809D01*
X83107238Y-78919094D01*
X83046892Y-78930637D01*
X82986969Y-78944582D01*
X82926903Y-78961071D01*
X82866130Y-78980249D01*
X82804082Y-79002258D01*
X82740195Y-79027242D01*
X82673902Y-79055345D01*
X82604639Y-79086711D01*
X82531838Y-79121482D01*
X82454934Y-79159802D01*
X82313363Y-79230487D01*
X82193216Y-79288372D01*
X82145144Y-79310648D01*
X82107189Y-79327483D01*
X82080939Y-79338132D01*
X82072700Y-79340904D01*
X82067981Y-79341848D01*
X82066544Y-79341782D01*
X82065124Y-79341585D01*
X82063725Y-79341261D01*
X82062348Y-79340812D01*
X82060994Y-79340243D01*
X82059666Y-79339557D01*
X82058365Y-79338756D01*
X82057093Y-79337844D01*
X82055852Y-79336825D01*
X82054643Y-79335700D01*
X82053469Y-79334475D01*
X82052331Y-79333152D01*
X82051231Y-79331733D01*
X82050171Y-79330224D01*
X82049152Y-79328626D01*
X82048177Y-79326943D01*
X82047247Y-79325178D01*
X82046364Y-79323335D01*
X82045529Y-79321416D01*
X82044746Y-79319425D01*
X82044014Y-79317366D01*
X82043337Y-79315241D01*
X82042716Y-79313054D01*
X82042152Y-79310808D01*
X82041648Y-79308506D01*
X82041206Y-79306152D01*
X82040827Y-79303748D01*
X82040512Y-79301299D01*
X82040264Y-79298806D01*
X82040085Y-79296275D01*
X82039976Y-79293707D01*
X82039940Y-79291105D01*
X82039939Y-79291106D01*
X82041170Y-79282178D01*
X82044796Y-79270287D01*
X82058839Y-79238181D01*
X82081269Y-79195928D01*
X82111293Y-79144666D01*
X82148113Y-79085533D01*
X82190933Y-79019667D01*
X82291393Y-78872293D01*
X82406303Y-78711651D01*
X82529296Y-78546847D01*
X82654004Y-78386988D01*
X82715012Y-78311759D01*
X82774060Y-78241182D01*
X83082801Y-77885083D01*
X83565562Y-77335729D01*
X84791532Y-75953860D01*
X85756314Y-74870885D01*
X85997491Y-74601535D01*
X86235824Y-74338181D01*
X86443827Y-74111031D01*
X86594014Y-73950290D01*
X86648278Y-73892753D01*
X86698257Y-73838431D01*
X86742903Y-73788560D01*
X86781168Y-73744373D01*
X86812004Y-73707107D01*
X86834364Y-73677996D01*
X86842038Y-73666885D01*
X86847200Y-73658276D01*
X86849719Y-73652323D01*
X86849947Y-73650391D01*
X86849465Y-73649181D01*
X86824150Y-73640118D01*
X86766663Y-73628989D01*
X86571017Y-73601995D01*
X86294213Y-73571117D01*
X85967940Y-73539272D01*
X85623885Y-73509380D01*
X85293734Y-73484359D01*
X85009176Y-73467126D01*
X84801897Y-73460601D01*
X84649199Y-73462530D01*
X84579434Y-73465235D01*
X84513425Y-73469228D01*
X84450696Y-73474602D01*
X84390772Y-73481453D01*
X84333177Y-73489875D01*
X84277435Y-73499964D01*
X84223072Y-73511813D01*
X84169611Y-73525517D01*
X84116577Y-73541173D01*
X84063495Y-73558873D01*
X84009889Y-73578712D01*
X83955283Y-73600787D01*
X83899202Y-73625191D01*
X83841172Y-73652018D01*
X83791267Y-73676977D01*
X83742446Y-73704005D01*
X83694651Y-73733156D01*
X83647825Y-73764486D01*
X83601909Y-73798050D01*
X83556848Y-73833905D01*
X83512583Y-73872105D01*
X83469058Y-73912706D01*
X83426215Y-73955763D01*
X83383997Y-74001333D01*
X83342347Y-74049470D01*
X83301207Y-74100230D01*
X83260520Y-74153668D01*
X83220229Y-74209840D01*
X83180277Y-74268801D01*
X83140605Y-74330607D01*
X83115830Y-74369314D01*
X83091572Y-74405490D01*
X83068443Y-74438337D01*
X83047057Y-74467060D01*
X83028027Y-74490862D01*
X83019586Y-74500669D01*
X83011964Y-74508947D01*
X83005238Y-74515597D01*
X82999483Y-74520518D01*
X82994777Y-74523612D01*
X82991196Y-74524779D01*
X82987266Y-74524048D01*
X82983915Y-74521418D01*
X82981129Y-74516955D01*
X82978900Y-74510727D01*
X82977215Y-74502800D01*
X82976063Y-74493241D01*
X82975314Y-74469493D01*
X82976565Y-74440015D01*
X82979728Y-74405342D01*
X82984712Y-74366005D01*
X82991430Y-74322538D01*
X82999792Y-74275475D01*
X83009711Y-74225349D01*
X83021096Y-74172691D01*
X83033859Y-74118037D01*
X83047912Y-74061918D01*
X83063166Y-74004869D01*
X83079531Y-73947421D01*
X83096919Y-73890109D01*
X83141234Y-73758192D01*
X83189972Y-73631167D01*
X83242985Y-73509215D01*
X83300127Y-73392516D01*
X83361249Y-73281252D01*
X83426207Y-73175603D01*
X83494852Y-73075748D01*
X83567038Y-72981869D01*
X83642618Y-72894147D01*
X83721445Y-72812760D01*
X83803372Y-72737892D01*
X83888252Y-72669720D01*
X83975939Y-72608427D01*
X84066286Y-72554193D01*
X84159145Y-72507197D01*
X84254370Y-72467621D01*
X84337161Y-72439024D01*
X84422914Y-72413889D01*
X84512629Y-72392191D01*
X84607305Y-72373907D01*
X84707942Y-72359009D01*
X84815540Y-72347474D01*
X84931096Y-72339277D01*
X85055613Y-72334392D01*
X85190087Y-72332795D01*
X85335520Y-72334460D01*
G37*
G36*
X81334086Y-67458106D02*
G01*
X81365133Y-67460913D01*
X81395890Y-67465204D01*
X81426318Y-67470958D01*
X81456376Y-67478157D01*
X81486024Y-67486782D01*
X81515221Y-67496812D01*
X81543927Y-67508228D01*
X81572102Y-67521011D01*
X81599705Y-67535141D01*
X81626696Y-67550599D01*
X81653035Y-67567365D01*
X81678682Y-67585421D01*
X81703595Y-67604745D01*
X81727735Y-67625320D01*
X81751062Y-67647125D01*
X81773534Y-67670141D01*
X81795112Y-67694349D01*
X81815756Y-67719729D01*
X81835424Y-67746261D01*
X81854077Y-67773927D01*
X81871674Y-67802706D01*
X81888176Y-67832579D01*
X81903540Y-67863528D01*
X81917729Y-67895531D01*
X81928432Y-67922810D01*
X81937827Y-67950237D01*
X81945922Y-67977788D01*
X81952726Y-68005435D01*
X81958247Y-68033153D01*
X81962493Y-68060915D01*
X81965472Y-68088697D01*
X81967194Y-68116472D01*
X81967666Y-68144213D01*
X81966897Y-68171896D01*
X81964896Y-68199494D01*
X81961670Y-68226981D01*
X81951579Y-68281518D01*
X81936691Y-68335301D01*
X81917075Y-68388121D01*
X81892796Y-68439771D01*
X81863923Y-68490043D01*
X81830522Y-68538730D01*
X81792660Y-68585625D01*
X81750406Y-68630518D01*
X81703825Y-68673203D01*
X81652986Y-68713473D01*
X81489605Y-68833794D01*
X81489605Y-79439717D01*
X81305320Y-79597158D01*
X81267850Y-79628784D01*
X81232022Y-79658289D01*
X81198683Y-79685026D01*
X81168679Y-79708351D01*
X81142857Y-79727616D01*
X81122062Y-79742176D01*
X81107143Y-79751386D01*
X81102151Y-79753783D01*
X81098944Y-79754599D01*
X81090177Y-79326459D01*
X81082634Y-78160729D01*
X81074438Y-74328657D01*
X81065864Y-70479584D01*
X81048641Y-68844839D01*
X81047259Y-68841740D01*
X81045531Y-68838417D01*
X81041080Y-68831142D01*
X81035371Y-68823095D01*
X81028488Y-68814358D01*
X81020515Y-68805013D01*
X81011536Y-68795142D01*
X81001636Y-68784826D01*
X80990897Y-68774147D01*
X80979405Y-68763187D01*
X80967242Y-68752027D01*
X80954493Y-68740750D01*
X80941242Y-68729437D01*
X80927573Y-68718169D01*
X80913570Y-68707028D01*
X80899316Y-68696097D01*
X80884896Y-68685456D01*
X80844290Y-68653857D01*
X80806961Y-68620280D01*
X80772882Y-68584884D01*
X80742028Y-68547832D01*
X80714370Y-68509284D01*
X80689885Y-68469401D01*
X80668544Y-68428345D01*
X80650322Y-68386275D01*
X80635192Y-68343354D01*
X80623128Y-68299742D01*
X80614104Y-68255601D01*
X80608094Y-68211090D01*
X80605070Y-68166372D01*
X80605021Y-68131530D01*
X81059985Y-68131530D01*
X81060695Y-68147082D01*
X81062593Y-68162924D01*
X81065712Y-68179027D01*
X81070087Y-68195357D01*
X81075749Y-68211884D01*
X81081527Y-68225740D01*
X81088089Y-68239034D01*
X81095390Y-68251756D01*
X81103388Y-68263891D01*
X81112039Y-68275429D01*
X81121302Y-68286356D01*
X81131132Y-68296661D01*
X81141487Y-68306330D01*
X81152323Y-68315352D01*
X81163598Y-68323713D01*
X81175268Y-68331403D01*
X81187291Y-68338407D01*
X81199624Y-68344714D01*
X81212222Y-68350312D01*
X81225045Y-68355187D01*
X81238047Y-68359328D01*
X81251187Y-68362723D01*
X81264421Y-68365357D01*
X81277707Y-68367221D01*
X81291001Y-68368300D01*
X81304260Y-68368583D01*
X81317441Y-68368057D01*
X81330501Y-68366709D01*
X81343397Y-68364528D01*
X81356087Y-68361501D01*
X81368526Y-68357616D01*
X81380672Y-68352859D01*
X81392483Y-68347219D01*
X81403914Y-68340684D01*
X81414923Y-68333240D01*
X81425468Y-68324876D01*
X81435504Y-68315579D01*
X81447160Y-68303209D01*
X81457848Y-68290414D01*
X81467574Y-68277241D01*
X81476349Y-68263736D01*
X81484179Y-68249944D01*
X81491072Y-68235912D01*
X81497038Y-68221684D01*
X81502083Y-68207306D01*
X81506216Y-68192825D01*
X81509446Y-68178286D01*
X81511779Y-68163734D01*
X81513225Y-68149216D01*
X81513791Y-68134777D01*
X81513486Y-68120463D01*
X81512318Y-68106319D01*
X81510294Y-68092392D01*
X81507424Y-68078727D01*
X81503714Y-68065370D01*
X81499173Y-68052367D01*
X81493810Y-68039763D01*
X81487632Y-68027604D01*
X81480648Y-68015935D01*
X81472865Y-68004804D01*
X81464291Y-67994254D01*
X81454936Y-67984333D01*
X81444806Y-67975085D01*
X81433911Y-67966557D01*
X81422258Y-67958794D01*
X81409854Y-67951841D01*
X81396710Y-67945746D01*
X81382831Y-67940553D01*
X81368228Y-67936308D01*
X81349448Y-67932141D01*
X81330956Y-67929111D01*
X81312787Y-67927189D01*
X81294974Y-67926342D01*
X81277549Y-67926540D01*
X81260547Y-67927750D01*
X81244000Y-67929941D01*
X81227941Y-67933082D01*
X81212405Y-67937142D01*
X81197424Y-67942089D01*
X81183032Y-67947892D01*
X81169261Y-67954520D01*
X81156146Y-67961940D01*
X81143720Y-67970123D01*
X81132015Y-67979035D01*
X81121065Y-67988647D01*
X81110904Y-67998926D01*
X81101565Y-68009841D01*
X81093081Y-68021361D01*
X81085485Y-68033455D01*
X81078811Y-68046090D01*
X81073091Y-68059237D01*
X81068360Y-68072862D01*
X81064651Y-68086936D01*
X81061996Y-68101426D01*
X81060430Y-68116301D01*
X81059985Y-68131530D01*
X80605021Y-68131530D01*
X80605007Y-68121607D01*
X80607878Y-68076957D01*
X80613658Y-68032581D01*
X80622319Y-67988642D01*
X80633836Y-67945300D01*
X80648182Y-67902717D01*
X80665330Y-67861053D01*
X80685255Y-67820469D01*
X80707930Y-67781126D01*
X80733329Y-67743186D01*
X80761425Y-67706809D01*
X80792192Y-67672156D01*
X80825604Y-67639389D01*
X80861635Y-67608668D01*
X80900258Y-67580154D01*
X80941446Y-67554009D01*
X80985174Y-67530393D01*
X81031415Y-67509467D01*
X81080143Y-67491393D01*
X81112051Y-67481631D01*
X81143993Y-67473508D01*
X81175927Y-67467005D01*
X81207815Y-67462103D01*
X81239615Y-67458781D01*
X81271287Y-67457020D01*
X81302791Y-67456802D01*
X81334086Y-67458106D01*
G37*
G36*
X91820413Y-73912908D02*
G01*
X91829948Y-73914728D01*
X91838272Y-73917788D01*
X91845427Y-73922101D01*
X91851452Y-73927676D01*
X91856388Y-73934525D01*
X91860273Y-73942658D01*
X91863149Y-73952087D01*
X91865056Y-73962823D01*
X91866033Y-73974876D01*
X91866121Y-73988257D01*
X91865360Y-74002978D01*
X91861449Y-74036482D01*
X91854623Y-74075475D01*
X91845201Y-74120044D01*
X91765113Y-74527241D01*
X91629507Y-75253848D01*
X91481586Y-76065483D01*
X91364549Y-76727766D01*
X91121478Y-78145762D01*
X91022945Y-78689060D01*
X90926310Y-79150567D01*
X90877304Y-79354570D01*
X90827090Y-79542830D01*
X90775109Y-79716917D01*
X90720799Y-79878397D01*
X90663599Y-80028840D01*
X90602950Y-80169814D01*
X90538290Y-80302887D01*
X90469059Y-80429628D01*
X90394696Y-80551606D01*
X90314640Y-80670387D01*
X90228331Y-80787542D01*
X90135208Y-80904638D01*
X90061961Y-80989199D01*
X89982066Y-81073108D01*
X89896193Y-81155932D01*
X89805013Y-81237237D01*
X89709195Y-81316590D01*
X89609410Y-81393556D01*
X89506327Y-81467702D01*
X89400617Y-81538595D01*
X89292950Y-81605801D01*
X89183995Y-81668886D01*
X89074422Y-81727416D01*
X88964903Y-81780959D01*
X88856106Y-81829079D01*
X88748701Y-81871345D01*
X88643360Y-81907321D01*
X88540751Y-81936575D01*
X88478101Y-81950969D01*
X88409525Y-81963864D01*
X88335939Y-81975234D01*
X88258256Y-81985050D01*
X88094264Y-81999917D01*
X87924869Y-82008249D01*
X87757392Y-82009830D01*
X87676661Y-82008022D01*
X87599154Y-82004445D01*
X87525787Y-81999074D01*
X87457475Y-81991880D01*
X87395133Y-81982836D01*
X87339675Y-81971917D01*
X87254045Y-81950192D01*
X87170714Y-81924936D01*
X87089969Y-81896351D01*
X87012099Y-81864640D01*
X86937389Y-81830005D01*
X86866127Y-81792649D01*
X86798601Y-81752774D01*
X86735097Y-81710584D01*
X86675903Y-81666279D01*
X86621307Y-81620063D01*
X86571594Y-81572139D01*
X86527053Y-81522708D01*
X86487971Y-81471973D01*
X86454635Y-81420137D01*
X86427332Y-81367402D01*
X86406350Y-81313971D01*
X86396154Y-81278105D01*
X86388236Y-81239551D01*
X86382547Y-81198701D01*
X86379040Y-81155944D01*
X86377666Y-81111672D01*
X86378378Y-81066274D01*
X86381127Y-81020143D01*
X86385865Y-80973668D01*
X86392545Y-80927241D01*
X86401118Y-80881251D01*
X86411536Y-80836091D01*
X86423751Y-80792150D01*
X86437716Y-80749819D01*
X86453382Y-80709489D01*
X86470701Y-80671551D01*
X86489625Y-80636396D01*
X86520126Y-80587549D01*
X86552933Y-80540769D01*
X86587457Y-80496465D01*
X86623108Y-80455050D01*
X86659297Y-80416936D01*
X86695433Y-80382533D01*
X86730926Y-80352254D01*
X86765187Y-80326510D01*
X86797627Y-80305713D01*
X86812979Y-80297297D01*
X86827655Y-80290273D01*
X86841580Y-80284691D01*
X86854681Y-80280603D01*
X86866884Y-80278060D01*
X86878116Y-80277114D01*
X86888302Y-80277816D01*
X86897370Y-80280218D01*
X86905244Y-80284370D01*
X86911853Y-80290326D01*
X86917121Y-80298135D01*
X86920975Y-80307849D01*
X86923342Y-80319521D01*
X86924147Y-80333200D01*
X86924988Y-80360095D01*
X86927481Y-80387483D01*
X86931582Y-80415306D01*
X86937246Y-80443508D01*
X86944429Y-80472028D01*
X86953087Y-80500810D01*
X86974647Y-80558926D01*
X87001573Y-80617390D01*
X87033507Y-80675740D01*
X87070095Y-80733510D01*
X87110981Y-80790236D01*
X87155809Y-80845454D01*
X87204225Y-80898700D01*
X87255871Y-80949509D01*
X87310394Y-80997416D01*
X87367437Y-81041959D01*
X87426646Y-81082672D01*
X87487663Y-81119091D01*
X87550135Y-81150752D01*
X87585889Y-81167057D01*
X87618790Y-81181502D01*
X87649519Y-81194196D01*
X87678761Y-81205252D01*
X87707199Y-81214783D01*
X87735516Y-81222898D01*
X87764396Y-81229710D01*
X87794522Y-81235331D01*
X87826577Y-81239873D01*
X87861246Y-81243446D01*
X87899210Y-81246164D01*
X87941155Y-81248137D01*
X87987762Y-81249477D01*
X88039716Y-81250295D01*
X88162397Y-81250816D01*
X88289460Y-81250402D01*
X88389744Y-81248346D01*
X88431907Y-81246320D01*
X88469850Y-81243427D01*
X88504399Y-81239513D01*
X88536378Y-81234427D01*
X88566614Y-81228015D01*
X88595929Y-81220125D01*
X88625151Y-81210604D01*
X88655103Y-81199301D01*
X88686611Y-81186062D01*
X88720500Y-81170735D01*
X88798720Y-81133208D01*
X88848239Y-81107841D01*
X88896686Y-81080632D01*
X88944074Y-81051558D01*
X88990415Y-81020598D01*
X89035724Y-80987730D01*
X89080012Y-80952933D01*
X89123294Y-80916185D01*
X89165583Y-80877464D01*
X89206892Y-80836749D01*
X89247233Y-80794017D01*
X89286621Y-80749248D01*
X89325068Y-80702420D01*
X89362588Y-80653511D01*
X89399194Y-80602500D01*
X89434899Y-80549364D01*
X89469717Y-80494082D01*
X89503660Y-80436632D01*
X89536741Y-80376994D01*
X89600373Y-80251062D01*
X89660719Y-80116114D01*
X89717883Y-79971975D01*
X89771972Y-79818474D01*
X89823091Y-79655436D01*
X89871347Y-79482689D01*
X89916844Y-79300059D01*
X89977557Y-79012569D01*
X90057432Y-78604109D01*
X90127104Y-78228610D01*
X90148938Y-78101326D01*
X90157209Y-78040007D01*
X90156876Y-78039710D01*
X90155872Y-78040046D01*
X90151924Y-78042558D01*
X90145498Y-78047424D01*
X90136727Y-78054527D01*
X90112684Y-78074966D01*
X90080861Y-78102928D01*
X90042326Y-78137465D01*
X89998145Y-78177630D01*
X89949384Y-78222475D01*
X89897109Y-78271052D01*
X89844089Y-78319678D01*
X89789874Y-78367657D01*
X89734569Y-78414914D01*
X89678277Y-78461377D01*
X89563143Y-78551631D01*
X89445299Y-78637835D01*
X89325569Y-78719405D01*
X89265256Y-78758271D01*
X89204780Y-78795760D01*
X89144246Y-78831799D01*
X89083757Y-78866316D01*
X89023416Y-78899237D01*
X88963325Y-78930490D01*
X88912789Y-78954676D01*
X88862892Y-78975692D01*
X88813688Y-78993571D01*
X88765231Y-79008347D01*
X88717575Y-79020052D01*
X88670775Y-79028720D01*
X88624886Y-79034384D01*
X88579961Y-79037079D01*
X88536054Y-79036836D01*
X88493221Y-79033690D01*
X88451515Y-79027674D01*
X88410991Y-79018821D01*
X88371702Y-79007164D01*
X88333704Y-78992737D01*
X88297051Y-78975574D01*
X88261796Y-78955706D01*
X88227995Y-78933169D01*
X88195701Y-78907995D01*
X88164969Y-78880217D01*
X88135853Y-78849870D01*
X88108407Y-78816985D01*
X88082686Y-78781598D01*
X88058744Y-78743740D01*
X88036635Y-78703445D01*
X88016414Y-78660747D01*
X87998135Y-78615679D01*
X87981852Y-78568274D01*
X87967620Y-78518566D01*
X87955492Y-78466588D01*
X87945523Y-78412373D01*
X87937768Y-78355955D01*
X87932281Y-78297367D01*
X87929702Y-78244949D01*
X87929319Y-78186977D01*
X87931272Y-78122507D01*
X87935700Y-78050594D01*
X87942742Y-77970294D01*
X87952537Y-77880663D01*
X87965226Y-77780756D01*
X87980947Y-77669631D01*
X88022045Y-77409944D01*
X88076946Y-77094050D01*
X88146766Y-76714393D01*
X88232619Y-76263422D01*
X88288274Y-75959527D01*
X88336934Y-75666045D01*
X88373360Y-75416423D01*
X88385347Y-75318511D01*
X88392311Y-75244107D01*
X88398585Y-75149025D01*
X88402150Y-75075907D01*
X88402715Y-75046444D01*
X88402361Y-75021103D01*
X88401008Y-74999429D01*
X88398576Y-74980965D01*
X88394984Y-74965254D01*
X88390152Y-74951842D01*
X88384000Y-74940271D01*
X88376446Y-74930085D01*
X88367410Y-74920828D01*
X88356813Y-74912045D01*
X88344574Y-74903278D01*
X88330612Y-74894072D01*
X88318235Y-74886441D01*
X88306089Y-74879728D01*
X88294000Y-74873920D01*
X88281795Y-74869006D01*
X88275595Y-74866880D01*
X88269301Y-74864973D01*
X88262892Y-74863283D01*
X88256345Y-74861809D01*
X88249640Y-74860549D01*
X88242754Y-74859502D01*
X88228355Y-74858039D01*
X88212975Y-74857409D01*
X88196440Y-74857600D01*
X88178578Y-74858598D01*
X88159217Y-74860393D01*
X88138181Y-74862972D01*
X88115300Y-74866322D01*
X88090399Y-74870432D01*
X88063305Y-74875290D01*
X88003759Y-74885142D01*
X87977266Y-74888541D01*
X87952973Y-74890883D01*
X87930889Y-74892137D01*
X87911021Y-74892271D01*
X87893379Y-74891256D01*
X87877973Y-74889061D01*
X87864810Y-74885656D01*
X87853900Y-74881011D01*
X87845253Y-74875094D01*
X87838876Y-74867875D01*
X87834779Y-74859324D01*
X87832970Y-74849411D01*
X87833459Y-74838104D01*
X87836255Y-74825374D01*
X87841367Y-74811191D01*
X87848803Y-74795522D01*
X87858572Y-74778339D01*
X87870684Y-74759610D01*
X87885147Y-74739306D01*
X87901971Y-74717395D01*
X87921164Y-74693847D01*
X87942735Y-74668633D01*
X87993047Y-74613080D01*
X88052980Y-74550492D01*
X88122605Y-74480627D01*
X88201994Y-74403240D01*
X88253762Y-74354118D01*
X88303885Y-74308145D01*
X88352519Y-74265219D01*
X88399820Y-74225240D01*
X88445944Y-74188106D01*
X88491047Y-74153716D01*
X88535285Y-74121971D01*
X88578814Y-74092767D01*
X88621791Y-74066005D01*
X88664371Y-74041584D01*
X88706710Y-74019402D01*
X88748966Y-73999359D01*
X88791293Y-73981353D01*
X88833848Y-73965284D01*
X88876787Y-73951050D01*
X88920266Y-73938551D01*
X88944364Y-73932299D01*
X88966477Y-73926960D01*
X88986845Y-73922551D01*
X89005711Y-73919087D01*
X89023313Y-73916584D01*
X89039894Y-73915057D01*
X89055695Y-73914523D01*
X89070955Y-73914996D01*
X89085916Y-73916493D01*
X89100820Y-73919030D01*
X89115906Y-73922621D01*
X89131416Y-73927284D01*
X89147590Y-73933032D01*
X89164670Y-73939883D01*
X89182897Y-73947852D01*
X89202510Y-73956955D01*
X89228266Y-73970390D01*
X89252772Y-73985660D01*
X89276027Y-74002764D01*
X89298033Y-74021704D01*
X89318789Y-74042481D01*
X89338296Y-74065095D01*
X89356553Y-74089547D01*
X89373560Y-74115837D01*
X89389319Y-74143967D01*
X89403828Y-74173937D01*
X89417088Y-74205748D01*
X89429099Y-74239400D01*
X89439861Y-74274895D01*
X89449374Y-74312233D01*
X89457639Y-74351415D01*
X89464655Y-74392442D01*
X89470423Y-74435314D01*
X89474943Y-74480032D01*
X89478214Y-74526596D01*
X89480238Y-74575009D01*
X89481013Y-74625270D01*
X89480541Y-74677379D01*
X89478820Y-74731339D01*
X89475853Y-74787149D01*
X89466175Y-74904324D01*
X89451508Y-75028910D01*
X89431853Y-75160913D01*
X89407211Y-75300339D01*
X89236868Y-76213622D01*
X89116797Y-76891702D01*
X89045703Y-77342219D01*
X89028119Y-77484530D01*
X89022293Y-77572816D01*
X89022958Y-77615662D01*
X89024942Y-77656611D01*
X89028235Y-77695654D01*
X89032823Y-77732785D01*
X89038694Y-77767995D01*
X89045834Y-77801275D01*
X89054232Y-77832619D01*
X89063875Y-77862017D01*
X89074750Y-77889463D01*
X89086844Y-77914947D01*
X89100146Y-77938461D01*
X89114642Y-77959999D01*
X89130320Y-77979552D01*
X89147167Y-77997111D01*
X89165170Y-78012669D01*
X89184318Y-78026218D01*
X89204596Y-78037749D01*
X89225994Y-78047255D01*
X89248498Y-78054728D01*
X89272095Y-78060159D01*
X89296774Y-78063542D01*
X89322520Y-78064866D01*
X89349323Y-78064126D01*
X89377168Y-78061312D01*
X89406044Y-78056416D01*
X89435938Y-78049432D01*
X89466838Y-78040349D01*
X89498730Y-78029162D01*
X89531602Y-78015860D01*
X89565442Y-78000438D01*
X89600237Y-77982885D01*
X89635974Y-77963196D01*
X89677903Y-77937731D01*
X89720833Y-77908960D01*
X89764402Y-77877248D01*
X89808250Y-77842963D01*
X89852017Y-77806470D01*
X89895343Y-77768135D01*
X89937868Y-77728325D01*
X89979232Y-77687406D01*
X90019074Y-77645745D01*
X90057034Y-77603707D01*
X90092752Y-77561659D01*
X90125868Y-77519967D01*
X90156022Y-77478998D01*
X90182853Y-77439118D01*
X90206001Y-77400693D01*
X90225107Y-77364089D01*
X90237902Y-77333770D01*
X90251581Y-77294302D01*
X90266304Y-77244869D01*
X90282231Y-77184655D01*
X90299522Y-77112842D01*
X90318338Y-77028614D01*
X90361184Y-76819647D01*
X90412052Y-76551223D01*
X90472225Y-76216808D01*
X90542984Y-75809871D01*
X90625612Y-75323878D01*
X90700359Y-74891947D01*
X90727738Y-74751686D01*
X90751642Y-74650049D01*
X90763038Y-74610938D01*
X90774463Y-74578153D01*
X90786216Y-74550582D01*
X90798595Y-74527116D01*
X90811899Y-74506643D01*
X90826428Y-74488053D01*
X90860354Y-74452082D01*
X90889883Y-74423660D01*
X90920701Y-74395582D01*
X90952839Y-74367826D01*
X90986329Y-74340373D01*
X91021202Y-74313202D01*
X91057488Y-74286292D01*
X91095219Y-74259623D01*
X91134426Y-74233174D01*
X91175139Y-74206926D01*
X91217391Y-74180856D01*
X91261212Y-74154946D01*
X91306633Y-74129174D01*
X91353685Y-74103520D01*
X91402400Y-74077963D01*
X91452808Y-74052483D01*
X91504941Y-74027060D01*
X91568117Y-73997180D01*
X91624210Y-73971650D01*
X91673538Y-73950558D01*
X91716424Y-73933991D01*
X91753187Y-73922037D01*
X91769372Y-73917817D01*
X91784148Y-73914783D01*
X91797553Y-73912947D01*
X91809628Y-73912318D01*
X91820413Y-73912908D01*
G37*
G36*
X98643387Y-81270201D02*
G01*
X99219823Y-81277154D01*
X99560879Y-81289472D01*
X99652022Y-81297830D01*
X99694981Y-81307753D01*
X99704021Y-81313298D01*
X99715705Y-81321624D01*
X99729849Y-81332564D01*
X99746270Y-81345948D01*
X99785203Y-81379379D01*
X99831033Y-81420570D01*
X99882287Y-81468174D01*
X99937494Y-81520846D01*
X99995180Y-81577239D01*
X100053875Y-81636007D01*
X100108525Y-81692007D01*
X100156844Y-81742968D01*
X100198995Y-81789298D01*
X100235139Y-81831408D01*
X100265436Y-81869706D01*
X100290047Y-81904600D01*
X100300271Y-81920899D01*
X100309134Y-81936500D01*
X100316657Y-81951455D01*
X100322858Y-81965814D01*
X100327759Y-81979630D01*
X100331380Y-81992952D01*
X100333741Y-82005832D01*
X100334861Y-82018322D01*
X100334762Y-82030471D01*
X100333463Y-82042332D01*
X100330984Y-82053956D01*
X100327345Y-82065393D01*
X100322568Y-82076695D01*
X100316671Y-82087913D01*
X100309674Y-82099097D01*
X100301599Y-82110300D01*
X100282293Y-82132963D01*
X100258912Y-82156313D01*
X100246471Y-82167681D01*
X100234293Y-82178119D01*
X100222331Y-82187610D01*
X100210538Y-82196137D01*
X100198867Y-82203683D01*
X100187269Y-82210229D01*
X100175698Y-82215759D01*
X100164105Y-82220256D01*
X100152443Y-82223702D01*
X100140665Y-82226080D01*
X100128724Y-82227372D01*
X100116571Y-82227562D01*
X100104159Y-82226631D01*
X100091441Y-82224564D01*
X100078369Y-82221341D01*
X100064896Y-82216947D01*
X100050974Y-82211363D01*
X100036555Y-82204573D01*
X100021592Y-82196559D01*
X100006039Y-82187304D01*
X99989846Y-82176790D01*
X99972967Y-82165001D01*
X99955354Y-82151918D01*
X99936959Y-82137525D01*
X99917736Y-82121804D01*
X99897636Y-82104739D01*
X99854616Y-82066503D01*
X99807521Y-82022680D01*
X99755970Y-81973131D01*
X99490884Y-81715162D01*
X96103046Y-81715162D01*
X95711485Y-82076319D01*
X95631548Y-82148868D01*
X95554499Y-82216549D01*
X95482201Y-82277882D01*
X95416517Y-82331385D01*
X95359310Y-82375578D01*
X95312444Y-82408977D01*
X95293472Y-82421167D01*
X95277783Y-82430104D01*
X95265611Y-82435601D01*
X95257189Y-82437475D01*
X95250402Y-82437197D01*
X95243027Y-82436382D01*
X95235135Y-82435057D01*
X95226798Y-82433250D01*
X95218087Y-82430988D01*
X95209074Y-82428298D01*
X95199830Y-82425208D01*
X95190427Y-82421746D01*
X95180934Y-82417939D01*
X95171425Y-82413814D01*
X95161971Y-82409399D01*
X95152641Y-82404721D01*
X95143509Y-82399808D01*
X95134646Y-82394686D01*
X95126122Y-82389385D01*
X95118009Y-82383931D01*
X95108406Y-82376790D01*
X95103863Y-82373087D01*
X95099490Y-82369293D01*
X95095286Y-82365404D01*
X95091251Y-82361418D01*
X95087382Y-82357333D01*
X95083679Y-82353145D01*
X95080141Y-82348854D01*
X95076766Y-82344455D01*
X95073554Y-82339946D01*
X95070503Y-82335326D01*
X95067612Y-82330591D01*
X95064880Y-82325738D01*
X95062305Y-82320766D01*
X95059887Y-82315672D01*
X95057625Y-82310452D01*
X95055517Y-82305106D01*
X95053562Y-82299629D01*
X95051759Y-82294020D01*
X95050107Y-82288276D01*
X95048605Y-82282395D01*
X95046045Y-82270210D01*
X95044069Y-82257444D01*
X95042670Y-82244077D01*
X95041837Y-82230089D01*
X95041561Y-82215460D01*
X95042125Y-82196797D01*
X95042900Y-82187761D01*
X95044068Y-82178843D01*
X95045676Y-82169986D01*
X95047771Y-82161133D01*
X95050400Y-82152224D01*
X95053612Y-82143202D01*
X95057452Y-82134009D01*
X95061970Y-82124588D01*
X95067212Y-82114879D01*
X95073225Y-82104825D01*
X95080057Y-82094368D01*
X95087756Y-82083451D01*
X95096368Y-82072014D01*
X95105941Y-82060000D01*
X95116524Y-82047351D01*
X95128162Y-82034010D01*
X95154795Y-82005015D01*
X95186221Y-81972552D01*
X95222820Y-81936158D01*
X95264969Y-81895367D01*
X95313048Y-81849716D01*
X95367437Y-81798741D01*
X95428514Y-81741978D01*
X95585472Y-81598204D01*
X95726782Y-81471798D01*
X95836958Y-81376416D01*
X95875531Y-81344629D01*
X95900512Y-81325720D01*
X95908073Y-81320961D01*
X95916493Y-81316468D01*
X95926023Y-81312234D01*
X95936910Y-81308251D01*
X95949403Y-81304512D01*
X95963752Y-81301008D01*
X95980204Y-81297733D01*
X95999010Y-81294679D01*
X96020417Y-81291838D01*
X96044675Y-81289203D01*
X96102738Y-81284519D01*
X96175188Y-81280569D01*
X96264018Y-81277290D01*
X96371216Y-81274623D01*
X96498774Y-81272508D01*
X96648682Y-81270884D01*
X96822931Y-81269690D01*
X97252413Y-81268354D01*
X97803145Y-81268016D01*
X98643387Y-81270201D01*
G37*
G36*
X101372999Y-80872462D02*
G01*
X101591200Y-81086320D01*
X101759373Y-81249155D01*
X101885998Y-81367903D01*
X101936379Y-81412913D01*
X101979552Y-81449504D01*
X102016577Y-81478542D01*
X102048513Y-81500894D01*
X102076421Y-81517429D01*
X102101359Y-81529012D01*
X102124388Y-81536512D01*
X102146568Y-81540796D01*
X102168957Y-81542730D01*
X102192617Y-81543182D01*
X102206674Y-81542984D01*
X102220576Y-81542406D01*
X102234240Y-81541467D01*
X102247585Y-81540185D01*
X102260529Y-81538580D01*
X102272988Y-81536673D01*
X102284882Y-81534481D01*
X102296127Y-81532026D01*
X102306641Y-81529325D01*
X102316343Y-81526399D01*
X102325151Y-81523268D01*
X102332981Y-81519950D01*
X102339752Y-81516465D01*
X102345382Y-81512833D01*
X102349788Y-81509072D01*
X102352889Y-81505204D01*
X102357764Y-81498279D01*
X102363860Y-81491256D01*
X102371119Y-81484155D01*
X102379483Y-81476997D01*
X102399290Y-81462593D01*
X102422814Y-81448208D01*
X102449589Y-81434010D01*
X102479146Y-81420163D01*
X102511020Y-81406835D01*
X102544741Y-81394190D01*
X102579844Y-81382396D01*
X102615860Y-81371617D01*
X102652323Y-81362019D01*
X102688766Y-81353769D01*
X102724721Y-81347032D01*
X102759721Y-81341975D01*
X102793299Y-81338763D01*
X102824988Y-81337562D01*
X102857738Y-81338380D01*
X102891024Y-81341077D01*
X102924649Y-81345573D01*
X102958417Y-81351790D01*
X102992131Y-81359646D01*
X103025595Y-81369063D01*
X103058612Y-81379961D01*
X103090987Y-81392261D01*
X103122522Y-81405882D01*
X103153022Y-81420745D01*
X103182289Y-81436770D01*
X103210128Y-81453877D01*
X103236341Y-81471988D01*
X103260733Y-81491022D01*
X103283108Y-81510900D01*
X103303268Y-81531541D01*
X103319173Y-81550709D01*
X103335615Y-81573454D01*
X103352377Y-81599282D01*
X103369247Y-81627698D01*
X103386010Y-81658207D01*
X103402451Y-81690313D01*
X103418356Y-81723522D01*
X103433510Y-81757338D01*
X103447699Y-81791267D01*
X103460709Y-81824813D01*
X103472324Y-81857481D01*
X103482331Y-81888777D01*
X103490516Y-81918204D01*
X103496663Y-81945269D01*
X103500558Y-81969475D01*
X103501987Y-81990328D01*
X103500157Y-82038600D01*
X103494184Y-82087441D01*
X103484293Y-82136496D01*
X103470706Y-82185408D01*
X103453645Y-82233823D01*
X103433333Y-82281383D01*
X103409994Y-82327735D01*
X103383849Y-82372521D01*
X103355121Y-82415386D01*
X103324034Y-82455975D01*
X103290810Y-82493931D01*
X103255671Y-82528899D01*
X103218840Y-82560523D01*
X103180540Y-82588448D01*
X103140994Y-82612317D01*
X103120824Y-82622619D01*
X103100425Y-82631775D01*
X103071191Y-82642664D01*
X103039558Y-82652015D01*
X103005906Y-82659832D01*
X102970612Y-82666120D01*
X102934057Y-82670885D01*
X102896619Y-82674133D01*
X102858677Y-82675867D01*
X102820610Y-82676094D01*
X102782797Y-82674818D01*
X102745617Y-82672045D01*
X102709449Y-82667781D01*
X102674672Y-82662030D01*
X102641664Y-82654798D01*
X102610805Y-82646089D01*
X102582474Y-82635910D01*
X102557049Y-82624265D01*
X102557051Y-82624265D01*
X102516219Y-82601353D01*
X102476655Y-82575770D01*
X102438549Y-82547774D01*
X102402088Y-82517623D01*
X102367460Y-82485577D01*
X102334856Y-82451892D01*
X102304462Y-82416829D01*
X102276467Y-82380644D01*
X102251061Y-82343597D01*
X102228430Y-82305946D01*
X102208764Y-82267950D01*
X102192251Y-82229866D01*
X102179080Y-82191953D01*
X102173806Y-82173142D01*
X102169439Y-82154470D01*
X102166000Y-82135971D01*
X102163515Y-82117675D01*
X102162007Y-82099617D01*
X102161499Y-82081827D01*
X102161267Y-82067974D01*
X102160946Y-82061593D01*
X102160461Y-82055558D01*
X102159792Y-82049855D01*
X102158919Y-82044470D01*
X102157822Y-82039390D01*
X102156480Y-82034600D01*
X102154873Y-82030088D01*
X102152981Y-82025839D01*
X102150783Y-82021839D01*
X102148259Y-82018075D01*
X102145389Y-82014532D01*
X102142153Y-82011199D01*
X102140240Y-82009541D01*
X102590433Y-82009541D01*
X102591062Y-82019537D01*
X102592545Y-82029279D01*
X102594913Y-82038728D01*
X102601157Y-82057488D01*
X102608192Y-82075350D01*
X102615978Y-82092303D01*
X102624474Y-82108336D01*
X102633638Y-82123438D01*
X102643430Y-82137599D01*
X102653809Y-82150808D01*
X102664734Y-82163055D01*
X102676165Y-82174329D01*
X102688060Y-82184618D01*
X102700378Y-82193914D01*
X102713079Y-82202204D01*
X102726122Y-82209478D01*
X102739466Y-82215725D01*
X102753069Y-82220936D01*
X102766892Y-82225098D01*
X102780893Y-82228202D01*
X102795032Y-82230237D01*
X102809267Y-82231191D01*
X102823557Y-82231055D01*
X102837862Y-82229818D01*
X102852142Y-82227469D01*
X102866354Y-82223997D01*
X102880458Y-82219392D01*
X102894413Y-82213643D01*
X102908179Y-82206739D01*
X102921715Y-82198670D01*
X102934979Y-82189425D01*
X102947930Y-82178993D01*
X102960529Y-82167364D01*
X102972733Y-82154527D01*
X102984503Y-82140471D01*
X102991765Y-82130987D01*
X102998823Y-82121276D01*
X103005641Y-82111407D01*
X103012183Y-82101454D01*
X103018411Y-82091486D01*
X103024289Y-82081576D01*
X103029781Y-82071794D01*
X103034850Y-82062213D01*
X103039459Y-82052903D01*
X103043573Y-82043935D01*
X103047154Y-82035382D01*
X103050166Y-82027314D01*
X103052572Y-82019804D01*
X103054336Y-82012921D01*
X103055421Y-82006737D01*
X103055791Y-82001325D01*
X103055324Y-81993772D01*
X103053950Y-81985904D01*
X103051713Y-81977759D01*
X103048654Y-81969372D01*
X103044816Y-81960779D01*
X103040242Y-81952018D01*
X103034974Y-81943124D01*
X103029055Y-81934134D01*
X103022526Y-81925083D01*
X103015431Y-81916009D01*
X102999710Y-81897936D01*
X102982232Y-81880204D01*
X102963336Y-81863104D01*
X102943362Y-81846927D01*
X102922649Y-81831964D01*
X102901538Y-81818505D01*
X102880367Y-81806842D01*
X102869866Y-81801774D01*
X102859477Y-81797264D01*
X102849243Y-81793348D01*
X102839206Y-81790063D01*
X102829409Y-81787444D01*
X102819895Y-81785529D01*
X102810705Y-81784353D01*
X102801883Y-81783953D01*
X102791472Y-81784403D01*
X102781001Y-81785726D01*
X102770499Y-81787883D01*
X102760000Y-81790836D01*
X102749534Y-81794546D01*
X102739132Y-81798974D01*
X102728827Y-81804080D01*
X102718650Y-81809827D01*
X102708633Y-81816175D01*
X102698807Y-81823085D01*
X102689204Y-81830519D01*
X102679855Y-81838438D01*
X102670792Y-81846802D01*
X102662046Y-81855573D01*
X102653650Y-81864713D01*
X102645634Y-81874181D01*
X102638030Y-81883940D01*
X102630871Y-81893950D01*
X102624186Y-81904173D01*
X102618009Y-81914570D01*
X102612370Y-81925101D01*
X102607301Y-81935728D01*
X102602834Y-81946413D01*
X102599000Y-81957115D01*
X102595830Y-81967797D01*
X102593358Y-81978420D01*
X102591613Y-81988944D01*
X102590628Y-81999331D01*
X102590433Y-82009541D01*
X102140240Y-82009541D01*
X102138529Y-82008059D01*
X102134499Y-82005101D01*
X102130042Y-82002310D01*
X102125137Y-81999672D01*
X102119764Y-81997173D01*
X102113904Y-81994800D01*
X102107534Y-81992540D01*
X102100637Y-81990378D01*
X102093190Y-81988300D01*
X102085174Y-81986294D01*
X102067353Y-81982438D01*
X102047011Y-81978701D01*
X102023987Y-81974974D01*
X101998119Y-81971144D01*
X101970015Y-81966717D01*
X101956697Y-81964170D01*
X101943690Y-81961253D01*
X101930860Y-81957857D01*
X101918073Y-81953869D01*
X101905196Y-81949181D01*
X101892095Y-81943681D01*
X101878637Y-81937260D01*
X101864687Y-81929806D01*
X101850112Y-81921210D01*
X101834779Y-81911360D01*
X101818553Y-81900147D01*
X101801301Y-81887460D01*
X101782890Y-81873188D01*
X101763185Y-81857221D01*
X101742053Y-81839449D01*
X101719360Y-81819761D01*
X101668757Y-81774196D01*
X101610308Y-81719643D01*
X101542941Y-81655217D01*
X101465589Y-81580035D01*
X101377181Y-81493214D01*
X101162922Y-81281120D01*
X100491106Y-80614495D01*
X91612641Y-80614495D01*
X91547117Y-80686863D01*
X91541896Y-80692844D01*
X91536939Y-80699007D01*
X91532235Y-80705422D01*
X91527776Y-80712162D01*
X91523552Y-80719299D01*
X91519555Y-80726904D01*
X91515774Y-80735050D01*
X91512200Y-80743807D01*
X91508825Y-80753249D01*
X91505638Y-80763447D01*
X91502630Y-80774472D01*
X91499793Y-80786398D01*
X91497116Y-80799294D01*
X91494591Y-80813235D01*
X91492207Y-80828290D01*
X91489957Y-80844533D01*
X91485817Y-80880868D01*
X91482096Y-80922813D01*
X91478720Y-80970946D01*
X91475613Y-81025839D01*
X91472702Y-81088069D01*
X91469912Y-81158209D01*
X91464395Y-81324525D01*
X91459185Y-81478822D01*
X91453647Y-81604823D01*
X91447460Y-81705310D01*
X91440305Y-81783063D01*
X91431862Y-81840862D01*
X91427058Y-81863148D01*
X91421811Y-81881489D01*
X91416082Y-81896232D01*
X91409832Y-81907724D01*
X91403019Y-81916314D01*
X91395604Y-81922349D01*
X91387708Y-81927089D01*
X91379679Y-81931439D01*
X91371524Y-81935400D01*
X91363248Y-81938972D01*
X91354857Y-81942157D01*
X91346359Y-81944955D01*
X91337759Y-81947368D01*
X91329063Y-81949395D01*
X91320278Y-81951038D01*
X91311410Y-81952298D01*
X91302465Y-81953175D01*
X91293449Y-81953670D01*
X91275230Y-81953518D01*
X91256803Y-81951848D01*
X91238218Y-81948667D01*
X91219525Y-81943982D01*
X91200773Y-81937799D01*
X91182013Y-81930125D01*
X91163293Y-81920966D01*
X91144664Y-81910328D01*
X91126176Y-81898219D01*
X91107878Y-81884644D01*
X91017249Y-81813356D01*
X91017249Y-80659212D01*
X91114458Y-80525066D01*
X91125004Y-80510910D01*
X91136517Y-80496189D01*
X91148884Y-80481018D01*
X91161991Y-80465516D01*
X91189974Y-80433988D01*
X91219556Y-80402541D01*
X91249831Y-80372114D01*
X91279891Y-80343644D01*
X91294557Y-80330437D01*
X91308829Y-80318071D01*
X91322593Y-80306664D01*
X91335736Y-80296332D01*
X91459806Y-80201744D01*
X100690184Y-80201744D01*
X101372999Y-80872462D01*
G37*
G36*
X79830305Y-70777426D02*
G01*
X79863641Y-70779513D01*
X79897108Y-70783272D01*
X79930659Y-70788721D01*
X79964246Y-70795877D01*
X79997821Y-70804759D01*
X80031336Y-70815385D01*
X80064744Y-70827772D01*
X80097997Y-70841939D01*
X80123019Y-70853886D01*
X80147282Y-70866644D01*
X80170779Y-70880200D01*
X80193503Y-70894538D01*
X80215444Y-70909646D01*
X80236597Y-70925508D01*
X80256953Y-70942110D01*
X80276504Y-70959439D01*
X80295244Y-70977480D01*
X80313163Y-70996220D01*
X80330255Y-71015643D01*
X80346513Y-71035736D01*
X80361927Y-71056484D01*
X80376491Y-71077874D01*
X80390198Y-71099892D01*
X80403038Y-71122523D01*
X80415005Y-71145752D01*
X80426092Y-71169567D01*
X80436290Y-71193953D01*
X80445591Y-71218895D01*
X80453989Y-71244380D01*
X80461475Y-71270393D01*
X80468042Y-71296920D01*
X80473682Y-71323948D01*
X80478388Y-71351461D01*
X80482151Y-71379446D01*
X80484965Y-71407889D01*
X80486821Y-71436776D01*
X80487712Y-71466091D01*
X80487631Y-71495822D01*
X80486569Y-71525954D01*
X80484519Y-71556473D01*
X80480589Y-71595240D01*
X80475333Y-71631830D01*
X80468623Y-71666452D01*
X80460330Y-71699316D01*
X80450323Y-71730632D01*
X80438474Y-71760608D01*
X80424653Y-71789453D01*
X80408731Y-71817378D01*
X80390578Y-71844591D01*
X80370066Y-71871301D01*
X80347065Y-71897719D01*
X80321445Y-71924052D01*
X80293077Y-71950511D01*
X80261833Y-71977305D01*
X80227582Y-72004643D01*
X80190195Y-72032734D01*
X80049184Y-72135922D01*
X80047082Y-73495551D01*
X80044980Y-74855180D01*
X80272411Y-75077759D01*
X80320124Y-75125209D01*
X80368555Y-75174768D01*
X80416364Y-75224973D01*
X80462211Y-75274361D01*
X80504756Y-75321470D01*
X80542657Y-75364835D01*
X80574576Y-75402994D01*
X80599171Y-75434484D01*
X80698501Y-75568629D01*
X80698501Y-78700856D01*
X79649429Y-79753489D01*
X78600356Y-80806120D01*
X78600356Y-82029909D01*
X78598932Y-82723276D01*
X78596016Y-82943829D01*
X78590619Y-83098929D01*
X78581984Y-83202552D01*
X78576215Y-83239428D01*
X78569352Y-83268675D01*
X78561301Y-83292042D01*
X78551966Y-83311274D01*
X78529068Y-83344325D01*
X78521429Y-83353680D01*
X78513643Y-83362510D01*
X78505713Y-83370815D01*
X78497644Y-83378596D01*
X78489438Y-83385851D01*
X78481100Y-83392579D01*
X78472633Y-83398782D01*
X78464040Y-83404457D01*
X78455326Y-83409605D01*
X78446494Y-83414225D01*
X78437547Y-83418317D01*
X78428489Y-83421880D01*
X78419324Y-83424913D01*
X78410056Y-83427418D01*
X78400688Y-83429392D01*
X78391223Y-83430835D01*
X78381666Y-83431748D01*
X78372020Y-83432129D01*
X78362288Y-83431978D01*
X78352475Y-83431295D01*
X78342583Y-83430079D01*
X78332617Y-83428330D01*
X78322580Y-83426047D01*
X78312475Y-83423230D01*
X78302308Y-83419878D01*
X78292080Y-83415992D01*
X78281795Y-83411570D01*
X78271458Y-83406612D01*
X78261072Y-83401117D01*
X78250640Y-83395086D01*
X78240167Y-83388517D01*
X78229655Y-83381411D01*
X78229655Y-83381409D01*
X78153210Y-83327865D01*
X78153210Y-80638331D01*
X79202283Y-79578717D01*
X80251356Y-78519104D01*
X80251356Y-75719579D01*
X79924595Y-75382836D01*
X79597835Y-75046093D01*
X79597835Y-72157394D01*
X79441618Y-72045208D01*
X79413176Y-72024064D01*
X79386034Y-72002423D01*
X79360196Y-71980297D01*
X79335664Y-71957699D01*
X79312443Y-71934641D01*
X79290535Y-71911134D01*
X79269946Y-71887190D01*
X79250677Y-71862823D01*
X79232732Y-71838043D01*
X79216115Y-71812864D01*
X79200830Y-71787297D01*
X79186879Y-71761354D01*
X79174267Y-71735048D01*
X79162996Y-71708390D01*
X79153071Y-71681392D01*
X79144495Y-71654068D01*
X79137270Y-71626428D01*
X79131402Y-71598486D01*
X79126893Y-71570253D01*
X79123746Y-71541740D01*
X79121965Y-71512962D01*
X79121555Y-71483928D01*
X79122374Y-71459001D01*
X79563439Y-71459001D01*
X79563821Y-71468836D01*
X79564945Y-71478868D01*
X79566781Y-71489066D01*
X79569299Y-71499394D01*
X79572466Y-71509820D01*
X79576253Y-71520310D01*
X79580629Y-71530832D01*
X79585562Y-71541350D01*
X79596979Y-71562245D01*
X79610255Y-71582728D01*
X79625146Y-71602530D01*
X79641404Y-71621385D01*
X79658782Y-71639024D01*
X79677034Y-71655180D01*
X79695913Y-71669585D01*
X79715172Y-71681971D01*
X79724866Y-71687323D01*
X79734564Y-71692071D01*
X79744232Y-71696180D01*
X79753842Y-71699616D01*
X79763362Y-71702348D01*
X79772760Y-71704340D01*
X79782007Y-71705560D01*
X79791072Y-71705974D01*
X79800174Y-71705536D01*
X79809881Y-71704251D01*
X79820105Y-71702162D01*
X79830759Y-71699312D01*
X79841757Y-71695745D01*
X79853012Y-71691504D01*
X79864436Y-71686633D01*
X79875943Y-71681174D01*
X79887446Y-71675171D01*
X79898858Y-71668666D01*
X79910092Y-71661705D01*
X79921062Y-71654329D01*
X79931680Y-71646582D01*
X79941859Y-71638507D01*
X79951513Y-71630148D01*
X79960554Y-71621548D01*
X79960555Y-71621548D01*
X79969155Y-71612574D01*
X79977514Y-71603120D01*
X79985589Y-71593266D01*
X79993336Y-71583092D01*
X80000712Y-71572677D01*
X80007673Y-71562103D01*
X80014177Y-71551449D01*
X80020181Y-71540796D01*
X80025640Y-71530223D01*
X80030511Y-71519811D01*
X80034752Y-71509640D01*
X80038319Y-71499789D01*
X80041168Y-71490341D01*
X80043257Y-71481373D01*
X80044542Y-71472967D01*
X80044980Y-71465203D01*
X80044542Y-71457439D01*
X80043257Y-71449033D01*
X80041168Y-71440066D01*
X80038319Y-71430617D01*
X80034752Y-71420767D01*
X80030511Y-71410596D01*
X80025639Y-71400183D01*
X80020180Y-71389611D01*
X80014177Y-71378957D01*
X80007673Y-71368303D01*
X80000712Y-71357729D01*
X79993336Y-71347314D01*
X79985589Y-71337140D01*
X79977514Y-71327286D01*
X79969155Y-71317832D01*
X79960555Y-71308858D01*
X79951581Y-71300258D01*
X79942127Y-71291899D01*
X79932273Y-71283824D01*
X79922099Y-71276077D01*
X79911684Y-71268701D01*
X79901110Y-71261740D01*
X79890456Y-71255236D01*
X79879803Y-71249232D01*
X79869230Y-71243773D01*
X79858818Y-71238902D01*
X79848646Y-71234661D01*
X79838796Y-71231094D01*
X79829347Y-71228245D01*
X79820380Y-71226156D01*
X79811974Y-71224870D01*
X79804210Y-71224432D01*
X79795603Y-71224857D01*
X79786678Y-71226104D01*
X79777474Y-71228136D01*
X79768031Y-71230916D01*
X79758386Y-71234406D01*
X79748578Y-71238568D01*
X79738647Y-71243364D01*
X79728630Y-71248757D01*
X79708496Y-71261181D01*
X79688487Y-71275538D01*
X79668913Y-71291527D01*
X79650083Y-71308844D01*
X79632307Y-71327189D01*
X79615896Y-71346260D01*
X79601159Y-71365753D01*
X79588406Y-71385368D01*
X79582871Y-71395127D01*
X79577948Y-71404802D01*
X79573676Y-71414357D01*
X79570094Y-71423754D01*
X79567240Y-71432954D01*
X79565154Y-71441921D01*
X79563874Y-71450616D01*
X79563439Y-71459001D01*
X79122374Y-71459001D01*
X79122517Y-71454653D01*
X79124856Y-71425147D01*
X79128575Y-71395422D01*
X79133678Y-71365492D01*
X79140167Y-71335368D01*
X79148048Y-71305062D01*
X79157322Y-71274586D01*
X79167994Y-71243953D01*
X79180067Y-71213174D01*
X79193544Y-71182262D01*
X79209430Y-71149606D01*
X79226591Y-71118191D01*
X79244979Y-71088035D01*
X79264548Y-71059156D01*
X79285249Y-71031573D01*
X79307035Y-71005302D01*
X79329857Y-70980363D01*
X79353669Y-70956773D01*
X79378423Y-70934549D01*
X79404070Y-70913711D01*
X79430564Y-70894275D01*
X79457857Y-70876260D01*
X79485900Y-70859683D01*
X79514647Y-70844564D01*
X79544049Y-70830918D01*
X79574059Y-70818766D01*
X79604630Y-70808123D01*
X79635713Y-70799010D01*
X79667260Y-70791442D01*
X79699226Y-70785439D01*
X79731560Y-70781017D01*
X79764217Y-70778196D01*
X79797148Y-70776993D01*
X79830305Y-70777426D01*
G37*
G36*
X99685482Y-82473525D02*
G01*
X99716176Y-82478368D01*
X99730893Y-82482000D01*
X99745206Y-82486440D01*
X99759130Y-82491686D01*
X99772676Y-82497739D01*
X99785859Y-82504600D01*
X99798691Y-82512267D01*
X99823352Y-82530023D01*
X99846766Y-82551007D01*
X99869035Y-82575219D01*
X99881441Y-82590680D01*
X99893151Y-82606782D01*
X99904171Y-82623576D01*
X99914502Y-82641113D01*
X99924148Y-82659445D01*
X99933112Y-82678622D01*
X99941398Y-82698696D01*
X99949009Y-82719717D01*
X99955948Y-82741737D01*
X99962219Y-82764806D01*
X99967825Y-82788976D01*
X99972768Y-82814299D01*
X99980683Y-82868604D01*
X99985990Y-82928129D01*
X99988716Y-82993284D01*
X99988885Y-83064478D01*
X99986526Y-83142118D01*
X99981664Y-83226614D01*
X99974326Y-83318374D01*
X99964537Y-83417807D01*
X99952325Y-83525322D01*
X99937715Y-83641328D01*
X99917402Y-83796110D01*
X100101117Y-83555339D01*
X100203412Y-83426250D01*
X100307631Y-83304385D01*
X100413327Y-83190033D01*
X100520049Y-83083483D01*
X100627346Y-82985023D01*
X100734771Y-82894941D01*
X100841871Y-82813528D01*
X100948199Y-82741070D01*
X101053304Y-82677858D01*
X101156735Y-82624178D01*
X101258044Y-82580321D01*
X101356781Y-82546574D01*
X101405044Y-82533582D01*
X101452495Y-82523226D01*
X101499079Y-82515542D01*
X101544738Y-82510567D01*
X101589416Y-82508335D01*
X101633058Y-82508883D01*
X101675607Y-82512248D01*
X101717007Y-82518465D01*
X101742588Y-82523892D01*
X101768087Y-82530543D01*
X101793473Y-82538386D01*
X101818712Y-82547389D01*
X101843775Y-82557521D01*
X101868630Y-82568751D01*
X101917588Y-82594374D01*
X101965334Y-82624008D01*
X102011617Y-82657397D01*
X102056185Y-82694291D01*
X102098785Y-82734435D01*
X102139166Y-82777577D01*
X102177076Y-82823464D01*
X102212263Y-82871843D01*
X102244474Y-82922461D01*
X102273458Y-82975066D01*
X102298963Y-83029403D01*
X102320737Y-83085221D01*
X102338527Y-83142267D01*
X102348272Y-83185249D01*
X102355496Y-83234305D01*
X102360115Y-83290253D01*
X102362043Y-83353909D01*
X102361197Y-83426090D01*
X102357491Y-83507613D01*
X102350842Y-83599295D01*
X102341165Y-83701953D01*
X102328376Y-83816403D01*
X102312389Y-83943463D01*
X102293120Y-84083948D01*
X102270486Y-84238677D01*
X102214780Y-84594129D01*
X102144595Y-85016355D01*
X102079878Y-85404264D01*
X102029776Y-85720770D01*
X101993579Y-85973075D01*
X101970580Y-86168382D01*
X101960071Y-86313895D01*
X101959278Y-86370229D01*
X101961342Y-86416816D01*
X101966175Y-86454556D01*
X101973687Y-86484350D01*
X101983790Y-86507096D01*
X101996397Y-86523697D01*
X102006639Y-86532677D01*
X102018099Y-86540397D01*
X102030726Y-86546876D01*
X102044466Y-86552134D01*
X102059268Y-86556189D01*
X102075079Y-86559060D01*
X102091846Y-86560767D01*
X102109517Y-86561328D01*
X102128041Y-86560762D01*
X102147363Y-86559088D01*
X102167433Y-86556326D01*
X102188197Y-86552493D01*
X102209604Y-86547610D01*
X102231600Y-86541694D01*
X102277154Y-86526843D01*
X102324438Y-86508092D01*
X102373035Y-86485591D01*
X102422524Y-86459494D01*
X102472488Y-86429951D01*
X102522506Y-86397114D01*
X102572161Y-86361135D01*
X102621032Y-86322166D01*
X102668701Y-86280358D01*
X102685027Y-86265992D01*
X102692726Y-86259721D01*
X102700112Y-86254056D01*
X102707181Y-86248995D01*
X102713932Y-86244538D01*
X102720360Y-86240682D01*
X102726464Y-86237425D01*
X102732240Y-86234767D01*
X102737686Y-86232705D01*
X102742798Y-86231238D01*
X102747574Y-86230365D01*
X102752011Y-86230084D01*
X102756106Y-86230392D01*
X102759856Y-86231290D01*
X102763259Y-86232775D01*
X102766311Y-86234845D01*
X102769010Y-86237499D01*
X102771352Y-86240736D01*
X102773336Y-86244553D01*
X102774957Y-86248950D01*
X102776214Y-86253924D01*
X102777102Y-86259474D01*
X102777621Y-86265599D01*
X102777765Y-86272297D01*
X102777534Y-86279566D01*
X102776923Y-86287405D01*
X102775931Y-86295812D01*
X102774553Y-86304786D01*
X102772788Y-86314324D01*
X102770633Y-86324427D01*
X102768083Y-86335091D01*
X102760011Y-86362073D01*
X102748887Y-86391147D01*
X102718083Y-86454928D01*
X102676865Y-86525150D01*
X102626429Y-86600531D01*
X102567971Y-86679788D01*
X102502687Y-86761640D01*
X102431771Y-86844804D01*
X102356418Y-86927997D01*
X102277826Y-87009938D01*
X102197188Y-87089343D01*
X102115701Y-87164931D01*
X102034559Y-87235420D01*
X101954959Y-87299526D01*
X101878096Y-87355968D01*
X101805164Y-87403463D01*
X101737361Y-87440729D01*
X101707708Y-87455013D01*
X101680134Y-87467775D01*
X101654345Y-87479075D01*
X101630044Y-87488973D01*
X101606936Y-87497530D01*
X101584725Y-87504806D01*
X101563118Y-87510862D01*
X101541817Y-87515757D01*
X101520529Y-87519552D01*
X101498956Y-87522307D01*
X101476805Y-87524082D01*
X101453780Y-87524938D01*
X101429585Y-87524935D01*
X101403925Y-87524134D01*
X101376505Y-87522593D01*
X101347029Y-87520375D01*
X101317695Y-87517745D01*
X101290891Y-87514882D01*
X101266396Y-87511690D01*
X101243989Y-87508077D01*
X101223448Y-87503948D01*
X101204551Y-87499208D01*
X101187075Y-87493765D01*
X101170799Y-87487524D01*
X101155502Y-87480391D01*
X101140961Y-87472273D01*
X101126955Y-87463074D01*
X101113262Y-87452702D01*
X101099659Y-87441062D01*
X101085925Y-87428061D01*
X101071839Y-87413604D01*
X101057178Y-87397597D01*
X101036585Y-87373658D01*
X101017357Y-87349308D01*
X100999497Y-87324320D01*
X100983009Y-87298465D01*
X100967898Y-87271518D01*
X100954167Y-87243250D01*
X100941821Y-87213435D01*
X100930863Y-87181846D01*
X100921299Y-87148255D01*
X100913131Y-87112436D01*
X100906364Y-87074161D01*
X100901003Y-87033203D01*
X100897051Y-86989335D01*
X100894513Y-86942329D01*
X100893392Y-86891959D01*
X100893693Y-86837998D01*
X100895420Y-86780218D01*
X100898577Y-86718392D01*
X100903168Y-86652294D01*
X100909197Y-86581695D01*
X100925586Y-86426088D01*
X100947778Y-86249755D01*
X100975805Y-86050879D01*
X101009700Y-85827643D01*
X101049497Y-85578228D01*
X101095228Y-85300819D01*
X101164757Y-84875682D01*
X101218923Y-84523786D01*
X101258440Y-84237474D01*
X101284023Y-84009092D01*
X101296387Y-83830982D01*
X101296246Y-83695490D01*
X101291710Y-83641334D01*
X101284316Y-83594960D01*
X101274153Y-83555413D01*
X101261310Y-83521736D01*
X101251339Y-83502047D01*
X101240227Y-83484196D01*
X101228001Y-83468172D01*
X101214692Y-83453968D01*
X101200328Y-83441574D01*
X101184937Y-83430980D01*
X101168549Y-83422178D01*
X101151193Y-83415158D01*
X101132896Y-83409911D01*
X101113688Y-83406429D01*
X101093597Y-83404701D01*
X101072653Y-83404720D01*
X101050885Y-83406475D01*
X101028320Y-83409957D01*
X101004988Y-83415158D01*
X100980918Y-83422068D01*
X100956137Y-83430678D01*
X100930677Y-83440980D01*
X100904564Y-83452963D01*
X100877827Y-83466618D01*
X100850496Y-83481937D01*
X100822600Y-83498911D01*
X100794167Y-83517530D01*
X100765225Y-83537784D01*
X100735804Y-83559666D01*
X100705933Y-83583165D01*
X100675640Y-83608273D01*
X100644953Y-83634981D01*
X100613903Y-83663279D01*
X100582517Y-83693158D01*
X100550825Y-83724609D01*
X100518855Y-83757623D01*
X100448073Y-83833770D01*
X100381183Y-83909132D01*
X100318070Y-83983902D01*
X100258620Y-84058273D01*
X100202719Y-84132437D01*
X100150253Y-84206586D01*
X100101109Y-84280914D01*
X100055172Y-84355612D01*
X100012327Y-84430875D01*
X99972462Y-84506893D01*
X99935461Y-84583861D01*
X99901212Y-84661970D01*
X99869599Y-84741413D01*
X99840509Y-84822383D01*
X99813828Y-84905072D01*
X99789442Y-84989673D01*
X99761460Y-85110227D01*
X99723462Y-85298659D01*
X99630074Y-85807241D01*
X99534596Y-86371586D01*
X99493986Y-86629723D01*
X99462347Y-86847864D01*
X99459511Y-86866501D01*
X99456112Y-86884612D01*
X99452107Y-86902237D01*
X99447455Y-86919413D01*
X99442112Y-86936181D01*
X99436036Y-86952577D01*
X99429185Y-86968640D01*
X99421517Y-86984410D01*
X99412988Y-86999925D01*
X99403556Y-87015222D01*
X99393180Y-87030341D01*
X99381816Y-87045321D01*
X99369422Y-87060199D01*
X99355956Y-87075015D01*
X99341375Y-87089806D01*
X99325637Y-87104612D01*
X99308699Y-87119470D01*
X99290519Y-87134420D01*
X99271054Y-87149500D01*
X99250262Y-87164749D01*
X99204527Y-87195905D01*
X99152975Y-87228198D01*
X99095266Y-87261936D01*
X99031059Y-87297427D01*
X98960017Y-87334979D01*
X98881798Y-87374900D01*
X98823238Y-87403866D01*
X98769003Y-87429643D01*
X98718957Y-87452258D01*
X98672966Y-87471737D01*
X98630893Y-87488106D01*
X98592605Y-87501391D01*
X98557965Y-87511618D01*
X98526838Y-87518814D01*
X98499089Y-87523004D01*
X98474583Y-87524216D01*
X98453184Y-87522474D01*
X98434757Y-87517805D01*
X98426616Y-87514381D01*
X98419167Y-87510236D01*
X98412393Y-87505371D01*
X98406278Y-87499792D01*
X98400805Y-87493500D01*
X98395955Y-87486499D01*
X98388064Y-87470385D01*
X98385665Y-87463126D01*
X98383661Y-87454660D01*
X98382085Y-87444750D01*
X98380972Y-87433160D01*
X98380268Y-87403991D01*
X98381820Y-87365256D01*
X98385899Y-87315060D01*
X98392777Y-87251506D01*
X98402725Y-87172701D01*
X98416014Y-87076747D01*
X98432916Y-86961750D01*
X98453702Y-86825813D01*
X98508010Y-86483538D01*
X98581109Y-86034758D01*
X98675170Y-85464307D01*
X98828847Y-84503213D01*
X98876963Y-84165511D01*
X98907422Y-83908040D01*
X98921345Y-83719549D01*
X98922456Y-83647656D01*
X98919852Y-83588789D01*
X98913674Y-83541542D01*
X98904061Y-83504509D01*
X98891155Y-83476283D01*
X98875093Y-83455459D01*
X98863798Y-83444607D01*
X98858286Y-83439725D01*
X98852798Y-83435204D01*
X98847284Y-83431046D01*
X98841695Y-83427250D01*
X98835981Y-83423817D01*
X98830091Y-83420746D01*
X98823977Y-83418037D01*
X98817589Y-83415691D01*
X98810876Y-83413708D01*
X98803790Y-83412087D01*
X98796280Y-83410829D01*
X98788296Y-83409933D01*
X98779790Y-83409401D01*
X98770710Y-83409232D01*
X98761008Y-83409425D01*
X98750633Y-83409981D01*
X98739537Y-83410901D01*
X98727669Y-83412184D01*
X98714979Y-83413830D01*
X98701417Y-83415839D01*
X98686935Y-83418212D01*
X98671482Y-83420948D01*
X98637465Y-83427510D01*
X98598968Y-83435527D01*
X98555592Y-83444999D01*
X98506941Y-83455927D01*
X98478295Y-83460802D01*
X98455239Y-83461295D01*
X98437563Y-83457635D01*
X98430676Y-83454319D01*
X98425056Y-83450051D01*
X98420674Y-83444859D01*
X98417506Y-83438772D01*
X98414704Y-83424028D01*
X98416438Y-83406047D01*
X98422497Y-83385060D01*
X98432670Y-83361294D01*
X98446748Y-83334980D01*
X98464517Y-83306347D01*
X98485769Y-83275623D01*
X98537874Y-83208822D01*
X98601375Y-83136411D01*
X98674586Y-83060223D01*
X98755819Y-82982093D01*
X98843388Y-82903854D01*
X98935604Y-82827339D01*
X99030783Y-82754384D01*
X99127235Y-82686820D01*
X99175412Y-82655634D01*
X99223274Y-82626483D01*
X99270612Y-82599597D01*
X99317214Y-82575205D01*
X99367559Y-82550995D01*
X99415305Y-82530012D01*
X99460556Y-82512258D01*
X99503416Y-82497732D01*
X99543988Y-82486434D01*
X99582377Y-82478365D01*
X99618686Y-82473523D01*
X99653020Y-82471910D01*
X99685482Y-82473525D01*
G37*
G36*
X88908748Y-82418077D02*
G01*
X88921957Y-82419425D01*
X88934748Y-82421479D01*
X88947134Y-82424244D01*
X88959126Y-82427723D01*
X88970737Y-82431923D01*
X88981979Y-82436848D01*
X88992863Y-82442502D01*
X89003401Y-82448891D01*
X89013606Y-82456018D01*
X89023489Y-82463890D01*
X89033061Y-82472510D01*
X89042336Y-82481884D01*
X89051325Y-82492015D01*
X89060039Y-82502910D01*
X89068491Y-82514572D01*
X89076693Y-82527007D01*
X89084657Y-82540219D01*
X89099916Y-82568993D01*
X89114364Y-82600933D01*
X89122099Y-82620584D01*
X89129010Y-82640913D01*
X89135119Y-82662281D01*
X89140447Y-82685050D01*
X89145019Y-82709580D01*
X89148857Y-82736231D01*
X89151982Y-82765363D01*
X89154419Y-82797339D01*
X89156188Y-82832518D01*
X89157314Y-82871261D01*
X89157818Y-82913928D01*
X89157724Y-82960881D01*
X89157053Y-83012480D01*
X89155828Y-83069085D01*
X89151808Y-83198757D01*
X89135151Y-83667675D01*
X89296539Y-83473924D01*
X89430424Y-83320077D01*
X89566154Y-83177421D01*
X89702979Y-83046312D01*
X89840146Y-82927105D01*
X89976906Y-82820156D01*
X90112505Y-82725821D01*
X90246193Y-82644456D01*
X90377218Y-82576415D01*
X90504830Y-82522054D01*
X90628277Y-82481730D01*
X90688203Y-82466942D01*
X90746806Y-82455797D01*
X90803993Y-82448338D01*
X90859668Y-82444611D01*
X90913739Y-82444659D01*
X90966111Y-82448528D01*
X91016690Y-82456261D01*
X91065382Y-82467903D01*
X91112095Y-82483498D01*
X91156732Y-82503092D01*
X91199201Y-82526728D01*
X91239409Y-82554450D01*
X91278125Y-82584840D01*
X91295851Y-82599560D01*
X91312529Y-82614106D01*
X91328192Y-82628587D01*
X91342871Y-82643111D01*
X91356597Y-82657786D01*
X91369402Y-82672719D01*
X91381316Y-82688019D01*
X91392371Y-82703792D01*
X91402598Y-82720148D01*
X91412029Y-82737193D01*
X91420694Y-82755036D01*
X91428626Y-82773785D01*
X91435856Y-82793548D01*
X91442414Y-82814431D01*
X91448332Y-82836544D01*
X91453641Y-82859994D01*
X91458373Y-82884889D01*
X91462559Y-82911337D01*
X91466231Y-82939446D01*
X91469419Y-82969323D01*
X91472154Y-83001077D01*
X91474469Y-83034814D01*
X91477962Y-83108674D01*
X91480146Y-83191766D01*
X91481273Y-83284952D01*
X91481593Y-83389096D01*
X91483165Y-83755844D01*
X91484866Y-83866098D01*
X91485868Y-83895539D01*
X91486942Y-83905033D01*
X91500993Y-83886523D01*
X91535296Y-83840362D01*
X91644038Y-83692924D01*
X91712193Y-83602477D01*
X91781374Y-83515126D01*
X91851576Y-83430872D01*
X91922797Y-83349720D01*
X91995033Y-83271672D01*
X92068281Y-83196732D01*
X92142537Y-83124901D01*
X92217799Y-83056184D01*
X92294061Y-82990583D01*
X92371322Y-82928101D01*
X92449578Y-82868741D01*
X92528826Y-82812507D01*
X92609061Y-82759401D01*
X92690281Y-82709426D01*
X92772483Y-82662585D01*
X92855663Y-82618881D01*
X92961402Y-82569815D01*
X93012720Y-82549168D01*
X93062970Y-82531100D01*
X93112128Y-82515601D01*
X93160170Y-82502661D01*
X93207070Y-82492272D01*
X93252805Y-82484423D01*
X93297350Y-82479106D01*
X93340679Y-82476310D01*
X93382770Y-82476028D01*
X93423597Y-82478248D01*
X93463135Y-82482962D01*
X93501361Y-82490160D01*
X93538249Y-82499833D01*
X93573775Y-82511971D01*
X93607915Y-82526565D01*
X93640644Y-82543606D01*
X93671937Y-82563085D01*
X93701770Y-82584991D01*
X93730119Y-82609315D01*
X93756958Y-82636048D01*
X93782264Y-82665181D01*
X93806011Y-82696704D01*
X93828175Y-82730608D01*
X93848733Y-82766882D01*
X93867658Y-82805519D01*
X93884927Y-82846508D01*
X93900515Y-82889841D01*
X93914398Y-82935507D01*
X93926550Y-82983497D01*
X93936948Y-83033802D01*
X93943919Y-83077525D01*
X93948879Y-83124109D01*
X93951639Y-83175080D01*
X93952010Y-83231964D01*
X93949801Y-83296286D01*
X93944823Y-83369572D01*
X93936886Y-83453349D01*
X93925800Y-83549143D01*
X93911375Y-83658478D01*
X93893422Y-83782881D01*
X93871751Y-83923878D01*
X93846173Y-84082994D01*
X93782533Y-84461689D01*
X93700986Y-84931174D01*
X93631308Y-85335818D01*
X93577079Y-85668842D01*
X93537643Y-85936723D01*
X93512344Y-86145937D01*
X93500526Y-86302959D01*
X93499466Y-86363922D01*
X93501531Y-86414265D01*
X93506638Y-86454799D01*
X93514705Y-86486333D01*
X93525650Y-86509676D01*
X93539391Y-86525637D01*
X93547369Y-86531735D01*
X93555765Y-86537138D01*
X93564568Y-86541852D01*
X93573767Y-86545879D01*
X93583353Y-86549222D01*
X93593314Y-86551886D01*
X93603639Y-86553873D01*
X93614318Y-86555187D01*
X93625340Y-86555832D01*
X93636695Y-86555810D01*
X93648372Y-86555126D01*
X93660360Y-86553782D01*
X93672648Y-86551783D01*
X93685227Y-86549131D01*
X93698085Y-86545830D01*
X93711212Y-86541883D01*
X93724596Y-86537295D01*
X93738228Y-86532067D01*
X93752097Y-86526204D01*
X93766192Y-86519710D01*
X93795017Y-86504839D01*
X93824619Y-86487482D01*
X93854913Y-86467666D01*
X93885812Y-86445418D01*
X93917232Y-86420767D01*
X93949088Y-86393739D01*
X94099494Y-86261349D01*
X94139204Y-85881545D01*
X94155904Y-85737901D01*
X94167435Y-85655840D01*
X95110495Y-85655840D01*
X95111789Y-85748379D01*
X95115793Y-85835090D01*
X95122550Y-85916074D01*
X95132105Y-85991431D01*
X95144503Y-86061261D01*
X95159788Y-86125666D01*
X95178005Y-86184747D01*
X95199197Y-86238603D01*
X95223411Y-86287336D01*
X95250689Y-86331046D01*
X95281077Y-86369834D01*
X95314619Y-86403801D01*
X95351359Y-86433046D01*
X95391342Y-86457672D01*
X95434613Y-86477778D01*
X95481216Y-86493465D01*
X95481872Y-86493538D01*
X95482833Y-86493478D01*
X95485640Y-86492976D01*
X95489570Y-86491982D01*
X95494554Y-86490520D01*
X95507419Y-86486295D01*
X95523698Y-86480496D01*
X95542854Y-86473320D01*
X95564350Y-86464965D01*
X95587648Y-86455627D01*
X95612212Y-86445502D01*
X95612210Y-86445504D01*
X95643260Y-86431991D01*
X95672982Y-86417893D01*
X95701588Y-86403030D01*
X95729293Y-86387220D01*
X95756310Y-86370282D01*
X95782852Y-86352034D01*
X95809133Y-86332296D01*
X95835367Y-86310886D01*
X95861767Y-86287622D01*
X95888547Y-86262324D01*
X95915921Y-86234809D01*
X95944102Y-86204898D01*
X95973303Y-86172408D01*
X96003739Y-86137158D01*
X96035623Y-86098968D01*
X96069168Y-86057654D01*
X96125720Y-85984498D01*
X96179852Y-85908944D01*
X96231667Y-85830747D01*
X96281269Y-85749661D01*
X96328760Y-85665443D01*
X96374245Y-85577846D01*
X96417826Y-85486626D01*
X96459606Y-85391538D01*
X96499689Y-85292337D01*
X96538178Y-85188777D01*
X96575177Y-85080614D01*
X96610788Y-84967603D01*
X96645114Y-84849498D01*
X96678260Y-84726055D01*
X96710328Y-84597028D01*
X96741422Y-84462173D01*
X96783484Y-84266401D01*
X96815714Y-84100318D01*
X96838405Y-83960404D01*
X96846264Y-83899162D01*
X96851849Y-83843141D01*
X96855196Y-83791903D01*
X96856342Y-83745008D01*
X96855322Y-83702016D01*
X96852174Y-83662486D01*
X96846934Y-83625978D01*
X96839640Y-83592054D01*
X96830327Y-83560272D01*
X96819032Y-83530192D01*
X96802716Y-83495420D01*
X96783965Y-83463162D01*
X96762905Y-83433409D01*
X96739664Y-83406151D01*
X96714368Y-83381378D01*
X96687145Y-83359080D01*
X96658123Y-83339248D01*
X96627427Y-83321871D01*
X96595185Y-83306939D01*
X96561525Y-83294443D01*
X96526573Y-83284372D01*
X96490456Y-83276718D01*
X96453302Y-83271469D01*
X96415238Y-83268617D01*
X96376391Y-83268150D01*
X96336887Y-83270060D01*
X96296855Y-83274336D01*
X96256420Y-83280969D01*
X96215711Y-83289949D01*
X96174854Y-83301265D01*
X96133976Y-83314908D01*
X96093205Y-83330868D01*
X96052668Y-83349135D01*
X96012492Y-83369699D01*
X95972803Y-83392550D01*
X95933729Y-83417679D01*
X95895397Y-83445076D01*
X95857935Y-83474730D01*
X95821469Y-83506632D01*
X95786126Y-83540771D01*
X95752033Y-83577139D01*
X95719318Y-83615725D01*
X95651892Y-83705296D01*
X95587606Y-83802526D01*
X95526627Y-83906859D01*
X95469121Y-84017735D01*
X95415254Y-84134600D01*
X95365193Y-84256893D01*
X95319104Y-84384060D01*
X95277153Y-84515541D01*
X95239507Y-84650780D01*
X95206333Y-84789219D01*
X95177796Y-84930300D01*
X95154063Y-85073467D01*
X95135299Y-85218162D01*
X95121673Y-85363827D01*
X95113349Y-85509906D01*
X95110495Y-85655840D01*
X94167435Y-85655840D01*
X94175638Y-85597471D01*
X94198430Y-85460182D01*
X94224305Y-85325965D01*
X94253284Y-85194747D01*
X94285393Y-85066458D01*
X94320653Y-84941026D01*
X94359090Y-84818380D01*
X94400726Y-84698449D01*
X94445585Y-84581162D01*
X94493690Y-84466447D01*
X94545066Y-84354234D01*
X94599734Y-84244451D01*
X94657720Y-84137027D01*
X94719046Y-84031891D01*
X94783735Y-83928972D01*
X94866917Y-83806933D01*
X94955203Y-83688031D01*
X95048224Y-83572565D01*
X95145611Y-83460834D01*
X95246996Y-83353137D01*
X95352010Y-83249774D01*
X95460284Y-83151043D01*
X95571449Y-83057243D01*
X95685137Y-82968675D01*
X95800977Y-82885637D01*
X95918602Y-82808427D01*
X96037643Y-82737347D01*
X96157730Y-82672693D01*
X96278496Y-82614767D01*
X96399570Y-82563866D01*
X96520585Y-82520290D01*
X96574478Y-82504068D01*
X96630310Y-82490171D01*
X96687661Y-82478592D01*
X96746112Y-82469324D01*
X96805242Y-82462358D01*
X96864632Y-82457689D01*
X96923862Y-82455307D01*
X96982513Y-82455206D01*
X97040164Y-82457378D01*
X97096396Y-82461816D01*
X97150790Y-82468512D01*
X97202924Y-82477459D01*
X97252380Y-82488649D01*
X97298738Y-82502074D01*
X97341578Y-82517729D01*
X97380480Y-82535604D01*
X97434900Y-82565340D01*
X97486693Y-82597016D01*
X97535813Y-82630574D01*
X97582215Y-82665956D01*
X97625852Y-82703101D01*
X97666679Y-82741953D01*
X97704650Y-82782451D01*
X97739718Y-82824538D01*
X97771838Y-82868155D01*
X97800963Y-82913243D01*
X97827048Y-82959743D01*
X97850047Y-83007598D01*
X97869914Y-83056747D01*
X97886602Y-83107134D01*
X97900066Y-83158698D01*
X97910260Y-83211381D01*
X97912303Y-83233370D01*
X97912550Y-83262993D01*
X97910962Y-83300504D01*
X97907504Y-83346159D01*
X97894830Y-83462912D01*
X97874233Y-83615284D01*
X97845421Y-83805308D01*
X97808100Y-84035016D01*
X97761976Y-84306439D01*
X97706758Y-84621610D01*
X97552089Y-85523320D01*
X97503322Y-85841268D01*
X97471984Y-86085420D01*
X97456861Y-86266882D01*
X97455002Y-86337575D01*
X97456742Y-86396760D01*
X97461930Y-86445825D01*
X97470414Y-86486160D01*
X97482042Y-86519151D01*
X97496664Y-86546188D01*
X97505395Y-86558656D01*
X97514575Y-86570088D01*
X97524214Y-86580484D01*
X97534319Y-86589840D01*
X97544899Y-86598156D01*
X97555961Y-86605430D01*
X97567513Y-86611659D01*
X97579563Y-86616842D01*
X97592120Y-86620977D01*
X97605190Y-86624062D01*
X97618783Y-86626096D01*
X97632906Y-86627077D01*
X97647566Y-86627002D01*
X97662773Y-86625870D01*
X97678534Y-86623679D01*
X97694857Y-86620428D01*
X97711749Y-86616115D01*
X97729220Y-86610737D01*
X97747276Y-86604292D01*
X97765927Y-86596780D01*
X97785179Y-86588199D01*
X97805041Y-86578545D01*
X97825520Y-86567819D01*
X97846626Y-86556017D01*
X97868365Y-86543138D01*
X97890746Y-86529181D01*
X97913776Y-86514142D01*
X97937464Y-86498022D01*
X97986845Y-86462526D01*
X98038952Y-86422678D01*
X98081086Y-86390874D01*
X98118037Y-86365629D01*
X98149963Y-86346658D01*
X98177020Y-86333677D01*
X98199363Y-86326398D01*
X98217149Y-86324537D01*
X98230534Y-86327807D01*
X98239673Y-86335924D01*
X98244724Y-86348601D01*
X98245842Y-86365553D01*
X98243182Y-86386494D01*
X98236902Y-86411139D01*
X98227158Y-86439202D01*
X98214104Y-86470397D01*
X98178696Y-86541041D01*
X98131927Y-86620787D01*
X98075045Y-86707349D01*
X98009298Y-86798441D01*
X97935937Y-86891780D01*
X97856208Y-86985080D01*
X97771362Y-87076055D01*
X97727410Y-87119956D01*
X97682646Y-87162420D01*
X97637227Y-87203160D01*
X97591310Y-87241891D01*
X97546186Y-87277807D01*
X97501955Y-87311161D01*
X97458539Y-87341988D01*
X97415862Y-87370322D01*
X97373846Y-87396195D01*
X97332413Y-87419641D01*
X97291485Y-87440695D01*
X97250986Y-87459390D01*
X97210838Y-87475759D01*
X97170964Y-87489837D01*
X97131285Y-87501656D01*
X97091726Y-87511251D01*
X97052207Y-87518655D01*
X97012652Y-87523902D01*
X96972983Y-87527026D01*
X96933123Y-87528059D01*
X96899762Y-87527224D01*
X96867699Y-87524706D01*
X96836923Y-87520483D01*
X96807425Y-87514538D01*
X96779194Y-87506848D01*
X96752222Y-87497394D01*
X96726498Y-87486156D01*
X96702012Y-87473114D01*
X96678754Y-87458247D01*
X96656714Y-87441537D01*
X96635883Y-87422961D01*
X96616251Y-87402501D01*
X96597807Y-87380136D01*
X96580542Y-87355846D01*
X96564445Y-87329611D01*
X96549508Y-87301411D01*
X96535720Y-87271226D01*
X96523071Y-87239035D01*
X96511551Y-87204819D01*
X96501151Y-87168557D01*
X96491860Y-87130230D01*
X96483669Y-87089817D01*
X96476567Y-87047297D01*
X96470545Y-87002652D01*
X96465593Y-86955860D01*
X96461702Y-86906902D01*
X96458860Y-86855758D01*
X96457058Y-86802407D01*
X96456287Y-86746830D01*
X96456536Y-86689005D01*
X96460056Y-86566536D01*
X96464120Y-86463294D01*
X96466405Y-86379944D01*
X96466840Y-86315366D01*
X96465353Y-86268444D01*
X96463867Y-86251254D01*
X96461872Y-86238058D01*
X96459362Y-86228718D01*
X96456325Y-86223092D01*
X96454607Y-86221629D01*
X96452755Y-86221042D01*
X96448640Y-86222427D01*
X96443974Y-86227108D01*
X96438746Y-86234944D01*
X96386075Y-86319995D01*
X96326991Y-86407350D01*
X96262275Y-86496214D01*
X96192707Y-86585797D01*
X96119068Y-86675304D01*
X96042140Y-86763943D01*
X95962702Y-86850922D01*
X95881536Y-86935446D01*
X95799422Y-87016723D01*
X95717142Y-87093961D01*
X95635477Y-87166366D01*
X95555206Y-87233146D01*
X95477112Y-87293507D01*
X95401974Y-87346657D01*
X95330573Y-87391803D01*
X95263692Y-87428151D01*
X95197254Y-87460021D01*
X95167970Y-87473223D01*
X95140769Y-87484719D01*
X95115249Y-87494594D01*
X95091006Y-87502936D01*
X95067636Y-87509831D01*
X95044735Y-87515365D01*
X95021900Y-87519625D01*
X94998727Y-87522696D01*
X94974812Y-87524667D01*
X94949752Y-87525622D01*
X94923143Y-87525648D01*
X94894581Y-87524833D01*
X94863663Y-87523262D01*
X94829984Y-87521021D01*
X94761914Y-87515500D01*
X94733275Y-87512402D01*
X94707637Y-87508786D01*
X94684552Y-87504432D01*
X94663573Y-87499121D01*
X94644250Y-87492633D01*
X94635070Y-87488880D01*
X94626137Y-87484750D01*
X94617393Y-87480216D01*
X94608785Y-87475251D01*
X94591747Y-87463917D01*
X94574575Y-87450529D01*
X94556821Y-87434867D01*
X94538037Y-87416712D01*
X94517776Y-87395843D01*
X94471030Y-87345090D01*
X94444094Y-87313335D01*
X94417329Y-87277938D01*
X94390952Y-87239397D01*
X94365179Y-87198210D01*
X94340226Y-87154874D01*
X94316309Y-87109887D01*
X94293645Y-87063746D01*
X94272449Y-87016950D01*
X94252937Y-86969995D01*
X94235325Y-86923380D01*
X94219830Y-86877601D01*
X94206668Y-86833158D01*
X94196055Y-86790546D01*
X94188206Y-86750264D01*
X94183339Y-86712810D01*
X94181668Y-86678681D01*
X94181580Y-86670602D01*
X94181322Y-86662750D01*
X94180902Y-86655164D01*
X94180329Y-86647887D01*
X94179612Y-86640957D01*
X94178760Y-86634417D01*
X94177781Y-86628307D01*
X94176683Y-86622668D01*
X94175477Y-86617539D01*
X94174169Y-86612963D01*
X94172770Y-86608979D01*
X94171288Y-86605628D01*
X94169731Y-86602951D01*
X94168108Y-86600988D01*
X94167275Y-86600288D01*
X94166428Y-86599781D01*
X94165570Y-86599473D01*
X94164700Y-86599369D01*
X94163337Y-86599866D01*
X94161016Y-86601338D01*
X94153599Y-86607115D01*
X94128372Y-86629312D01*
X94090636Y-86664406D01*
X94042006Y-86710840D01*
X93984098Y-86767058D01*
X93918525Y-86831502D01*
X93846905Y-86902617D01*
X93770852Y-86978846D01*
X93691305Y-87057837D01*
X93616485Y-87129750D01*
X93546010Y-87194811D01*
X93479501Y-87253243D01*
X93416574Y-87305270D01*
X93356850Y-87351117D01*
X93299947Y-87391007D01*
X93245484Y-87425164D01*
X93193079Y-87453812D01*
X93142352Y-87477176D01*
X93092921Y-87495480D01*
X93044405Y-87508947D01*
X92996423Y-87517801D01*
X92948594Y-87522267D01*
X92900536Y-87522569D01*
X92851868Y-87518931D01*
X92825891Y-87515476D01*
X92800927Y-87511068D01*
X92776964Y-87505686D01*
X92753991Y-87499307D01*
X92731993Y-87491909D01*
X92710960Y-87483470D01*
X92690878Y-87473969D01*
X92671736Y-87463383D01*
X92653520Y-87451690D01*
X92636219Y-87438869D01*
X92619820Y-87424897D01*
X92604310Y-87409752D01*
X92589678Y-87393413D01*
X92575911Y-87375857D01*
X92562996Y-87357063D01*
X92550921Y-87337008D01*
X92539674Y-87315671D01*
X92529243Y-87293029D01*
X92519614Y-87269060D01*
X92510777Y-87243743D01*
X92502717Y-87217056D01*
X92495423Y-87188976D01*
X92488883Y-87159481D01*
X92483083Y-87128551D01*
X92478013Y-87096162D01*
X92473658Y-87062292D01*
X92470008Y-87026920D01*
X92467049Y-86990024D01*
X92463155Y-86911571D01*
X92461880Y-86826756D01*
X92465604Y-86747104D01*
X92476474Y-86629610D01*
X92494036Y-86477619D01*
X92517838Y-86294478D01*
X92547426Y-86083533D01*
X92582347Y-85848130D01*
X92622147Y-85591614D01*
X92666374Y-85317331D01*
X92816501Y-84398334D01*
X92860320Y-84117918D01*
X92886989Y-83927239D01*
X92899269Y-83804056D01*
X92899918Y-83726130D01*
X92891696Y-83671222D01*
X92877364Y-83617094D01*
X92867342Y-83581989D01*
X92857070Y-83550476D01*
X92846399Y-83522453D01*
X92840868Y-83509719D01*
X92835181Y-83497820D01*
X92829320Y-83486742D01*
X92823267Y-83476474D01*
X92817003Y-83467002D01*
X92810509Y-83458313D01*
X92803767Y-83450396D01*
X92796759Y-83443237D01*
X92789466Y-83436823D01*
X92781869Y-83431143D01*
X92773951Y-83426182D01*
X92765691Y-83421929D01*
X92757073Y-83418371D01*
X92748076Y-83415495D01*
X92738684Y-83413288D01*
X92728877Y-83411737D01*
X92718637Y-83410831D01*
X92707944Y-83410556D01*
X92696782Y-83410899D01*
X92685131Y-83411849D01*
X92672972Y-83413391D01*
X92660288Y-83415514D01*
X92633267Y-83421449D01*
X92603921Y-83429554D01*
X92562943Y-83443634D01*
X92520907Y-83461563D01*
X92477927Y-83483196D01*
X92434115Y-83508386D01*
X92389584Y-83536990D01*
X92344447Y-83568861D01*
X92252808Y-83641827D01*
X92160102Y-83726121D01*
X92067233Y-83820582D01*
X91975104Y-83924048D01*
X91884621Y-84035356D01*
X91796686Y-84153346D01*
X91712205Y-84276856D01*
X91632080Y-84404722D01*
X91557216Y-84535785D01*
X91488518Y-84668881D01*
X91426889Y-84802850D01*
X91373232Y-84936528D01*
X91328453Y-85068755D01*
X91310896Y-85133969D01*
X91289130Y-85227379D01*
X91264017Y-85344610D01*
X91236418Y-85481290D01*
X91207194Y-85633045D01*
X91177208Y-85795501D01*
X91147320Y-85964286D01*
X91118392Y-86135026D01*
X91016320Y-86735903D01*
X90980876Y-86932597D01*
X90962642Y-87021352D01*
X90959414Y-87028432D01*
X90953931Y-87036550D01*
X90946291Y-87045645D01*
X90936595Y-87055658D01*
X90911433Y-87078192D01*
X90879245Y-87103667D01*
X90840828Y-87131599D01*
X90796982Y-87161503D01*
X90748506Y-87192894D01*
X90696197Y-87225288D01*
X90640856Y-87258200D01*
X90583280Y-87291146D01*
X90524268Y-87323642D01*
X90464620Y-87355201D01*
X90405134Y-87385341D01*
X90346608Y-87413576D01*
X90289842Y-87439422D01*
X90235635Y-87462395D01*
X90190919Y-87479888D01*
X90150616Y-87494151D01*
X90114532Y-87505072D01*
X90098011Y-87509245D01*
X90082473Y-87512539D01*
X90067893Y-87514943D01*
X90054246Y-87516440D01*
X90041509Y-87517018D01*
X90029657Y-87516662D01*
X90018666Y-87515358D01*
X90008511Y-87513093D01*
X89999170Y-87509851D01*
X89990616Y-87505620D01*
X89982827Y-87500385D01*
X89975778Y-87494132D01*
X89969444Y-87486848D01*
X89963802Y-87478517D01*
X89958827Y-87469126D01*
X89954495Y-87458661D01*
X89950782Y-87447108D01*
X89947664Y-87434453D01*
X89945115Y-87420682D01*
X89943113Y-87405781D01*
X89940650Y-87372532D01*
X89940081Y-87334594D01*
X89941213Y-87291855D01*
X89947725Y-87227010D01*
X89963507Y-87109150D01*
X90018718Y-86741107D01*
X90098530Y-86241180D01*
X90194628Y-85662820D01*
X90286150Y-85110943D01*
X90356534Y-84658863D01*
X90406660Y-84296421D01*
X90437407Y-84013460D01*
X90449655Y-83799820D01*
X90449117Y-83715820D01*
X90444283Y-83645342D01*
X90435265Y-83587114D01*
X90422171Y-83539867D01*
X90405113Y-83502332D01*
X90384199Y-83473238D01*
X90366570Y-83455651D01*
X90347715Y-83440591D01*
X90327671Y-83428037D01*
X90306477Y-83417966D01*
X90284173Y-83410353D01*
X90260797Y-83405178D01*
X90236388Y-83402416D01*
X90210984Y-83402045D01*
X90184625Y-83404041D01*
X90157349Y-83408383D01*
X90129195Y-83415047D01*
X90100203Y-83424011D01*
X90070410Y-83435251D01*
X90039856Y-83448744D01*
X90008580Y-83464468D01*
X89976619Y-83482400D01*
X89944014Y-83502516D01*
X89910803Y-83524795D01*
X89877025Y-83549213D01*
X89842718Y-83575747D01*
X89807922Y-83604374D01*
X89772675Y-83635072D01*
X89737016Y-83667818D01*
X89700984Y-83702588D01*
X89664617Y-83739361D01*
X89627956Y-83778112D01*
X89553901Y-83861460D01*
X89479131Y-83952449D01*
X89403956Y-84050897D01*
X89363395Y-84107032D01*
X89324776Y-84162780D01*
X89288044Y-84218253D01*
X89253144Y-84273563D01*
X89220021Y-84328823D01*
X89188620Y-84384146D01*
X89158887Y-84439644D01*
X89130766Y-84495430D01*
X89104202Y-84551615D01*
X89079140Y-84608313D01*
X89055526Y-84665636D01*
X89033305Y-84723697D01*
X89012421Y-84782608D01*
X88992819Y-84842482D01*
X88974446Y-84903431D01*
X88957245Y-84965568D01*
X88925774Y-85101357D01*
X88886906Y-85295071D01*
X88798406Y-85788832D01*
X88714598Y-86311969D01*
X88681597Y-86542402D01*
X88658339Y-86729598D01*
X88650400Y-86796058D01*
X88646254Y-86824308D01*
X88641761Y-86849713D01*
X88636751Y-86872630D01*
X88631052Y-86893414D01*
X88624494Y-86912423D01*
X88616905Y-86930013D01*
X88608114Y-86946541D01*
X88597951Y-86962361D01*
X88586243Y-86977832D01*
X88572820Y-86993310D01*
X88557511Y-87009150D01*
X88540144Y-87025710D01*
X88520549Y-87043345D01*
X88498554Y-87062413D01*
X88467012Y-87087090D01*
X88425133Y-87116303D01*
X88316650Y-87184955D01*
X88185675Y-87261605D01*
X88044777Y-87339489D01*
X87906525Y-87411840D01*
X87783490Y-87471895D01*
X87731607Y-87495198D01*
X87688241Y-87512889D01*
X87654964Y-87524124D01*
X87633347Y-87528057D01*
X87628724Y-87527938D01*
X87623997Y-87527589D01*
X87619202Y-87527022D01*
X87614371Y-87526248D01*
X87609539Y-87525279D01*
X87604742Y-87524127D01*
X87600013Y-87522804D01*
X87595386Y-87521321D01*
X87590897Y-87519691D01*
X87586580Y-87517924D01*
X87582468Y-87516033D01*
X87578597Y-87514030D01*
X87575001Y-87511926D01*
X87571714Y-87509733D01*
X87568770Y-87507462D01*
X87566205Y-87505126D01*
X87566202Y-87505126D01*
X87562260Y-87500512D01*
X87558719Y-87494878D01*
X87555593Y-87488119D01*
X87552893Y-87480126D01*
X87550631Y-87470794D01*
X87548819Y-87460016D01*
X87547469Y-87447686D01*
X87546594Y-87433698D01*
X87546204Y-87417943D01*
X87546312Y-87400317D01*
X87548071Y-87359024D01*
X87551964Y-87308965D01*
X87558089Y-87249288D01*
X87566540Y-87179141D01*
X87577414Y-87097672D01*
X87590806Y-87004028D01*
X87606811Y-86897358D01*
X87647046Y-86641529D01*
X87698884Y-86323367D01*
X87946628Y-84799352D01*
X88021726Y-84307511D01*
X88068644Y-83959270D01*
X88090633Y-83727242D01*
X88090947Y-83584046D01*
X88083992Y-83537201D01*
X88072837Y-83502296D01*
X88057889Y-83475905D01*
X88039554Y-83454608D01*
X88033389Y-83448900D01*
X88026648Y-83443511D01*
X88019363Y-83438444D01*
X88011563Y-83433700D01*
X88003281Y-83429280D01*
X87994546Y-83425186D01*
X87975841Y-83417982D01*
X87955696Y-83412099D01*
X87934355Y-83407551D01*
X87912065Y-83404349D01*
X87889071Y-83402505D01*
X87865620Y-83402033D01*
X87841956Y-83402944D01*
X87818327Y-83405250D01*
X87794978Y-83408963D01*
X87772154Y-83414097D01*
X87750102Y-83420663D01*
X87729068Y-83428673D01*
X87719009Y-83433223D01*
X87709296Y-83438139D01*
X87700357Y-83442725D01*
X87691784Y-83446712D01*
X87683564Y-83450103D01*
X87675685Y-83452896D01*
X87668135Y-83455092D01*
X87660901Y-83456691D01*
X87653972Y-83457694D01*
X87647334Y-83458100D01*
X87640975Y-83457910D01*
X87634884Y-83457125D01*
X87629048Y-83455743D01*
X87623454Y-83453766D01*
X87618090Y-83451194D01*
X87612944Y-83448026D01*
X87608004Y-83444264D01*
X87603257Y-83439907D01*
X87594609Y-83426790D01*
X87591266Y-83410352D01*
X87592982Y-83390808D01*
X87599509Y-83368376D01*
X87610600Y-83343274D01*
X87626009Y-83315717D01*
X87645487Y-83285922D01*
X87668789Y-83254108D01*
X87725873Y-83185285D01*
X87795284Y-83110985D01*
X87875046Y-83032941D01*
X87963181Y-82952890D01*
X88057714Y-82872568D01*
X88156666Y-82793708D01*
X88258063Y-82718048D01*
X88359926Y-82647322D01*
X88460279Y-82583266D01*
X88557146Y-82527615D01*
X88603655Y-82503484D01*
X88648550Y-82482105D01*
X88691586Y-82463694D01*
X88732515Y-82448470D01*
X88769134Y-82436920D01*
X88803608Y-82428003D01*
X88836032Y-82421757D01*
X88851505Y-82419648D01*
X88866501Y-82418220D01*
X88881032Y-82417479D01*
X88895111Y-82417430D01*
X88908748Y-82418077D01*
G37*
G36*
X83448500Y-79757836D02*
G01*
X83493969Y-79761856D01*
X83529827Y-79767540D01*
X83554780Y-79774940D01*
X83562762Y-79779298D01*
X83567532Y-79784104D01*
X83568599Y-79791106D01*
X83568084Y-79805751D01*
X83562586Y-79856335D01*
X83551587Y-79932574D01*
X83535638Y-80031189D01*
X83515289Y-80148900D01*
X83491091Y-80282427D01*
X83463594Y-80428489D01*
X83433348Y-80583808D01*
X83300235Y-81274263D01*
X83194236Y-81852743D01*
X82881257Y-83641326D01*
X82652266Y-84953663D01*
X82534311Y-85669608D01*
X82506388Y-85874744D01*
X82493525Y-86015754D01*
X82491486Y-86120961D01*
X82496040Y-86218691D01*
X82501382Y-86294768D01*
X82504275Y-86327110D01*
X82507451Y-86356071D01*
X82511013Y-86381966D01*
X82515061Y-86405108D01*
X82519697Y-86425810D01*
X82525023Y-86444386D01*
X82531139Y-86461148D01*
X82538148Y-86476411D01*
X82546151Y-86490488D01*
X82555249Y-86503693D01*
X82565545Y-86516338D01*
X82577138Y-86528737D01*
X82590131Y-86541203D01*
X82604626Y-86554051D01*
X82614509Y-86562171D01*
X82624985Y-86570063D01*
X82635962Y-86577687D01*
X82647350Y-86585001D01*
X82659056Y-86591966D01*
X82670989Y-86598539D01*
X82683058Y-86604680D01*
X82695173Y-86610348D01*
X82707240Y-86615502D01*
X82719170Y-86620102D01*
X82730870Y-86624106D01*
X82742250Y-86627474D01*
X82753218Y-86630164D01*
X82763683Y-86632137D01*
X82773553Y-86633350D01*
X82782738Y-86633764D01*
X82801564Y-86632476D01*
X82823521Y-86628779D01*
X82848071Y-86622918D01*
X82874673Y-86615142D01*
X82902787Y-86605696D01*
X82931875Y-86594828D01*
X82961395Y-86582785D01*
X82990809Y-86569814D01*
X83019576Y-86556162D01*
X83047156Y-86542076D01*
X83073011Y-86527803D01*
X83096600Y-86513590D01*
X83117383Y-86499683D01*
X83134820Y-86486331D01*
X83148373Y-86473779D01*
X83153523Y-86467881D01*
X83157500Y-86462276D01*
X83158676Y-86460488D01*
X83159977Y-86458722D01*
X83161398Y-86456981D01*
X83162935Y-86455268D01*
X83164582Y-86453584D01*
X83166335Y-86451931D01*
X83170138Y-86448730D01*
X83174306Y-86445682D01*
X83178800Y-86442805D01*
X83183580Y-86440117D01*
X83188609Y-86437636D01*
X83193848Y-86435380D01*
X83199257Y-86433367D01*
X83204798Y-86431615D01*
X83210432Y-86430141D01*
X83216121Y-86428963D01*
X83221825Y-86428100D01*
X83227506Y-86427569D01*
X83233126Y-86427388D01*
X83237039Y-86427464D01*
X83240744Y-86427700D01*
X83244245Y-86428102D01*
X83247543Y-86428681D01*
X83250640Y-86429445D01*
X83253539Y-86430401D01*
X83256243Y-86431559D01*
X83258753Y-86432928D01*
X83261073Y-86434515D01*
X83263204Y-86436329D01*
X83265148Y-86438380D01*
X83266909Y-86440674D01*
X83268487Y-86443222D01*
X83269887Y-86446032D01*
X83271110Y-86449111D01*
X83272158Y-86452470D01*
X83273034Y-86456115D01*
X83273741Y-86460056D01*
X83274280Y-86464302D01*
X83274653Y-86468861D01*
X83274864Y-86473741D01*
X83274915Y-86478951D01*
X83274808Y-86484500D01*
X83274544Y-86490396D01*
X83274128Y-86496648D01*
X83273560Y-86503265D01*
X83272844Y-86510254D01*
X83271982Y-86517624D01*
X83269828Y-86533544D01*
X83267116Y-86551092D01*
X83262065Y-86575307D01*
X83254626Y-86600743D01*
X83244893Y-86627303D01*
X83232962Y-86654889D01*
X83202878Y-86712755D01*
X83165132Y-86773565D01*
X83120477Y-86836544D01*
X83069670Y-86900920D01*
X83013467Y-86965915D01*
X82952623Y-87030757D01*
X82887893Y-87094670D01*
X82820033Y-87156879D01*
X82749798Y-87216610D01*
X82677945Y-87273088D01*
X82605228Y-87325538D01*
X82532404Y-87373186D01*
X82460227Y-87415258D01*
X82389454Y-87450977D01*
X82362448Y-87463209D01*
X82336943Y-87474192D01*
X82312697Y-87483967D01*
X82289471Y-87492580D01*
X82267021Y-87500074D01*
X82245107Y-87506492D01*
X82223487Y-87511879D01*
X82201920Y-87516278D01*
X82180164Y-87519733D01*
X82157979Y-87522288D01*
X82135122Y-87523987D01*
X82111353Y-87524873D01*
X82086430Y-87524990D01*
X82060111Y-87524381D01*
X82032156Y-87523092D01*
X82002322Y-87521164D01*
X81965907Y-87517741D01*
X81930336Y-87512810D01*
X81895624Y-87506388D01*
X81861785Y-87498492D01*
X81828833Y-87489137D01*
X81796784Y-87478342D01*
X81765650Y-87466121D01*
X81735448Y-87452491D01*
X81706190Y-87437470D01*
X81677891Y-87421072D01*
X81650566Y-87403316D01*
X81624229Y-87384217D01*
X81598895Y-87363792D01*
X81574577Y-87342058D01*
X81551290Y-87319030D01*
X81529049Y-87294725D01*
X81507867Y-87269160D01*
X81487760Y-87242352D01*
X81468740Y-87214316D01*
X81450824Y-87185070D01*
X81434025Y-87154629D01*
X81418357Y-87123010D01*
X81403836Y-87090231D01*
X81390474Y-87056306D01*
X81378287Y-87021253D01*
X81367289Y-86985088D01*
X81357495Y-86947828D01*
X81348918Y-86909489D01*
X81341572Y-86870087D01*
X81335474Y-86829640D01*
X81330636Y-86788163D01*
X81327073Y-86745673D01*
X81324541Y-86702614D01*
X81323038Y-86660118D01*
X81322765Y-86616669D01*
X81323927Y-86570750D01*
X81326724Y-86520845D01*
X81331359Y-86465437D01*
X81338036Y-86403011D01*
X81346955Y-86332050D01*
X81358319Y-86251036D01*
X81372331Y-86158456D01*
X81409109Y-85932525D01*
X81458906Y-85642126D01*
X81523341Y-85275129D01*
X81596361Y-84854587D01*
X81618640Y-84720759D01*
X81626900Y-84664604D01*
X81625476Y-84663282D01*
X81621217Y-84661976D01*
X81604480Y-84659422D01*
X81540102Y-84654588D01*
X81438282Y-84650207D01*
X81303539Y-84646385D01*
X81140390Y-84643228D01*
X80953351Y-84640842D01*
X80746941Y-84639333D01*
X80525675Y-84638807D01*
X79424161Y-84638807D01*
X79330420Y-84798432D01*
X79079929Y-85210354D01*
X78824520Y-85602463D01*
X78567902Y-85970012D01*
X78313783Y-86308254D01*
X78188821Y-86464902D01*
X78065875Y-86612443D01*
X77945409Y-86750284D01*
X77827886Y-86877831D01*
X77713770Y-86994492D01*
X77603525Y-87099672D01*
X77497614Y-87192779D01*
X77396502Y-87273219D01*
X77338566Y-87314874D01*
X77280014Y-87353492D01*
X77221122Y-87388992D01*
X77162164Y-87421288D01*
X77103417Y-87450299D01*
X77045157Y-87475940D01*
X76987658Y-87498129D01*
X76931197Y-87516782D01*
X76876050Y-87531817D01*
X76822492Y-87543149D01*
X76770799Y-87550697D01*
X76721246Y-87554376D01*
X76674110Y-87554103D01*
X76629665Y-87549795D01*
X76588189Y-87541369D01*
X76549956Y-87528742D01*
X76540032Y-87524403D01*
X76530080Y-87519412D01*
X76520125Y-87513798D01*
X76510186Y-87507594D01*
X76500288Y-87500831D01*
X76490453Y-87493539D01*
X76471060Y-87477499D01*
X76452187Y-87459725D01*
X76434013Y-87440466D01*
X76416718Y-87419975D01*
X76400481Y-87398503D01*
X76385483Y-87376300D01*
X76371901Y-87353617D01*
X76359917Y-87330706D01*
X76349708Y-87307818D01*
X76345327Y-87296460D01*
X76341456Y-87285203D01*
X76338120Y-87274076D01*
X76335340Y-87263112D01*
X76333138Y-87252342D01*
X76331538Y-87241797D01*
X76330562Y-87231509D01*
X76330231Y-87221509D01*
X76330482Y-87208907D01*
X76331230Y-87196535D01*
X76332472Y-87184400D01*
X76334201Y-87172507D01*
X76336413Y-87160863D01*
X76339102Y-87149473D01*
X76342263Y-87138343D01*
X76345892Y-87127479D01*
X76349982Y-87116886D01*
X76354529Y-87106571D01*
X76359527Y-87096540D01*
X76364972Y-87086797D01*
X76370858Y-87077350D01*
X76377180Y-87068204D01*
X76383933Y-87059365D01*
X76391112Y-87050838D01*
X76398711Y-87042629D01*
X76406726Y-87034745D01*
X76415151Y-87027192D01*
X76423981Y-87019974D01*
X76433211Y-87013098D01*
X76442836Y-87006569D01*
X76452850Y-87000395D01*
X76463249Y-86994579D01*
X76474028Y-86989129D01*
X76485180Y-86984050D01*
X76496701Y-86979348D01*
X76508586Y-86975029D01*
X76520830Y-86971098D01*
X76533428Y-86967562D01*
X76546373Y-86964425D01*
X76559662Y-86961696D01*
X76615296Y-86948974D01*
X76673248Y-86931348D01*
X76733211Y-86909026D01*
X76794876Y-86882218D01*
X76857938Y-86851131D01*
X76922086Y-86815975D01*
X76987015Y-86776957D01*
X77052416Y-86734287D01*
X77117981Y-86688173D01*
X77183403Y-86638823D01*
X77248374Y-86586447D01*
X77312587Y-86531253D01*
X77375733Y-86473450D01*
X77437505Y-86413245D01*
X77497595Y-86350848D01*
X77555696Y-86286468D01*
X77643918Y-86182209D01*
X77732694Y-86070565D01*
X77822973Y-85949892D01*
X77915707Y-85818548D01*
X78011847Y-85674887D01*
X78112343Y-85517267D01*
X78218148Y-85344044D01*
X78330210Y-85153575D01*
X78449482Y-84944215D01*
X78576915Y-84714322D01*
X78860065Y-84186360D01*
X79082924Y-83757387D01*
X79976189Y-83757387D01*
X79977367Y-83758537D01*
X79980862Y-83759648D01*
X79994573Y-83761752D01*
X80047263Y-83765464D01*
X80130563Y-83768465D01*
X80240779Y-83770701D01*
X80374217Y-83772116D01*
X80527183Y-83772655D01*
X80695982Y-83772263D01*
X80876920Y-83770884D01*
X81777652Y-83761713D01*
X81939263Y-82798631D01*
X82189793Y-81323412D01*
X82265948Y-80890669D01*
X82304044Y-80691885D01*
X82306182Y-80681976D01*
X82307679Y-80672759D01*
X82308524Y-80664236D01*
X82308703Y-80656408D01*
X82308204Y-80649276D01*
X82307016Y-80642842D01*
X82306158Y-80639887D01*
X82305124Y-80637107D01*
X82303911Y-80634503D01*
X82302518Y-80632073D01*
X82300942Y-80629819D01*
X82299184Y-80627741D01*
X82297240Y-80625838D01*
X82295110Y-80624111D01*
X82292792Y-80622560D01*
X82290284Y-80621186D01*
X82287585Y-80619988D01*
X82284693Y-80618966D01*
X82278325Y-80617454D01*
X82271167Y-80616650D01*
X82263208Y-80616555D01*
X82254434Y-80617171D01*
X82244833Y-80618500D01*
X82234393Y-80620542D01*
X82223102Y-80623299D01*
X82210946Y-80626772D01*
X82197914Y-80630963D01*
X82183993Y-80635872D01*
X82169170Y-80641502D01*
X82153434Y-80647853D01*
X82136772Y-80654927D01*
X82119171Y-80662725D01*
X82100619Y-80671248D01*
X82081104Y-80680498D01*
X82039133Y-80701184D01*
X81993160Y-80724792D01*
X81936280Y-80756799D01*
X81877791Y-80794151D01*
X81817971Y-80836559D01*
X81757093Y-80883735D01*
X81695434Y-80935390D01*
X81633270Y-80991238D01*
X81570875Y-81050990D01*
X81508526Y-81114357D01*
X81446497Y-81181052D01*
X81385065Y-81250785D01*
X81324505Y-81323271D01*
X81265093Y-81398219D01*
X81207103Y-81475342D01*
X81150812Y-81554352D01*
X81096496Y-81634961D01*
X81044428Y-81716880D01*
X80941756Y-81894304D01*
X80794096Y-82163001D01*
X80436158Y-82836036D01*
X80115295Y-83459620D01*
X80013980Y-83666503D01*
X79976189Y-83757387D01*
X79082924Y-83757387D01*
X79187268Y-83556541D01*
X79566131Y-82811715D01*
X79941858Y-82074046D01*
X80081497Y-81807201D01*
X80196393Y-81594991D01*
X80292101Y-81427398D01*
X80374177Y-81294404D01*
X80448175Y-81185990D01*
X80519651Y-81092139D01*
X80616704Y-80976743D01*
X80719502Y-80865450D01*
X80827798Y-80758409D01*
X80941348Y-80655765D01*
X81059908Y-80557669D01*
X81183233Y-80464267D01*
X81311077Y-80375707D01*
X81443196Y-80292138D01*
X81579345Y-80213706D01*
X81719280Y-80140560D01*
X81862755Y-80072848D01*
X82009525Y-80010717D01*
X82159347Y-79954315D01*
X82311974Y-79903791D01*
X82467163Y-79859292D01*
X82624668Y-79820965D01*
X82684446Y-79808965D01*
X82750154Y-79798021D01*
X82894183Y-79779506D01*
X83046392Y-79765825D01*
X83196422Y-79757383D01*
X83333911Y-79754585D01*
X83448500Y-79757836D01*
G37*
G36*
X87376910Y-82468370D02*
G01*
X87387709Y-82469527D01*
X87397847Y-82471362D01*
X87407328Y-82473875D01*
X87416159Y-82477069D01*
X87424345Y-82480943D01*
X87431891Y-82485499D01*
X87438802Y-82490739D01*
X87445084Y-82496664D01*
X87450742Y-82503274D01*
X87455782Y-82510571D01*
X87460209Y-82518557D01*
X87464028Y-82527232D01*
X87467245Y-82536597D01*
X87469865Y-82546654D01*
X87471893Y-82557404D01*
X87473335Y-82568848D01*
X87474483Y-82593824D01*
X87472403Y-82622678D01*
X87466444Y-82672313D01*
X87457022Y-82740019D01*
X87444556Y-82823085D01*
X87412161Y-83024454D01*
X87372604Y-83254734D01*
X87095438Y-84845185D01*
X86819795Y-86395563D01*
X86709473Y-86982813D01*
X86630628Y-87373278D01*
X86600659Y-87502428D01*
X86567305Y-87630848D01*
X86530697Y-87758249D01*
X86490961Y-87884345D01*
X86448227Y-88008848D01*
X86402624Y-88131470D01*
X86354280Y-88251925D01*
X86303323Y-88369925D01*
X86249882Y-88485183D01*
X86194086Y-88597411D01*
X86136063Y-88706323D01*
X86075942Y-88811631D01*
X86013852Y-88913047D01*
X85949920Y-89010284D01*
X85884277Y-89103056D01*
X85817049Y-89191074D01*
X85683023Y-89348052D01*
X85537908Y-89496256D01*
X85382860Y-89635200D01*
X85219039Y-89764398D01*
X85047603Y-89883363D01*
X84869710Y-89991610D01*
X84686517Y-90088652D01*
X84499184Y-90174004D01*
X84308869Y-90247178D01*
X84116729Y-90307689D01*
X83923923Y-90355051D01*
X83731609Y-90388777D01*
X83540945Y-90408381D01*
X83353090Y-90413377D01*
X83260578Y-90410246D01*
X83169202Y-90403280D01*
X83079107Y-90392418D01*
X82990439Y-90377602D01*
X82990438Y-90377600D01*
X82909335Y-90359545D01*
X82829103Y-90336716D01*
X82750141Y-90309402D01*
X82672848Y-90277891D01*
X82597622Y-90242469D01*
X82524863Y-90203427D01*
X82454970Y-90161050D01*
X82388340Y-90115629D01*
X82325374Y-90067450D01*
X82266470Y-90016803D01*
X82212027Y-89963974D01*
X82162443Y-89909252D01*
X82118119Y-89852925D01*
X82079452Y-89795282D01*
X82046841Y-89736610D01*
X82020686Y-89677197D01*
X82007851Y-89639607D01*
X81997241Y-89600031D01*
X81988842Y-89558661D01*
X81982640Y-89515692D01*
X81978619Y-89471318D01*
X81976767Y-89425732D01*
X81977068Y-89379129D01*
X81979509Y-89331701D01*
X81984076Y-89283643D01*
X81990753Y-89235149D01*
X81999527Y-89186412D01*
X82010384Y-89137626D01*
X82023310Y-89088984D01*
X82038290Y-89040682D01*
X82055309Y-88992912D01*
X82074355Y-88945868D01*
X82091386Y-88910183D01*
X82112327Y-88872737D01*
X82136608Y-88834130D01*
X82163660Y-88794963D01*
X82192913Y-88755838D01*
X82223796Y-88717356D01*
X82255739Y-88680118D01*
X82288173Y-88644725D01*
X82320528Y-88611778D01*
X82352233Y-88581879D01*
X82382720Y-88555629D01*
X82411417Y-88533628D01*
X82437755Y-88516479D01*
X82461163Y-88504782D01*
X82471591Y-88501166D01*
X82481073Y-88499138D01*
X82489538Y-88498774D01*
X82496914Y-88500149D01*
X82499035Y-88501027D01*
X82501191Y-88502250D01*
X82503376Y-88503811D01*
X82505588Y-88505698D01*
X82507821Y-88507903D01*
X82510072Y-88510415D01*
X82512336Y-88513225D01*
X82514610Y-88516323D01*
X82519169Y-88523344D01*
X82523716Y-88531401D01*
X82528218Y-88540416D01*
X82532642Y-88550310D01*
X82536955Y-88561008D01*
X82541125Y-88572429D01*
X82545117Y-88584498D01*
X82548900Y-88597135D01*
X82552439Y-88610264D01*
X82555703Y-88623806D01*
X82558657Y-88637685D01*
X82561270Y-88651821D01*
X82575085Y-88717802D01*
X82593808Y-88783213D01*
X82617260Y-88847835D01*
X82645261Y-88911450D01*
X82677632Y-88973837D01*
X82714192Y-89034777D01*
X82754762Y-89094052D01*
X82799163Y-89151443D01*
X82847214Y-89206731D01*
X82898736Y-89259696D01*
X82953549Y-89310119D01*
X83011474Y-89357781D01*
X83072330Y-89402464D01*
X83135938Y-89443948D01*
X83202118Y-89482014D01*
X83270690Y-89516443D01*
X83299637Y-89529627D01*
X83327578Y-89541632D01*
X83354816Y-89552521D01*
X83381653Y-89562354D01*
X83408393Y-89571194D01*
X83435339Y-89579101D01*
X83462794Y-89586138D01*
X83491062Y-89592366D01*
X83520445Y-89597847D01*
X83551246Y-89602641D01*
X83583770Y-89606812D01*
X83618318Y-89610419D01*
X83655194Y-89613526D01*
X83694701Y-89616192D01*
X83782821Y-89620453D01*
X83876894Y-89622312D01*
X83967332Y-89620407D01*
X84054350Y-89614653D01*
X84138158Y-89604967D01*
X84218972Y-89591263D01*
X84297004Y-89573458D01*
X84372467Y-89551469D01*
X84445574Y-89525210D01*
X84516539Y-89494597D01*
X84585574Y-89459547D01*
X84652893Y-89419975D01*
X84718709Y-89375798D01*
X84783235Y-89326930D01*
X84846684Y-89273288D01*
X84909270Y-89214788D01*
X84971205Y-89151345D01*
X85021657Y-89095477D01*
X85069201Y-89038747D01*
X85113985Y-88980832D01*
X85156156Y-88921410D01*
X85195864Y-88860158D01*
X85233257Y-88796754D01*
X85268482Y-88730874D01*
X85301689Y-88662196D01*
X85333025Y-88590398D01*
X85362639Y-88515156D01*
X85390678Y-88436148D01*
X85417292Y-88353051D01*
X85442628Y-88265543D01*
X85466835Y-88173301D01*
X85490061Y-88076002D01*
X85512454Y-87973324D01*
X85576799Y-87632215D01*
X85657124Y-87169657D01*
X85725673Y-86750106D01*
X85746858Y-86607852D01*
X85754690Y-86538021D01*
X85754290Y-86536847D01*
X85753100Y-86536471D01*
X85751142Y-86536876D01*
X85748434Y-86538046D01*
X85740850Y-86542606D01*
X85730505Y-86550013D01*
X85717555Y-86560127D01*
X85702159Y-86572808D01*
X85684472Y-86587917D01*
X85664653Y-86605314D01*
X85619245Y-86646414D01*
X85567192Y-86694994D01*
X85509751Y-86749935D01*
X85448180Y-86810124D01*
X85357991Y-86897045D01*
X85269105Y-86978362D01*
X85181525Y-87054074D01*
X85095249Y-87124180D01*
X85010281Y-87188680D01*
X84926619Y-87247573D01*
X84844265Y-87300860D01*
X84763220Y-87348539D01*
X84683483Y-87390611D01*
X84605058Y-87427074D01*
X84527942Y-87457929D01*
X84452139Y-87483175D01*
X84377648Y-87502811D01*
X84304470Y-87516838D01*
X84232606Y-87525254D01*
X84162056Y-87528059D01*
X84101589Y-87525986D01*
X84072487Y-87523393D01*
X84044137Y-87519760D01*
X84016537Y-87515086D01*
X83989686Y-87509369D01*
X83963583Y-87502609D01*
X83938226Y-87494803D01*
X83913612Y-87485951D01*
X83889742Y-87476051D01*
X83866612Y-87465102D01*
X83844222Y-87453101D01*
X83822570Y-87440049D01*
X83801655Y-87425944D01*
X83781474Y-87410783D01*
X83762027Y-87394567D01*
X83743312Y-87377292D01*
X83725326Y-87358959D01*
X83708070Y-87339566D01*
X83691540Y-87319111D01*
X83675736Y-87297593D01*
X83660655Y-87275010D01*
X83646297Y-87251362D01*
X83632660Y-87226646D01*
X83619742Y-87200862D01*
X83607542Y-87174008D01*
X83585288Y-87117085D01*
X83565887Y-87055866D01*
X83549324Y-86990339D01*
X83539817Y-86941164D01*
X83532772Y-86888294D01*
X83528341Y-86830434D01*
X83526674Y-86766286D01*
X83527924Y-86694556D01*
X83532240Y-86613947D01*
X83539774Y-86523163D01*
X83550678Y-86420907D01*
X83565101Y-86305884D01*
X83583196Y-86176798D01*
X83605112Y-86032352D01*
X83631003Y-85871250D01*
X83695308Y-85493894D01*
X83777319Y-85034361D01*
X83846020Y-84648735D01*
X83899142Y-84334641D01*
X83937484Y-84084456D01*
X83961845Y-83890561D01*
X83973023Y-83745333D01*
X83973918Y-83688588D01*
X83971817Y-83641153D01*
X83966819Y-83602073D01*
X83959025Y-83570398D01*
X83948535Y-83545173D01*
X83935447Y-83525447D01*
X83930196Y-83519549D01*
X83924520Y-83513982D01*
X83918438Y-83508747D01*
X83911970Y-83503846D01*
X83905133Y-83499281D01*
X83897947Y-83495051D01*
X83890431Y-83491160D01*
X83882604Y-83487607D01*
X83874483Y-83484394D01*
X83866089Y-83481522D01*
X83857440Y-83478992D01*
X83848554Y-83476806D01*
X83839452Y-83474965D01*
X83830151Y-83473470D01*
X83811028Y-83471522D01*
X83791338Y-83470973D01*
X83771231Y-83471833D01*
X83750857Y-83474110D01*
X83730368Y-83477815D01*
X83709914Y-83482958D01*
X83689645Y-83489547D01*
X83679628Y-83493388D01*
X83669714Y-83497594D01*
X83659921Y-83502166D01*
X83650270Y-83507107D01*
X83640299Y-83512226D01*
X83630912Y-83516574D01*
X83622049Y-83520144D01*
X83613651Y-83522927D01*
X83609607Y-83524022D01*
X83605657Y-83524918D01*
X83601793Y-83525613D01*
X83598008Y-83526108D01*
X83594293Y-83526401D01*
X83590643Y-83526491D01*
X83587049Y-83526378D01*
X83583503Y-83526060D01*
X83579999Y-83525537D01*
X83576529Y-83524807D01*
X83573085Y-83523870D01*
X83569659Y-83522725D01*
X83566245Y-83521372D01*
X83562835Y-83519808D01*
X83559422Y-83518034D01*
X83555997Y-83516048D01*
X83549084Y-83511437D01*
X83542037Y-83505969D01*
X83534796Y-83499637D01*
X83527301Y-83492434D01*
X83523084Y-83488081D01*
X83519253Y-83483809D01*
X83515826Y-83479584D01*
X83512823Y-83475372D01*
X83510262Y-83471141D01*
X83508163Y-83466856D01*
X83506544Y-83462484D01*
X83505424Y-83457992D01*
X83504823Y-83453347D01*
X83504758Y-83448515D01*
X83505250Y-83443462D01*
X83506316Y-83438156D01*
X83507976Y-83432563D01*
X83510249Y-83426649D01*
X83513153Y-83420382D01*
X83516708Y-83413728D01*
X83520932Y-83406653D01*
X83525845Y-83399124D01*
X83531465Y-83391107D01*
X83537812Y-83382570D01*
X83544903Y-83373479D01*
X83552758Y-83363801D01*
X83561397Y-83353501D01*
X83570837Y-83342547D01*
X83592199Y-83318543D01*
X83616995Y-83291522D01*
X83645377Y-83261216D01*
X83677496Y-83227358D01*
X83724654Y-83179273D01*
X83775881Y-83129616D01*
X83830549Y-83078870D01*
X83888029Y-83027520D01*
X84008917Y-82924943D01*
X84133521Y-82825758D01*
X84256817Y-82733839D01*
X84316404Y-82691814D01*
X84373781Y-82653057D01*
X84428318Y-82618054D01*
X84479388Y-82587287D01*
X84526363Y-82561241D01*
X84568615Y-82540400D01*
X84584649Y-82533420D01*
X84601628Y-82526635D01*
X84619404Y-82520081D01*
X84637831Y-82513793D01*
X84656760Y-82507806D01*
X84676044Y-82502155D01*
X84715090Y-82492003D01*
X84753788Y-82483618D01*
X84772639Y-82480176D01*
X84790961Y-82477281D01*
X84808607Y-82474968D01*
X84825430Y-82473272D01*
X84841281Y-82472229D01*
X84856015Y-82471873D01*
X84884232Y-82472682D01*
X84910879Y-82475157D01*
X84935964Y-82479369D01*
X84959500Y-82485391D01*
X84981496Y-82493294D01*
X85001964Y-82503152D01*
X85020912Y-82515035D01*
X85038352Y-82529016D01*
X85054295Y-82545167D01*
X85068751Y-82563560D01*
X85081729Y-82584266D01*
X85093241Y-82607359D01*
X85103298Y-82632909D01*
X85111909Y-82660990D01*
X85119085Y-82691672D01*
X85124837Y-82725029D01*
X85129175Y-82761131D01*
X85132109Y-82800052D01*
X85133650Y-82841863D01*
X85133808Y-82886636D01*
X85132594Y-82934443D01*
X85130019Y-82985356D01*
X85126092Y-83039447D01*
X85120825Y-83096789D01*
X85114227Y-83157453D01*
X85106310Y-83221511D01*
X85097083Y-83289035D01*
X85086557Y-83360098D01*
X85061650Y-83513127D01*
X85031673Y-83681173D01*
X84772667Y-85093224D01*
X84695276Y-85536565D01*
X84646900Y-85845710D01*
X84623243Y-86051351D01*
X84620011Y-86184183D01*
X84632909Y-86274899D01*
X84657642Y-86354195D01*
X84666298Y-86377013D01*
X84670930Y-86387761D01*
X84675776Y-86398076D01*
X84680843Y-86407962D01*
X84686138Y-86417425D01*
X84691668Y-86426468D01*
X84697441Y-86435097D01*
X84703465Y-86443317D01*
X84709747Y-86451132D01*
X84716294Y-86458548D01*
X84723114Y-86465569D01*
X84730214Y-86472200D01*
X84737603Y-86478446D01*
X84745286Y-86484312D01*
X84753272Y-86489803D01*
X84761568Y-86494923D01*
X84770182Y-86499678D01*
X84779121Y-86504072D01*
X84788392Y-86508110D01*
X84798003Y-86511797D01*
X84807962Y-86515138D01*
X84818276Y-86518138D01*
X84828952Y-86520801D01*
X84839997Y-86523133D01*
X84851421Y-86525138D01*
X84863228Y-86526821D01*
X84875429Y-86528188D01*
X84901035Y-86529989D01*
X84928300Y-86530581D01*
X84960442Y-86529214D01*
X84992928Y-86525081D01*
X85025835Y-86518135D01*
X85059237Y-86508328D01*
X85093209Y-86495612D01*
X85127827Y-86479939D01*
X85163165Y-86461260D01*
X85199300Y-86439529D01*
X85236305Y-86414698D01*
X85274256Y-86386718D01*
X85313229Y-86355542D01*
X85353298Y-86321122D01*
X85394538Y-86283410D01*
X85437025Y-86242359D01*
X85480835Y-86197919D01*
X85526041Y-86150045D01*
X85573979Y-86096803D01*
X85619306Y-86043437D01*
X85662048Y-85989904D01*
X85702227Y-85936155D01*
X85739868Y-85882148D01*
X85774994Y-85827835D01*
X85807629Y-85773171D01*
X85837797Y-85718112D01*
X85865521Y-85662612D01*
X85890826Y-85606624D01*
X85913735Y-85550105D01*
X85934272Y-85493008D01*
X85952461Y-85435288D01*
X85968325Y-85376899D01*
X85981888Y-85317797D01*
X85993175Y-85257935D01*
X86150078Y-84342225D01*
X86275891Y-83639431D01*
X86364945Y-83180209D01*
X86393916Y-83051516D01*
X86411572Y-82995212D01*
X86417901Y-82986345D01*
X86426464Y-82976367D01*
X86449830Y-82953372D01*
X86480751Y-82926809D01*
X86518313Y-82897264D01*
X86561597Y-82865319D01*
X86609688Y-82831559D01*
X86661668Y-82796569D01*
X86716621Y-82760932D01*
X86773630Y-82725232D01*
X86831779Y-82690053D01*
X86890150Y-82655980D01*
X86947828Y-82623596D01*
X87003896Y-82593485D01*
X87057436Y-82566232D01*
X87107532Y-82542421D01*
X87153268Y-82522635D01*
X87193777Y-82506891D01*
X87231361Y-82493796D01*
X87266063Y-82483358D01*
X87297926Y-82475586D01*
X87326993Y-82470492D01*
X87353306Y-82468083D01*
X87365444Y-82467889D01*
X87376910Y-82468370D01*
G37*
G36*
X100218135Y-88356206D02*
G01*
X101246721Y-89369558D01*
X101801835Y-89913170D01*
X101988423Y-90091518D01*
X102126914Y-90218702D01*
X102226720Y-90303077D01*
X102265057Y-90331823D01*
X102297252Y-90353000D01*
X102324482Y-90367653D01*
X102347923Y-90376827D01*
X102368752Y-90381565D01*
X102388144Y-90382912D01*
X102415071Y-90383520D01*
X102441716Y-90385333D01*
X102468057Y-90388328D01*
X102494069Y-90392486D01*
X102519728Y-90397785D01*
X102545009Y-90404206D01*
X102569888Y-90411726D01*
X102594341Y-90420326D01*
X102618345Y-90429985D01*
X102641873Y-90440683D01*
X102664903Y-90452397D01*
X102687411Y-90465109D01*
X102709371Y-90478797D01*
X102730759Y-90493441D01*
X102751552Y-90509019D01*
X102771726Y-90525512D01*
X102791255Y-90542898D01*
X102810116Y-90561156D01*
X102828284Y-90580267D01*
X102845736Y-90600210D01*
X102862446Y-90620963D01*
X102878392Y-90642506D01*
X102893548Y-90664819D01*
X102907890Y-90687881D01*
X102921395Y-90711670D01*
X102934037Y-90736167D01*
X102945793Y-90761351D01*
X102956638Y-90787200D01*
X102966548Y-90813695D01*
X102975499Y-90840815D01*
X102983467Y-90868539D01*
X102990428Y-90896846D01*
X102996071Y-90925663D01*
X103000106Y-90954787D01*
X103002570Y-90984155D01*
X103003500Y-91013700D01*
X103002933Y-91043360D01*
X103000906Y-91073069D01*
X102997456Y-91102762D01*
X102992620Y-91132376D01*
X102978938Y-91191108D01*
X102960157Y-91248747D01*
X102936572Y-91304778D01*
X102908481Y-91358685D01*
X102876178Y-91409951D01*
X102839962Y-91458062D01*
X102800127Y-91502501D01*
X102778946Y-91523182D01*
X102756971Y-91542752D01*
X102734239Y-91561146D01*
X102710789Y-91578299D01*
X102686656Y-91594148D01*
X102661877Y-91608627D01*
X102636491Y-91621672D01*
X102610533Y-91633219D01*
X102584041Y-91643204D01*
X102557051Y-91651560D01*
X102523433Y-91660522D01*
X102491905Y-91668204D01*
X102462225Y-91674599D01*
X102434152Y-91679698D01*
X102407447Y-91683493D01*
X102381869Y-91685974D01*
X102357175Y-91687135D01*
X102333127Y-91686965D01*
X102309483Y-91685457D01*
X102286002Y-91682602D01*
X102262444Y-91678392D01*
X102238568Y-91672819D01*
X102214133Y-91665873D01*
X102188898Y-91657546D01*
X102162623Y-91647830D01*
X102135067Y-91636717D01*
X102102139Y-91621955D01*
X102070376Y-91605709D01*
X102039804Y-91588042D01*
X102010447Y-91569017D01*
X101982331Y-91548699D01*
X101955480Y-91527151D01*
X101929920Y-91504436D01*
X101905675Y-91480619D01*
X101882771Y-91455761D01*
X101861233Y-91429928D01*
X101841085Y-91403183D01*
X101822353Y-91375589D01*
X101805062Y-91347209D01*
X101789236Y-91318108D01*
X101774901Y-91288349D01*
X101762081Y-91257995D01*
X101750802Y-91227110D01*
X101741089Y-91195758D01*
X101732967Y-91164002D01*
X101726460Y-91131906D01*
X101721595Y-91099533D01*
X101718394Y-91066946D01*
X101716885Y-91034211D01*
X101716901Y-91031700D01*
X102161501Y-91031700D01*
X102162108Y-91049149D01*
X102163893Y-91065976D01*
X102166803Y-91082160D01*
X102170787Y-91097678D01*
X102175792Y-91112509D01*
X102181765Y-91126631D01*
X102188655Y-91140022D01*
X102196409Y-91152662D01*
X102204974Y-91164528D01*
X102214298Y-91175598D01*
X102224329Y-91185851D01*
X102235014Y-91195265D01*
X102246302Y-91203819D01*
X102258139Y-91211491D01*
X102270473Y-91218258D01*
X102283251Y-91224100D01*
X102296422Y-91228995D01*
X102309934Y-91232921D01*
X102323733Y-91235857D01*
X102337767Y-91237780D01*
X102351984Y-91238669D01*
X102366331Y-91238503D01*
X102380757Y-91237260D01*
X102395208Y-91234917D01*
X102409633Y-91231454D01*
X102423978Y-91226849D01*
X102438193Y-91221079D01*
X102452223Y-91214124D01*
X102466017Y-91205962D01*
X102479523Y-91196571D01*
X102492688Y-91185929D01*
X102505459Y-91174014D01*
X102514175Y-91164907D01*
X102522274Y-91155643D01*
X102529757Y-91146234D01*
X102536625Y-91136694D01*
X102542879Y-91127034D01*
X102548519Y-91117266D01*
X102553547Y-91107405D01*
X102557963Y-91097460D01*
X102561768Y-91087446D01*
X102564964Y-91077375D01*
X102567551Y-91067258D01*
X102569530Y-91057109D01*
X102570903Y-91046939D01*
X102571669Y-91036761D01*
X102571830Y-91026588D01*
X102571386Y-91016432D01*
X102570340Y-91006305D01*
X102568690Y-90996220D01*
X102566440Y-90986188D01*
X102563589Y-90976224D01*
X102560138Y-90966338D01*
X102556088Y-90956544D01*
X102551440Y-90946853D01*
X102546196Y-90937278D01*
X102540355Y-90927832D01*
X102533919Y-90918527D01*
X102526889Y-90909375D01*
X102519266Y-90900389D01*
X102511050Y-90891581D01*
X102502243Y-90882963D01*
X102492845Y-90874549D01*
X102482857Y-90866349D01*
X102469180Y-90856255D01*
X102455358Y-90847341D01*
X102441427Y-90839588D01*
X102427426Y-90832976D01*
X102413393Y-90827486D01*
X102399367Y-90823098D01*
X102385385Y-90819792D01*
X102371485Y-90817549D01*
X102357706Y-90816350D01*
X102344085Y-90816174D01*
X102330660Y-90817003D01*
X102317470Y-90818816D01*
X102304552Y-90821594D01*
X102291945Y-90825318D01*
X102279686Y-90829967D01*
X102267815Y-90835523D01*
X102256368Y-90841966D01*
X102245383Y-90849275D01*
X102234900Y-90857433D01*
X102224955Y-90866418D01*
X102215587Y-90876212D01*
X102206835Y-90886794D01*
X102198735Y-90898146D01*
X102191326Y-90910248D01*
X102184647Y-90923079D01*
X102178734Y-90936622D01*
X102173627Y-90950855D01*
X102169363Y-90965759D01*
X102165981Y-90981316D01*
X102163518Y-90997504D01*
X102162012Y-91014305D01*
X102161501Y-91031700D01*
X101716901Y-91031700D01*
X101717091Y-91001389D01*
X101719039Y-90968544D01*
X101722752Y-90935741D01*
X101728255Y-90903043D01*
X101735575Y-90870512D01*
X101744736Y-90838213D01*
X101755762Y-90806210D01*
X101768679Y-90774566D01*
X101783512Y-90743344D01*
X101852672Y-90607688D01*
X100932452Y-89686996D01*
X100012234Y-88766305D01*
X87480775Y-88766305D01*
X87284134Y-89118861D01*
X87182201Y-89297707D01*
X87081594Y-89465933D01*
X86981425Y-89624498D01*
X86880804Y-89774361D01*
X86778844Y-89916480D01*
X86674654Y-90051813D01*
X86567347Y-90181319D01*
X86456033Y-90305957D01*
X86339825Y-90426684D01*
X86217832Y-90544460D01*
X86089167Y-90660243D01*
X85952940Y-90774991D01*
X85808263Y-90889662D01*
X85654246Y-91005216D01*
X85490003Y-91122611D01*
X85314642Y-91242805D01*
X85135697Y-91363190D01*
X85135628Y-92610038D01*
X85137334Y-93262766D01*
X85140059Y-93481536D01*
X85144523Y-93640492D01*
X85151096Y-93748570D01*
X85160147Y-93814704D01*
X85165716Y-93834835D01*
X85172043Y-93847832D01*
X85179174Y-93854811D01*
X85187155Y-93856889D01*
X85189975Y-93857064D01*
X85193106Y-93857584D01*
X85196536Y-93858439D01*
X85200254Y-93859623D01*
X85208503Y-93862937D01*
X85217758Y-93867458D01*
X85227925Y-93873117D01*
X85238908Y-93879846D01*
X85250613Y-93887575D01*
X85262943Y-93896237D01*
X85275804Y-93905762D01*
X85289100Y-93916081D01*
X85302738Y-93927127D01*
X85316620Y-93938830D01*
X85330654Y-93951121D01*
X85344742Y-93963933D01*
X85358790Y-93977196D01*
X85372703Y-93990842D01*
X85392189Y-94011121D01*
X85410633Y-94031933D01*
X85428033Y-94053260D01*
X85444386Y-94075081D01*
X85459691Y-94097378D01*
X85473945Y-94120131D01*
X85487145Y-94143321D01*
X85499291Y-94166929D01*
X85510378Y-94190935D01*
X85520406Y-94215320D01*
X85529372Y-94240065D01*
X85537273Y-94265151D01*
X85544107Y-94290558D01*
X85549873Y-94316267D01*
X85554567Y-94342258D01*
X85558188Y-94368513D01*
X85560734Y-94395011D01*
X85562201Y-94421735D01*
X85562588Y-94448664D01*
X85561893Y-94475779D01*
X85560113Y-94503061D01*
X85557246Y-94530491D01*
X85553290Y-94558049D01*
X85548242Y-94585716D01*
X85542100Y-94613472D01*
X85534863Y-94641299D01*
X85517091Y-94697088D01*
X85494909Y-94752926D01*
X85468297Y-94808660D01*
X85455882Y-94831069D01*
X85442244Y-94852796D01*
X85427432Y-94873825D01*
X85411498Y-94894135D01*
X85394490Y-94913707D01*
X85376460Y-94932524D01*
X85357455Y-94950566D01*
X85337527Y-94967813D01*
X85316726Y-94984249D01*
X85295101Y-94999852D01*
X85272702Y-95014605D01*
X85249580Y-95028489D01*
X85225783Y-95041485D01*
X85201362Y-95053573D01*
X85176367Y-95064736D01*
X85150848Y-95074954D01*
X85124855Y-95084208D01*
X85098437Y-95092480D01*
X85071645Y-95099750D01*
X85044528Y-95106001D01*
X85017137Y-95111212D01*
X84989521Y-95115365D01*
X84961729Y-95118441D01*
X84933813Y-95120421D01*
X84905822Y-95121287D01*
X84877806Y-95121020D01*
X84849815Y-95119600D01*
X84821898Y-95117009D01*
X84794106Y-95113227D01*
X84766488Y-95108237D01*
X84739095Y-95102019D01*
X84711976Y-95094555D01*
X84711979Y-95094559D01*
X84682178Y-95084486D01*
X84652418Y-95072217D01*
X84622823Y-95057865D01*
X84593516Y-95041539D01*
X84564620Y-95023350D01*
X84536258Y-95003410D01*
X84508554Y-94981829D01*
X84481631Y-94958719D01*
X84455611Y-94934189D01*
X84430619Y-94908351D01*
X84406777Y-94881316D01*
X84384208Y-94853194D01*
X84363036Y-94824097D01*
X84343384Y-94794135D01*
X84325375Y-94763419D01*
X84309133Y-94732060D01*
X84296734Y-94704589D01*
X84285845Y-94676587D01*
X84276448Y-94648112D01*
X84268524Y-94619226D01*
X84262055Y-94589988D01*
X84257022Y-94560457D01*
X84253408Y-94530692D01*
X84251193Y-94500755D01*
X84250359Y-94470704D01*
X84250568Y-94458817D01*
X84688419Y-94458817D01*
X84688747Y-94469171D01*
X84689717Y-94479519D01*
X84691308Y-94489841D01*
X84693498Y-94500117D01*
X84696267Y-94510323D01*
X84699592Y-94520440D01*
X84703453Y-94530446D01*
X84707829Y-94540319D01*
X84712698Y-94550039D01*
X84718040Y-94559585D01*
X84723832Y-94568934D01*
X84730053Y-94578066D01*
X84736683Y-94586960D01*
X84743700Y-94595594D01*
X84751083Y-94603947D01*
X84758811Y-94611998D01*
X84766862Y-94619726D01*
X84775215Y-94627109D01*
X84783849Y-94634126D01*
X84792743Y-94640755D01*
X84801875Y-94646977D01*
X84811225Y-94652769D01*
X84820770Y-94658110D01*
X84830490Y-94662979D01*
X84840364Y-94667355D01*
X84850369Y-94671216D01*
X84860486Y-94674542D01*
X84870693Y-94677311D01*
X84880968Y-94679501D01*
X84891291Y-94681091D01*
X84901639Y-94682062D01*
X84911992Y-94682390D01*
X84921109Y-94682033D01*
X84930670Y-94680986D01*
X84940596Y-94679283D01*
X84950808Y-94676961D01*
X84961227Y-94674055D01*
X84971773Y-94670600D01*
X84982367Y-94666630D01*
X84992930Y-94662182D01*
X85003381Y-94657291D01*
X85013643Y-94651991D01*
X85023635Y-94646319D01*
X85033278Y-94640309D01*
X85042492Y-94633996D01*
X85051199Y-94627417D01*
X85059319Y-94620606D01*
X85066773Y-94613599D01*
X85078860Y-94600527D01*
X85089595Y-94586899D01*
X85099003Y-94572777D01*
X85107110Y-94558227D01*
X85113943Y-94543310D01*
X85119528Y-94528093D01*
X85123891Y-94512637D01*
X85127058Y-94497006D01*
X85129054Y-94481265D01*
X85129907Y-94465477D01*
X85129641Y-94449706D01*
X85128284Y-94434016D01*
X85125861Y-94418469D01*
X85122398Y-94403131D01*
X85117922Y-94388064D01*
X85112458Y-94373333D01*
X85106032Y-94359001D01*
X85098671Y-94345132D01*
X85090401Y-94331789D01*
X85081247Y-94319037D01*
X85071236Y-94306938D01*
X85060394Y-94295558D01*
X85048747Y-94284958D01*
X85036320Y-94275204D01*
X85023141Y-94266359D01*
X85009235Y-94258487D01*
X84994628Y-94251651D01*
X84979346Y-94245914D01*
X84963416Y-94241342D01*
X84946862Y-94237997D01*
X84929713Y-94235943D01*
X84911992Y-94235245D01*
X84901639Y-94235573D01*
X84891291Y-94236543D01*
X84880968Y-94238134D01*
X84870693Y-94240324D01*
X84860486Y-94243092D01*
X84850369Y-94246418D01*
X84840364Y-94250279D01*
X84830490Y-94254655D01*
X84820770Y-94259524D01*
X84811225Y-94264865D01*
X84801875Y-94270657D01*
X84792743Y-94276879D01*
X84783849Y-94283509D01*
X84775215Y-94290526D01*
X84766862Y-94297909D01*
X84758811Y-94305636D01*
X84751083Y-94313687D01*
X84743700Y-94322040D01*
X84736683Y-94330674D01*
X84730053Y-94339568D01*
X84723832Y-94348700D01*
X84718040Y-94358050D01*
X84712698Y-94367595D01*
X84707829Y-94377315D01*
X84703453Y-94387189D01*
X84699592Y-94397194D01*
X84696267Y-94407311D01*
X84693498Y-94417518D01*
X84691308Y-94427793D01*
X84689717Y-94438115D01*
X84688747Y-94448464D01*
X84688419Y-94458817D01*
X84250568Y-94458817D01*
X84250889Y-94440600D01*
X84255963Y-94380467D01*
X84266267Y-94320836D01*
X84281655Y-94262184D01*
X84301979Y-94204988D01*
X84327092Y-94149726D01*
X84356847Y-94096876D01*
X84391096Y-94046915D01*
X84409860Y-94023167D01*
X84429692Y-94000320D01*
X84450575Y-93978435D01*
X84472489Y-93957571D01*
X84495416Y-93937787D01*
X84519338Y-93919143D01*
X84544236Y-93901699D01*
X84570093Y-93885515D01*
X84688419Y-93815700D01*
X84689182Y-92503455D01*
X84691291Y-91793587D01*
X84694302Y-91558966D01*
X84699300Y-91388879D01*
X84706795Y-91271569D01*
X84717299Y-91195281D01*
X84731322Y-91148257D01*
X84749375Y-91118742D01*
X84757621Y-91109886D01*
X84769937Y-91098389D01*
X84786075Y-91084434D01*
X84805790Y-91068202D01*
X84854957Y-91029641D01*
X84915463Y-90984168D01*
X84985330Y-90933245D01*
X85062581Y-90878333D01*
X85145240Y-90820895D01*
X85231330Y-90762390D01*
X85370335Y-90666638D01*
X85502175Y-90570813D01*
X85627383Y-90474313D01*
X85746494Y-90376537D01*
X85860040Y-90276881D01*
X85968555Y-90174742D01*
X86072574Y-90069518D01*
X86172629Y-89960607D01*
X86269254Y-89847405D01*
X86362983Y-89729311D01*
X86454350Y-89605721D01*
X86543888Y-89476032D01*
X86632130Y-89339644D01*
X86719611Y-89195951D01*
X86806864Y-89044353D01*
X86894422Y-88884246D01*
X86943305Y-88794038D01*
X86991175Y-88708185D01*
X87036824Y-88628688D01*
X87079041Y-88557547D01*
X87116616Y-88496763D01*
X87148339Y-88448335D01*
X87173001Y-88414265D01*
X87182306Y-88403238D01*
X87189393Y-88396552D01*
X87213942Y-88390461D01*
X87272928Y-88384942D01*
X87508619Y-88375528D01*
X87925295Y-88368126D01*
X88551787Y-88362554D01*
X90549534Y-88356161D01*
X93732496Y-88354881D01*
X100218135Y-88356206D01*
G37*
G36*
X100605276Y-90563689D02*
G01*
X101783147Y-91741929D01*
X101783147Y-92335074D01*
X101783751Y-92463415D01*
X101785515Y-92578886D01*
X101788365Y-92680179D01*
X101792228Y-92765986D01*
X101797030Y-92835001D01*
X101802700Y-92885916D01*
X101805837Y-92904177D01*
X101809164Y-92917424D01*
X101812670Y-92925491D01*
X101816347Y-92928217D01*
X101823199Y-92928875D01*
X101830888Y-92930810D01*
X101839356Y-92933963D01*
X101848547Y-92938274D01*
X101858402Y-92943684D01*
X101868864Y-92950135D01*
X101891381Y-92965920D01*
X101915640Y-92985156D01*
X101941181Y-93007369D01*
X101967545Y-93032085D01*
X101994273Y-93058832D01*
X102020907Y-93087135D01*
X102046987Y-93116521D01*
X102072055Y-93146518D01*
X102095651Y-93176651D01*
X102117317Y-93206446D01*
X102136594Y-93235432D01*
X102153023Y-93263133D01*
X102166145Y-93289077D01*
X102183562Y-93330973D01*
X102197926Y-93373092D01*
X102209303Y-93415332D01*
X102217761Y-93457593D01*
X102223367Y-93499771D01*
X102226187Y-93541765D01*
X102226290Y-93583473D01*
X102223743Y-93624793D01*
X102218612Y-93665624D01*
X102210964Y-93705862D01*
X102200868Y-93745408D01*
X102188390Y-93784158D01*
X102173597Y-93822011D01*
X102156556Y-93858865D01*
X102137336Y-93894618D01*
X102116002Y-93929168D01*
X102092622Y-93962413D01*
X102067264Y-93994252D01*
X102039994Y-94024583D01*
X102010880Y-94053303D01*
X101979989Y-94080311D01*
X101947387Y-94105505D01*
X101913143Y-94128783D01*
X101877324Y-94150043D01*
X101839996Y-94169183D01*
X101801227Y-94186102D01*
X101761083Y-94200698D01*
X101719633Y-94212868D01*
X101676944Y-94222511D01*
X101633082Y-94229525D01*
X101588114Y-94233808D01*
X101542109Y-94235259D01*
X101527157Y-94234910D01*
X101511283Y-94233885D01*
X101494624Y-94232221D01*
X101477321Y-94229950D01*
X101459513Y-94227107D01*
X101441339Y-94223727D01*
X101422939Y-94219845D01*
X101404452Y-94215494D01*
X101386018Y-94210710D01*
X101367776Y-94205527D01*
X101349866Y-94199979D01*
X101332426Y-94194101D01*
X101315597Y-94187927D01*
X101299517Y-94181492D01*
X101284327Y-94174831D01*
X101270165Y-94167978D01*
X101227512Y-94144408D01*
X101187412Y-94118614D01*
X101149872Y-94090733D01*
X101114900Y-94060905D01*
X101082503Y-94029269D01*
X101052688Y-93995964D01*
X101025463Y-93961129D01*
X101000835Y-93924903D01*
X100978811Y-93887426D01*
X100959400Y-93848835D01*
X100942607Y-93809272D01*
X100928442Y-93768873D01*
X100916911Y-93727780D01*
X100908021Y-93686130D01*
X100901780Y-93644062D01*
X100898195Y-93601717D01*
X100897857Y-93586131D01*
X101345632Y-93586131D01*
X101346973Y-93604271D01*
X101349892Y-93621876D01*
X101354316Y-93638887D01*
X101360174Y-93655247D01*
X101367394Y-93670899D01*
X101375905Y-93685786D01*
X101385634Y-93699849D01*
X101396510Y-93713033D01*
X101408461Y-93725280D01*
X101421416Y-93736532D01*
X101435303Y-93746732D01*
X101450050Y-93755822D01*
X101465586Y-93763747D01*
X101481838Y-93770448D01*
X101498737Y-93775867D01*
X101516208Y-93779949D01*
X101534182Y-93782635D01*
X101552585Y-93783868D01*
X101571347Y-93783590D01*
X101590397Y-93781746D01*
X101609661Y-93778276D01*
X101629069Y-93773125D01*
X101648548Y-93766234D01*
X101668028Y-93757547D01*
X101687437Y-93747006D01*
X101706702Y-93734554D01*
X101720583Y-93723825D01*
X101733040Y-93712149D01*
X101744101Y-93699611D01*
X101753793Y-93686296D01*
X101762144Y-93672288D01*
X101769179Y-93657672D01*
X101774927Y-93642533D01*
X101779416Y-93626954D01*
X101782671Y-93611022D01*
X101784721Y-93594819D01*
X101785593Y-93578432D01*
X101785314Y-93561945D01*
X101783911Y-93545442D01*
X101781412Y-93529008D01*
X101777844Y-93512727D01*
X101773234Y-93496685D01*
X101767609Y-93480966D01*
X101760997Y-93465654D01*
X101753425Y-93450834D01*
X101744921Y-93436591D01*
X101735511Y-93423010D01*
X101725222Y-93410175D01*
X101714083Y-93398170D01*
X101702120Y-93387081D01*
X101689361Y-93376992D01*
X101675832Y-93367988D01*
X101661562Y-93360153D01*
X101646577Y-93353571D01*
X101630905Y-93348329D01*
X101614573Y-93344509D01*
X101597608Y-93342198D01*
X101580038Y-93341479D01*
X101560365Y-93341925D01*
X101542108Y-93343062D01*
X101525158Y-93344958D01*
X101509408Y-93347681D01*
X101494750Y-93351296D01*
X101487797Y-93353460D01*
X101481076Y-93355872D01*
X101474574Y-93358541D01*
X101468278Y-93361475D01*
X101462174Y-93364683D01*
X101456248Y-93368173D01*
X101450488Y-93371954D01*
X101444879Y-93376033D01*
X101439408Y-93380420D01*
X101434062Y-93385122D01*
X101423689Y-93395508D01*
X101413652Y-93407257D01*
X101403845Y-93420436D01*
X101394157Y-93435114D01*
X101384483Y-93451357D01*
X101374713Y-93469231D01*
X101365087Y-93489387D01*
X101357469Y-93509350D01*
X101351785Y-93529063D01*
X101347966Y-93548469D01*
X101345939Y-93567511D01*
X101345632Y-93586131D01*
X100897857Y-93586131D01*
X100897274Y-93559232D01*
X100899024Y-93516748D01*
X100903453Y-93474402D01*
X100910567Y-93432335D01*
X100920374Y-93390685D01*
X100932882Y-93349591D01*
X100948098Y-93309192D01*
X100966030Y-93269628D01*
X100986684Y-93231038D01*
X101010068Y-93193560D01*
X101036190Y-93157334D01*
X101065057Y-93122498D01*
X101096676Y-93089193D01*
X101131055Y-93057556D01*
X101168201Y-93027728D01*
X101208121Y-92999846D01*
X101336002Y-92916690D01*
X101336002Y-91913123D01*
X100278126Y-90855661D01*
X99220249Y-89798195D01*
X88416301Y-89798195D01*
X88174682Y-90064761D01*
X87810386Y-90473317D01*
X87273823Y-91081261D01*
X86614585Y-91831191D01*
X86614585Y-94643459D01*
X86760767Y-94740558D01*
X86777298Y-94752007D01*
X86793779Y-94764342D01*
X86810147Y-94777491D01*
X86826341Y-94791386D01*
X86842296Y-94805957D01*
X86857952Y-94821133D01*
X86873247Y-94836846D01*
X86888117Y-94853025D01*
X86902501Y-94869602D01*
X86916336Y-94886505D01*
X86929560Y-94903666D01*
X86942111Y-94921014D01*
X86953927Y-94938481D01*
X86964945Y-94955996D01*
X86975103Y-94973489D01*
X86984339Y-94990892D01*
X87008450Y-95043793D01*
X87027559Y-95096785D01*
X87041836Y-95149696D01*
X87051447Y-95202357D01*
X87056560Y-95254596D01*
X87057344Y-95306243D01*
X87053965Y-95357127D01*
X87046592Y-95407078D01*
X87035392Y-95455926D01*
X87020533Y-95503500D01*
X87002183Y-95549629D01*
X86980509Y-95594143D01*
X86955679Y-95636872D01*
X86927860Y-95677644D01*
X86897221Y-95716290D01*
X86863929Y-95752639D01*
X86828152Y-95786520D01*
X86790057Y-95817762D01*
X86749812Y-95846196D01*
X86707586Y-95871651D01*
X86663545Y-95893956D01*
X86617857Y-95912941D01*
X86570690Y-95928435D01*
X86522212Y-95940268D01*
X86472590Y-95948269D01*
X86421992Y-95952268D01*
X86370586Y-95952093D01*
X86318540Y-95947576D01*
X86266020Y-95938545D01*
X86213196Y-95924829D01*
X86160234Y-95906258D01*
X86107303Y-95882662D01*
X86107303Y-95882650D01*
X86080207Y-95868625D01*
X86054063Y-95853855D01*
X86028881Y-95838356D01*
X86004667Y-95822144D01*
X85981430Y-95805238D01*
X85959178Y-95787652D01*
X85937920Y-95769405D01*
X85917662Y-95750512D01*
X85898413Y-95730991D01*
X85880181Y-95710858D01*
X85862975Y-95690129D01*
X85846801Y-95668823D01*
X85831669Y-95646954D01*
X85817586Y-95624540D01*
X85804561Y-95601598D01*
X85792601Y-95578144D01*
X85781714Y-95554196D01*
X85771909Y-95529768D01*
X85763194Y-95504880D01*
X85755576Y-95479546D01*
X85749064Y-95453784D01*
X85743665Y-95427611D01*
X85739388Y-95401043D01*
X85736241Y-95374097D01*
X85734232Y-95346790D01*
X85733369Y-95319137D01*
X85733659Y-95291157D01*
X85734010Y-95284316D01*
X86167439Y-95284316D01*
X86167767Y-95294669D01*
X86168737Y-95305018D01*
X86170328Y-95315341D01*
X86172518Y-95325616D01*
X86175286Y-95335823D01*
X86178612Y-95345940D01*
X86182473Y-95355946D01*
X86186849Y-95365819D01*
X86191718Y-95375539D01*
X86197059Y-95385085D01*
X86202851Y-95394434D01*
X86209073Y-95403567D01*
X86215703Y-95412460D01*
X86222720Y-95421094D01*
X86230103Y-95429448D01*
X86237831Y-95437499D01*
X86245882Y-95445226D01*
X86254235Y-95452609D01*
X86262869Y-95459626D01*
X86271763Y-95466256D01*
X86280895Y-95472478D01*
X86290244Y-95478270D01*
X86299789Y-95483611D01*
X86309509Y-95488480D01*
X86319383Y-95492856D01*
X86329389Y-95496717D01*
X86339505Y-95500043D01*
X86349712Y-95502811D01*
X86359987Y-95505002D01*
X86370309Y-95506592D01*
X86380658Y-95507562D01*
X86391011Y-95507890D01*
X86400128Y-95507533D01*
X86409689Y-95506486D01*
X86419615Y-95504784D01*
X86429828Y-95502462D01*
X86440247Y-95499556D01*
X86450793Y-95496100D01*
X86461387Y-95492131D01*
X86471949Y-95487683D01*
X86482401Y-95482791D01*
X86492662Y-95477491D01*
X86502654Y-95471819D01*
X86512297Y-95465809D01*
X86521512Y-95459496D01*
X86530219Y-95452917D01*
X86538339Y-95446105D01*
X86545793Y-95439098D01*
X86557880Y-95426026D01*
X86568614Y-95412398D01*
X86578022Y-95398277D01*
X86586130Y-95383726D01*
X86592963Y-95368810D01*
X86598548Y-95353592D01*
X86602911Y-95338136D01*
X86606077Y-95322506D01*
X86608074Y-95306765D01*
X86608927Y-95290977D01*
X86608661Y-95275206D01*
X86607304Y-95259515D01*
X86604881Y-95243969D01*
X86601418Y-95228631D01*
X86596942Y-95213564D01*
X86591478Y-95198833D01*
X86585052Y-95184500D01*
X86577691Y-95170631D01*
X86569421Y-95157288D01*
X86560267Y-95144536D01*
X86550256Y-95132438D01*
X86539414Y-95121057D01*
X86527766Y-95110458D01*
X86515340Y-95100703D01*
X86502160Y-95091858D01*
X86488254Y-95083986D01*
X86473647Y-95077149D01*
X86458365Y-95071413D01*
X86442435Y-95066841D01*
X86425881Y-95063496D01*
X86408731Y-95061442D01*
X86391011Y-95060744D01*
X86380658Y-95061072D01*
X86370309Y-95062042D01*
X86359987Y-95063632D01*
X86349712Y-95065823D01*
X86339505Y-95068591D01*
X86329389Y-95071917D01*
X86319383Y-95075778D01*
X86309509Y-95080154D01*
X86299789Y-95085023D01*
X86290244Y-95090364D01*
X86280895Y-95096156D01*
X86271763Y-95102378D01*
X86262869Y-95109008D01*
X86254235Y-95116025D01*
X86245882Y-95123408D01*
X86237831Y-95131135D01*
X86230103Y-95139186D01*
X86222720Y-95147539D01*
X86215703Y-95156173D01*
X86209073Y-95165067D01*
X86202851Y-95174199D01*
X86197059Y-95183548D01*
X86191718Y-95193094D01*
X86186849Y-95202814D01*
X86182473Y-95212687D01*
X86178612Y-95222693D01*
X86175286Y-95232810D01*
X86172518Y-95243017D01*
X86170328Y-95253292D01*
X86168737Y-95263614D01*
X86167767Y-95273963D01*
X86167439Y-95284316D01*
X85734010Y-95284316D01*
X85735112Y-95262866D01*
X85737734Y-95234280D01*
X85741535Y-95205416D01*
X85746522Y-95176291D01*
X85752703Y-95146921D01*
X85761238Y-95112763D01*
X85770828Y-95080072D01*
X85781544Y-95048748D01*
X85793458Y-95018690D01*
X85806639Y-94989799D01*
X85821160Y-94961974D01*
X85837090Y-94935116D01*
X85854503Y-94909125D01*
X85873467Y-94883900D01*
X85894055Y-94859341D01*
X85916337Y-94835349D01*
X85940385Y-94811823D01*
X85966270Y-94788664D01*
X85994062Y-94765770D01*
X86023832Y-94743043D01*
X86055653Y-94720382D01*
X86167439Y-94643310D01*
X86167439Y-91700275D01*
X86265898Y-91566129D01*
X86316889Y-91501744D01*
X86406406Y-91395307D01*
X86536201Y-91244823D01*
X86708024Y-91048298D01*
X87184766Y-90509149D01*
X87850648Y-89761903D01*
X87966205Y-89633766D01*
X88066333Y-89525037D01*
X88140307Y-89447204D01*
X88164137Y-89423465D01*
X88177408Y-89411758D01*
X88634017Y-89401904D01*
X89850215Y-89393756D01*
X93820699Y-89385961D01*
X99427407Y-89385445D01*
X100605276Y-90563689D01*
G37*
D11*
X104680882Y-99610390D02*
X104891136Y-99692935D01*
X104891136Y-99692935D02*
X105247789Y-99711627D01*
X105247789Y-99711627D02*
X105394189Y-99647773D01*
X105394189Y-99647773D02*
X105469258Y-99580180D01*
X105469258Y-99580180D02*
X105548065Y-99441257D01*
X105548065Y-99441257D02*
X105555541Y-99298596D01*
X105555541Y-99298596D02*
X105491687Y-99152196D01*
X105491687Y-99152196D02*
X105424095Y-99077127D01*
X105424095Y-99077127D02*
X105285172Y-98998320D01*
X105285172Y-98998320D02*
X105003587Y-98912036D01*
X105003587Y-98912036D02*
X104864664Y-98833229D01*
X104864664Y-98833229D02*
X104797072Y-98758160D01*
X104797072Y-98758160D02*
X104733218Y-98611760D01*
X104733218Y-98611760D02*
X104740694Y-98469099D01*
X104740694Y-98469099D02*
X104819502Y-98330176D01*
X104819502Y-98330176D02*
X104894571Y-98262584D01*
X104894571Y-98262584D02*
X105040970Y-98198729D01*
X105040970Y-98198729D02*
X105397624Y-98217421D01*
X105397624Y-98217421D02*
X105607877Y-98299966D01*
X106216209Y-98975587D02*
X106715523Y-99001755D01*
X106888394Y-99797607D02*
X106175087Y-99760225D01*
X106175087Y-99760225D02*
X106253591Y-98262280D01*
X106253591Y-98262280D02*
X106966898Y-98299663D01*
X107571492Y-99046614D02*
X108070806Y-99072782D01*
X108243677Y-99868635D02*
X107530371Y-99831252D01*
X107530371Y-99831252D02*
X107608874Y-98333308D01*
X107608874Y-98333308D02*
X108322181Y-98370690D01*
X108885654Y-99902279D02*
X108964158Y-98404335D01*
X108964158Y-98404335D02*
X109320811Y-98423026D01*
X109320811Y-98423026D02*
X109531065Y-98505572D01*
X109531065Y-98505572D02*
X109666250Y-98655710D01*
X109666250Y-98655710D02*
X109730104Y-98802109D01*
X109730104Y-98802109D02*
X109786481Y-99091170D01*
X109786481Y-99091170D02*
X109775266Y-99305163D01*
X109775266Y-99305163D02*
X109688983Y-99586747D01*
X109688983Y-99586747D02*
X109610175Y-99725670D01*
X109610175Y-99725670D02*
X109460037Y-99860855D01*
X109460037Y-99860855D02*
X109242307Y-99920971D01*
X109242307Y-99920971D02*
X108885654Y-99902279D01*
X111460731Y-98535175D02*
X112380857Y-100085455D01*
X112459361Y-98587511D02*
X111382227Y-100033119D01*
X112951502Y-100115361D02*
X113030006Y-98617417D01*
X113615908Y-99721022D02*
X114329215Y-99758405D01*
X113450817Y-100141529D02*
X114028636Y-98669753D01*
X114028636Y-98669753D02*
X114449446Y-100193865D01*
X115312588Y-98737042D02*
X115597910Y-98751995D01*
X115597910Y-98751995D02*
X115736833Y-98830802D01*
X115736833Y-98830802D02*
X115872018Y-98980940D01*
X115872018Y-98980940D02*
X115928396Y-99270001D01*
X115928396Y-99270001D02*
X115902228Y-99769316D01*
X115902228Y-99769316D02*
X115815944Y-100050901D01*
X115815944Y-100050901D02*
X115665806Y-100186085D01*
X115665806Y-100186085D02*
X115519406Y-100249940D01*
X115519406Y-100249940D02*
X115234084Y-100234986D01*
X115234084Y-100234986D02*
X115095161Y-100156179D01*
X115095161Y-100156179D02*
X114959976Y-100006041D01*
X114959976Y-100006041D02*
X114903598Y-99716980D01*
X114903598Y-99716980D02*
X114929766Y-99217665D01*
X114929766Y-99217665D02*
X115016050Y-98936081D01*
X115016050Y-98936081D02*
X115166188Y-98800896D01*
X115166188Y-98800896D02*
X115312588Y-98737042D01*
X106925284Y-72834738D02*
X107003788Y-71336794D01*
X107003788Y-71336794D02*
X107447029Y-72432922D01*
X107447029Y-72432922D02*
X108002418Y-71389130D01*
X108002418Y-71389130D02*
X107923914Y-72887074D01*
X108637221Y-72924457D02*
X108715725Y-71426512D01*
X108715725Y-71426512D02*
X109286370Y-71456419D01*
X109286370Y-71456419D02*
X109425293Y-71535226D01*
X109425293Y-71535226D02*
X109492886Y-71610295D01*
X109492886Y-71610295D02*
X109556740Y-71756694D01*
X109556740Y-71756694D02*
X109545525Y-71970687D01*
X109545525Y-71970687D02*
X109466718Y-72109610D01*
X109466718Y-72109610D02*
X109391649Y-72177202D01*
X109391649Y-72177202D02*
X109245249Y-72241056D01*
X109245249Y-72241056D02*
X108674604Y-72211150D01*
X110213669Y-71505016D02*
X110150118Y-72717638D01*
X110150118Y-72717638D02*
X110213972Y-72864038D01*
X110213972Y-72864038D02*
X110281565Y-72939107D01*
X110281565Y-72939107D02*
X110420488Y-73017914D01*
X110420488Y-73017914D02*
X110705811Y-73032867D01*
X110705811Y-73032867D02*
X110852210Y-72969013D01*
X110852210Y-72969013D02*
X110927279Y-72901420D01*
X110927279Y-72901420D02*
X111006086Y-72762497D01*
X111006086Y-72762497D02*
X111069637Y-71549876D01*
X112424921Y-71620903D02*
X112139598Y-71605950D01*
X112139598Y-71605950D02*
X111993198Y-71669804D01*
X111993198Y-71669804D02*
X111918129Y-71737396D01*
X111918129Y-71737396D02*
X111764253Y-71943912D01*
X111764253Y-71943912D02*
X111677969Y-72225496D01*
X111677969Y-72225496D02*
X111648063Y-72796142D01*
X111648063Y-72796142D02*
X111711917Y-72942541D01*
X111711917Y-72942541D02*
X111779510Y-73017610D01*
X111779510Y-73017610D02*
X111918433Y-73096418D01*
X111918433Y-73096418D02*
X112203755Y-73111371D01*
X112203755Y-73111371D02*
X112350155Y-73047517D01*
X112350155Y-73047517D02*
X112425224Y-72979924D01*
X112425224Y-72979924D02*
X112504031Y-72841001D01*
X112504031Y-72841001D02*
X112522723Y-72484348D01*
X112522723Y-72484348D02*
X112458869Y-72337948D01*
X112458869Y-72337948D02*
X112391276Y-72262879D01*
X112391276Y-72262879D02*
X112252353Y-72184072D01*
X112252353Y-72184072D02*
X111967030Y-72169119D01*
X111967030Y-72169119D02*
X111820631Y-72232973D01*
X111820631Y-72232973D02*
X111745562Y-72300565D01*
X111745562Y-72300565D02*
X111666754Y-72439488D01*
X113494880Y-71676977D02*
X113637542Y-71684454D01*
X113637542Y-71684454D02*
X113776465Y-71763261D01*
X113776465Y-71763261D02*
X113844057Y-71838330D01*
X113844057Y-71838330D02*
X113907911Y-71984730D01*
X113907911Y-71984730D02*
X113964289Y-72273791D01*
X113964289Y-72273791D02*
X113945598Y-72630444D01*
X113945598Y-72630444D02*
X113859314Y-72912029D01*
X113859314Y-72912029D02*
X113780506Y-73050952D01*
X113780506Y-73050952D02*
X113705438Y-73118544D01*
X113705438Y-73118544D02*
X113559038Y-73182398D01*
X113559038Y-73182398D02*
X113416377Y-73174922D01*
X113416377Y-73174922D02*
X113277453Y-73096114D01*
X113277453Y-73096114D02*
X113209861Y-73021045D01*
X113209861Y-73021045D02*
X113146007Y-72874646D01*
X113146007Y-72874646D02*
X113089629Y-72585585D01*
X113089629Y-72585585D02*
X113108321Y-72228931D01*
X113108321Y-72228931D02*
X113194605Y-71947347D01*
X113194605Y-71947347D02*
X113273412Y-71808424D01*
X113273412Y-71808424D02*
X113348481Y-71740831D01*
X113348481Y-71740831D02*
X113494880Y-71676977D01*
X115349478Y-71774173D02*
X114636171Y-71736790D01*
X114636171Y-71736790D02*
X114527457Y-72446358D01*
X114527457Y-72446358D02*
X114602526Y-72378766D01*
X114602526Y-72378766D02*
X114748926Y-72314912D01*
X114748926Y-72314912D02*
X115105579Y-72333603D01*
X115105579Y-72333603D02*
X115244502Y-72412410D01*
X115244502Y-72412410D02*
X115312095Y-72487479D01*
X115312095Y-72487479D02*
X115375949Y-72633879D01*
X115375949Y-72633879D02*
X115357258Y-72990532D01*
X115357258Y-72990532D02*
X115278450Y-73129456D01*
X115278450Y-73129456D02*
X115203381Y-73197048D01*
X115203381Y-73197048D02*
X115056982Y-73260902D01*
X115056982Y-73260902D02*
X114700328Y-73242211D01*
X114700328Y-73242211D02*
X114561405Y-73163403D01*
X114561405Y-73163403D02*
X114493813Y-73088334D01*
X116348107Y-71826509D02*
X116490768Y-71833985D01*
X116490768Y-71833985D02*
X116629691Y-71912792D01*
X116629691Y-71912792D02*
X116697284Y-71987861D01*
X116697284Y-71987861D02*
X116761138Y-72134261D01*
X116761138Y-72134261D02*
X116817515Y-72423322D01*
X116817515Y-72423322D02*
X116798824Y-72779975D01*
X116798824Y-72779975D02*
X116712540Y-73061560D01*
X116712540Y-73061560D02*
X116633733Y-73200483D01*
X116633733Y-73200483D02*
X116558664Y-73268075D01*
X116558664Y-73268075D02*
X116412264Y-73331929D01*
X116412264Y-73331929D02*
X116269603Y-73324453D01*
X116269603Y-73324453D02*
X116130680Y-73245646D01*
X116130680Y-73245646D02*
X116063087Y-73170577D01*
X116063087Y-73170577D02*
X115999233Y-73024177D01*
X115999233Y-73024177D02*
X115942856Y-72735116D01*
X115942856Y-72735116D02*
X115961547Y-72378463D01*
X115961547Y-72378463D02*
X116047831Y-72096878D01*
X116047831Y-72096878D02*
X116126638Y-71957955D01*
X116126638Y-71957955D02*
X116201707Y-71890363D01*
X116201707Y-71890363D02*
X116348107Y-71826509D01*
X106164306Y-121748128D02*
X106100755Y-122960749D01*
X106100755Y-122960749D02*
X106164609Y-123107149D01*
X106164609Y-123107149D02*
X106232202Y-123182218D01*
X106232202Y-123182218D02*
X106371125Y-123261025D01*
X106371125Y-123261025D02*
X106656448Y-123275978D01*
X106656448Y-123275978D02*
X106802847Y-123212124D01*
X106802847Y-123212124D02*
X106877916Y-123144532D01*
X106877916Y-123144532D02*
X106956724Y-123005609D01*
X106956724Y-123005609D02*
X107020274Y-121792987D01*
X107587485Y-123253245D02*
X107797739Y-123335791D01*
X107797739Y-123335791D02*
X108154392Y-123354482D01*
X108154392Y-123354482D02*
X108300792Y-123290628D01*
X108300792Y-123290628D02*
X108375861Y-123223036D01*
X108375861Y-123223036D02*
X108454668Y-123084113D01*
X108454668Y-123084113D02*
X108462145Y-122941451D01*
X108462145Y-122941451D02*
X108398291Y-122795052D01*
X108398291Y-122795052D02*
X108330698Y-122719983D01*
X108330698Y-122719983D02*
X108191775Y-122641175D01*
X108191775Y-122641175D02*
X107910191Y-122554891D01*
X107910191Y-122554891D02*
X107771268Y-122476084D01*
X107771268Y-122476084D02*
X107703675Y-122401015D01*
X107703675Y-122401015D02*
X107639821Y-122254616D01*
X107639821Y-122254616D02*
X107647298Y-122111954D01*
X107647298Y-122111954D02*
X107726105Y-121973031D01*
X107726105Y-121973031D02*
X107801174Y-121905439D01*
X107801174Y-121905439D02*
X107947574Y-121841585D01*
X107947574Y-121841585D02*
X108304227Y-121860276D01*
X108304227Y-121860276D02*
X108514481Y-121942822D01*
X109622127Y-122644610D02*
X109832380Y-122727156D01*
X109832380Y-122727156D02*
X109899973Y-122802225D01*
X109899973Y-122802225D02*
X109963827Y-122948624D01*
X109963827Y-122948624D02*
X109952612Y-123162616D01*
X109952612Y-123162616D02*
X109873805Y-123301540D01*
X109873805Y-123301540D02*
X109798736Y-123369132D01*
X109798736Y-123369132D02*
X109652336Y-123432986D01*
X109652336Y-123432986D02*
X109081691Y-123403080D01*
X109081691Y-123403080D02*
X109160195Y-121905135D01*
X109160195Y-121905135D02*
X109659510Y-121931303D01*
X109659510Y-121931303D02*
X109798433Y-122010111D01*
X109798433Y-122010111D02*
X109866025Y-122085180D01*
X109866025Y-122085180D02*
X109929879Y-122231579D01*
X109929879Y-122231579D02*
X109922403Y-122374241D01*
X109922403Y-122374241D02*
X109843595Y-122513164D01*
X109843595Y-122513164D02*
X109768526Y-122580756D01*
X109768526Y-122580756D02*
X109622127Y-122644610D01*
X109622127Y-122644610D02*
X109122812Y-122618442D01*
X110609541Y-122910938D02*
X111750832Y-122970751D01*
X113297678Y-123480977D02*
X113222609Y-123548569D01*
X113222609Y-123548569D02*
X113004878Y-123608685D01*
X113004878Y-123608685D02*
X112862217Y-123601209D01*
X112862217Y-123601209D02*
X112651963Y-123518663D01*
X112651963Y-123518663D02*
X112516779Y-123368525D01*
X112516779Y-123368525D02*
X112452924Y-123222126D01*
X112452924Y-123222126D02*
X112396547Y-122933065D01*
X112396547Y-122933065D02*
X112407762Y-122719073D01*
X112407762Y-122719073D02*
X112494046Y-122437488D01*
X112494046Y-122437488D02*
X112572853Y-122298565D01*
X112572853Y-122298565D02*
X112722991Y-122163380D01*
X112722991Y-122163380D02*
X112940721Y-122103264D01*
X112940721Y-122103264D02*
X113083382Y-122110741D01*
X113083382Y-122110741D02*
X113293636Y-122193287D01*
X113293636Y-122193287D02*
X113361229Y-122268355D01*
X107100706Y-125717490D02*
X107179210Y-124219546D01*
X107141827Y-124932853D02*
X107997795Y-124977712D01*
X107956674Y-125762350D02*
X108035178Y-124264405D01*
X109244365Y-125758308D02*
X109097965Y-125822162D01*
X109097965Y-125822162D02*
X108812643Y-125807209D01*
X108812643Y-125807209D02*
X108673720Y-125728402D01*
X108673720Y-125728402D02*
X108609866Y-125582002D01*
X108609866Y-125582002D02*
X108639772Y-125011357D01*
X108639772Y-125011357D02*
X108718579Y-124872434D01*
X108718579Y-124872434D02*
X108864979Y-124808580D01*
X108864979Y-124808580D02*
X109150301Y-124823533D01*
X109150301Y-124823533D02*
X109289225Y-124902340D01*
X109289225Y-124902340D02*
X109353079Y-125048740D01*
X109353079Y-125048740D02*
X109345602Y-125191401D01*
X109345602Y-125191401D02*
X108624819Y-125296680D01*
X109953933Y-125867022D02*
X110006269Y-124868392D01*
X109991316Y-125153715D02*
X110070123Y-125014792D01*
X110070123Y-125014792D02*
X110145192Y-124947199D01*
X110145192Y-124947199D02*
X110291592Y-124883345D01*
X110291592Y-124883345D02*
X110434253Y-124890822D01*
X111455616Y-125874195D02*
X111309216Y-125938049D01*
X111309216Y-125938049D02*
X111023893Y-125923096D01*
X111023893Y-125923096D02*
X110884970Y-125844289D01*
X110884970Y-125844289D02*
X110821116Y-125697889D01*
X110821116Y-125697889D02*
X110851022Y-125127244D01*
X110851022Y-125127244D02*
X110929829Y-124988321D01*
X110929829Y-124988321D02*
X111076229Y-124924466D01*
X111076229Y-124924466D02*
X111361552Y-124939420D01*
X111361552Y-124939420D02*
X111500475Y-125018227D01*
X111500475Y-125018227D02*
X111564329Y-125164626D01*
X111564329Y-125164626D02*
X111556852Y-125307288D01*
X111556852Y-125307288D02*
X110836069Y-125412566D01*
X83628129Y-121636753D02*
X82914823Y-121674136D01*
X82914823Y-121674136D02*
X82880875Y-122391181D01*
X82880875Y-122391181D02*
X82948467Y-122316112D01*
X82948467Y-122316112D02*
X83087390Y-122237305D01*
X83087390Y-122237305D02*
X83444044Y-122218613D01*
X83444044Y-122218613D02*
X83590443Y-122282467D01*
X83590443Y-122282467D02*
X83665512Y-122350060D01*
X83665512Y-122350060D02*
X83744320Y-122488983D01*
X83744320Y-122488983D02*
X83763011Y-122845636D01*
X83763011Y-122845636D02*
X83699157Y-122992036D01*
X83699157Y-122992036D02*
X83631564Y-123067105D01*
X83631564Y-123067105D02*
X83492641Y-123145912D01*
X83492641Y-123145912D02*
X83135988Y-123164604D01*
X83135988Y-123164604D02*
X82989588Y-123100749D01*
X82989588Y-123100749D02*
X82914519Y-123033157D01*
X84127444Y-121610585D02*
X84705263Y-123082361D01*
X84705263Y-123082361D02*
X85126073Y-121558249D01*
X72053198Y-109254345D02*
X71906799Y-109190491D01*
X71906799Y-109190491D02*
X71692807Y-109201706D01*
X71692807Y-109201706D02*
X71482553Y-109284252D01*
X71482553Y-109284252D02*
X71347368Y-109434390D01*
X71347368Y-109434390D02*
X71283514Y-109580789D01*
X71283514Y-109580789D02*
X71227137Y-109869850D01*
X71227137Y-109869850D02*
X71238351Y-110083842D01*
X71238351Y-110083842D02*
X71324635Y-110365427D01*
X71324635Y-110365427D02*
X71403442Y-110504350D01*
X71403442Y-110504350D02*
X71553580Y-110639535D01*
X71553580Y-110639535D02*
X71771311Y-110699650D01*
X71771311Y-110699650D02*
X71913972Y-110692174D01*
X71913972Y-110692174D02*
X72124226Y-110609628D01*
X72124226Y-110609628D02*
X72191818Y-110534559D01*
X72191818Y-110534559D02*
X72165650Y-110035245D01*
X72165650Y-110035245D02*
X71880327Y-110050198D01*
X72841271Y-110643576D02*
X72762767Y-109145632D01*
X72762767Y-109145632D02*
X73697239Y-110598717D01*
X73697239Y-110598717D02*
X73618735Y-109100773D01*
X74410546Y-110561334D02*
X74332042Y-109063390D01*
X74332042Y-109063390D02*
X74688696Y-109044698D01*
X74688696Y-109044698D02*
X74906426Y-109104814D01*
X74906426Y-109104814D02*
X75056564Y-109239999D01*
X75056564Y-109239999D02*
X75135371Y-109378922D01*
X75135371Y-109378922D02*
X75221655Y-109660506D01*
X75221655Y-109660506D02*
X75232870Y-109874498D01*
X75232870Y-109874498D02*
X75176492Y-110163559D01*
X75176492Y-110163559D02*
X75112638Y-110309959D01*
X75112638Y-110309959D02*
X74977453Y-110460097D01*
X74977453Y-110460097D02*
X74767200Y-110542643D01*
X74767200Y-110542643D02*
X74410546Y-110561334D01*
X65522161Y-93031612D02*
X66449460Y-92983015D01*
X66449460Y-92983015D02*
X65980052Y-93579828D01*
X65980052Y-93579828D02*
X66194044Y-93568613D01*
X66194044Y-93568613D02*
X66340443Y-93632467D01*
X66340443Y-93632467D02*
X66415512Y-93700060D01*
X66415512Y-93700060D02*
X66494320Y-93838983D01*
X66494320Y-93838983D02*
X66513011Y-94195636D01*
X66513011Y-94195636D02*
X66449157Y-94342036D01*
X66449157Y-94342036D02*
X66381564Y-94417105D01*
X66381564Y-94417105D02*
X66242641Y-94495912D01*
X66242641Y-94495912D02*
X65814657Y-94518342D01*
X65814657Y-94518342D02*
X65668258Y-94454488D01*
X65668258Y-94454488D02*
X65593189Y-94386895D01*
X66877444Y-92960585D02*
X67455263Y-94432361D01*
X67455263Y-94432361D02*
X67876073Y-92908249D01*
X68232726Y-92889558D02*
X69160025Y-92840960D01*
X69160025Y-92840960D02*
X68690617Y-93437773D01*
X68690617Y-93437773D02*
X68904609Y-93426559D01*
X68904609Y-93426559D02*
X69051008Y-93490413D01*
X69051008Y-93490413D02*
X69126077Y-93558005D01*
X69126077Y-93558005D02*
X69204885Y-93696928D01*
X69204885Y-93696928D02*
X69223576Y-94053582D01*
X69223576Y-94053582D02*
X69159722Y-94199981D01*
X69159722Y-94199981D02*
X69092130Y-94275050D01*
X69092130Y-94275050D02*
X68953207Y-94353857D01*
X68953207Y-94353857D02*
X68525222Y-94376287D01*
X68525222Y-94376287D02*
X68378823Y-94312433D01*
X68378823Y-94312433D02*
X68303754Y-94244841D01*
X65543327Y-77822080D02*
X65464823Y-76324136D01*
X65464823Y-76324136D02*
X66020212Y-77367928D01*
X66020212Y-77367928D02*
X66463452Y-76271800D01*
X66463452Y-76271800D02*
X66541956Y-77769744D01*
X67462082Y-76219464D02*
X67747405Y-76204511D01*
X67747405Y-76204511D02*
X67893804Y-76268365D01*
X67893804Y-76268365D02*
X68043942Y-76403550D01*
X68043942Y-76403550D02*
X68130226Y-76685134D01*
X68130226Y-76685134D02*
X68156394Y-77184449D01*
X68156394Y-77184449D02*
X68100017Y-77473510D01*
X68100017Y-77473510D02*
X67964832Y-77623648D01*
X67964832Y-77623648D02*
X67825909Y-77702455D01*
X67825909Y-77702455D02*
X67540586Y-77717408D01*
X67540586Y-77717408D02*
X67394186Y-77653554D01*
X67394186Y-77653554D02*
X67244048Y-77518369D01*
X67244048Y-77518369D02*
X67157765Y-77236785D01*
X67157765Y-77236785D02*
X67131597Y-76737470D01*
X67131597Y-76737470D02*
X67187974Y-76448409D01*
X67187974Y-76448409D02*
X67323159Y-76298271D01*
X67323159Y-76298271D02*
X67462082Y-76219464D01*
X68749470Y-77582527D02*
X68967200Y-77642643D01*
X68967200Y-77642643D02*
X69323853Y-77623951D01*
X69323853Y-77623951D02*
X69462776Y-77545144D01*
X69462776Y-77545144D02*
X69530369Y-77470075D01*
X69530369Y-77470075D02*
X69594223Y-77323675D01*
X69594223Y-77323675D02*
X69586746Y-77181014D01*
X69586746Y-77181014D02*
X69507939Y-77042091D01*
X69507939Y-77042091D02*
X69432870Y-76974498D01*
X69432870Y-76974498D02*
X69286471Y-76910644D01*
X69286471Y-76910644D02*
X68997410Y-76854267D01*
X68997410Y-76854267D02*
X68851010Y-76790413D01*
X68851010Y-76790413D02*
X68775941Y-76722820D01*
X68775941Y-76722820D02*
X68697134Y-76583897D01*
X68697134Y-76583897D02*
X68689657Y-76441236D01*
X68689657Y-76441236D02*
X68753511Y-76294836D01*
X68753511Y-76294836D02*
X68821104Y-76219767D01*
X68821104Y-76219767D02*
X68960027Y-76140960D01*
X68960027Y-76140960D02*
X69316680Y-76122269D01*
X69316680Y-76122269D02*
X69534410Y-76182384D01*
X70251152Y-77575354D02*
X70172648Y-76077409D01*
X71343327Y-62822080D02*
X71264823Y-61324136D01*
X71264823Y-61324136D02*
X71820212Y-62367928D01*
X71820212Y-62367928D02*
X72263452Y-61271800D01*
X72263452Y-61271800D02*
X72341956Y-62769744D01*
X73055263Y-62732361D02*
X72976759Y-61234417D01*
X73693501Y-62627386D02*
X73911232Y-62687502D01*
X73911232Y-62687502D02*
X74267885Y-62668811D01*
X74267885Y-62668811D02*
X74406808Y-62590003D01*
X74406808Y-62590003D02*
X74474401Y-62514934D01*
X74474401Y-62514934D02*
X74538255Y-62368535D01*
X74538255Y-62368535D02*
X74530778Y-62225873D01*
X74530778Y-62225873D02*
X74451971Y-62086950D01*
X74451971Y-62086950D02*
X74376902Y-62019358D01*
X74376902Y-62019358D02*
X74230502Y-61955504D01*
X74230502Y-61955504D02*
X73941441Y-61899126D01*
X73941441Y-61899126D02*
X73795042Y-61835272D01*
X73795042Y-61835272D02*
X73719973Y-61767680D01*
X73719973Y-61767680D02*
X73641165Y-61628757D01*
X73641165Y-61628757D02*
X73633689Y-61486095D01*
X73633689Y-61486095D02*
X73697543Y-61339696D01*
X73697543Y-61339696D02*
X73765135Y-61264627D01*
X73765135Y-61264627D02*
X73904058Y-61185819D01*
X73904058Y-61185819D02*
X74260712Y-61167128D01*
X74260712Y-61167128D02*
X74478442Y-61227244D01*
X75402002Y-61107315D02*
X75687325Y-61092362D01*
X75687325Y-61092362D02*
X75833725Y-61156216D01*
X75833725Y-61156216D02*
X75983863Y-61291401D01*
X75983863Y-61291401D02*
X76070146Y-61572986D01*
X76070146Y-61572986D02*
X76096314Y-62072300D01*
X76096314Y-62072300D02*
X76039937Y-62361361D01*
X76039937Y-62361361D02*
X75904752Y-62511499D01*
X75904752Y-62511499D02*
X75765829Y-62590307D01*
X75765829Y-62590307D02*
X75480506Y-62605260D01*
X75480506Y-62605260D02*
X75334107Y-62541406D01*
X75334107Y-62541406D02*
X75183969Y-62406221D01*
X75183969Y-62406221D02*
X75097685Y-62124636D01*
X75097685Y-62124636D02*
X75071517Y-61625322D01*
X75071517Y-61625322D02*
X75127894Y-61336261D01*
X75127894Y-61336261D02*
X75263079Y-61186123D01*
X75263079Y-61186123D02*
X75402002Y-61107315D01*
X82168258Y-49654488D02*
X82385988Y-49714604D01*
X82385988Y-49714604D02*
X82742641Y-49695912D01*
X82742641Y-49695912D02*
X82881564Y-49617105D01*
X82881564Y-49617105D02*
X82949157Y-49542036D01*
X82949157Y-49542036D02*
X83013011Y-49395636D01*
X83013011Y-49395636D02*
X83005534Y-49252975D01*
X83005534Y-49252975D02*
X82926727Y-49114052D01*
X82926727Y-49114052D02*
X82851658Y-49046460D01*
X82851658Y-49046460D02*
X82705259Y-48982605D01*
X82705259Y-48982605D02*
X82416198Y-48926228D01*
X82416198Y-48926228D02*
X82269798Y-48862374D01*
X82269798Y-48862374D02*
X82194729Y-48794781D01*
X82194729Y-48794781D02*
X82115922Y-48655858D01*
X82115922Y-48655858D02*
X82108445Y-48513197D01*
X82108445Y-48513197D02*
X82172299Y-48366797D01*
X82172299Y-48366797D02*
X82239892Y-48291728D01*
X82239892Y-48291728D02*
X82378815Y-48212921D01*
X82378815Y-48212921D02*
X82735468Y-48194230D01*
X82735468Y-48194230D02*
X82953198Y-48254345D01*
X84518431Y-49459794D02*
X84450839Y-49534863D01*
X84450839Y-49534863D02*
X84240585Y-49617408D01*
X84240585Y-49617408D02*
X84097924Y-49624885D01*
X84097924Y-49624885D02*
X83880194Y-49564769D01*
X83880194Y-49564769D02*
X83730056Y-49429584D01*
X83730056Y-49429584D02*
X83651248Y-49290661D01*
X83651248Y-49290661D02*
X83564965Y-49009077D01*
X83564965Y-49009077D02*
X83553750Y-48795085D01*
X83553750Y-48795085D02*
X83610127Y-48506024D01*
X83610127Y-48506024D02*
X83673981Y-48359624D01*
X83673981Y-48359624D02*
X83809166Y-48209486D01*
X83809166Y-48209486D02*
X84019420Y-48126941D01*
X84019420Y-48126941D02*
X84162081Y-48119464D01*
X84162081Y-48119464D02*
X84379812Y-48179580D01*
X84379812Y-48179580D02*
X84454881Y-48247172D01*
X85167884Y-49568811D02*
X85089380Y-48070866D01*
X86023852Y-49523951D02*
X85337017Y-48701628D01*
X85945348Y-48026007D02*
X85134240Y-48926834D01*
X99799295Y-41977221D02*
X99262597Y-41290082D01*
X98943327Y-42022080D02*
X98864823Y-40524136D01*
X98864823Y-40524136D02*
X99435468Y-40494230D01*
X99435468Y-40494230D02*
X99581868Y-40558084D01*
X99581868Y-40558084D02*
X99656937Y-40625676D01*
X99656937Y-40625676D02*
X99735744Y-40764599D01*
X99735744Y-40764599D02*
X99746959Y-40978591D01*
X99746959Y-40978591D02*
X99683105Y-41124991D01*
X99683105Y-41124991D02*
X99615512Y-41200060D01*
X99615512Y-41200060D02*
X99476589Y-41278867D01*
X99476589Y-41278867D02*
X98905944Y-41308773D01*
X100220106Y-40453109D02*
X101297239Y-41898717D01*
X101218735Y-40400773D02*
X100298610Y-41951053D01*
X128164683Y-42672765D02*
X129020651Y-42627905D01*
X128671171Y-44148279D02*
X128592667Y-42650335D01*
X129377304Y-42609214D02*
X130454438Y-44054822D01*
X130375934Y-42556878D02*
X129455808Y-44107158D01*
X142131866Y-54236198D02*
X142349596Y-54296314D01*
X142349596Y-54296314D02*
X142706249Y-54277622D01*
X142706249Y-54277622D02*
X142845172Y-54198815D01*
X142845172Y-54198815D02*
X142912765Y-54123746D01*
X142912765Y-54123746D02*
X142976619Y-53977346D01*
X142976619Y-53977346D02*
X142969142Y-53834685D01*
X142969142Y-53834685D02*
X142890335Y-53695762D01*
X142890335Y-53695762D02*
X142815266Y-53628170D01*
X142815266Y-53628170D02*
X142668867Y-53564315D01*
X142668867Y-53564315D02*
X142379806Y-53507938D01*
X142379806Y-53507938D02*
X142233406Y-53444084D01*
X142233406Y-53444084D02*
X142158337Y-53376491D01*
X142158337Y-53376491D02*
X142079530Y-53237568D01*
X142079530Y-53237568D02*
X142072053Y-53094907D01*
X142072053Y-53094907D02*
X142135907Y-52948507D01*
X142135907Y-52948507D02*
X142203500Y-52873438D01*
X142203500Y-52873438D02*
X142342423Y-52794631D01*
X142342423Y-52794631D02*
X142699076Y-52775940D01*
X142699076Y-52775940D02*
X142916806Y-52836055D01*
X144482039Y-54041504D02*
X144414447Y-54116573D01*
X144414447Y-54116573D02*
X144204193Y-54199118D01*
X144204193Y-54199118D02*
X144061532Y-54206595D01*
X144061532Y-54206595D02*
X143843802Y-54146479D01*
X143843802Y-54146479D02*
X143693664Y-54011294D01*
X143693664Y-54011294D02*
X143614856Y-53872371D01*
X143614856Y-53872371D02*
X143528573Y-53590787D01*
X143528573Y-53590787D02*
X143517358Y-53376795D01*
X143517358Y-53376795D02*
X143573735Y-53087734D01*
X143573735Y-53087734D02*
X143637589Y-52941334D01*
X143637589Y-52941334D02*
X143772774Y-52791196D01*
X143772774Y-52791196D02*
X143983028Y-52708651D01*
X143983028Y-52708651D02*
X144125689Y-52701174D01*
X144125689Y-52701174D02*
X144343420Y-52761290D01*
X144343420Y-52761290D02*
X144418489Y-52828882D01*
X145844799Y-54113138D02*
X145131492Y-54150521D01*
X145131492Y-54150521D02*
X145052988Y-52652576D01*
X151684123Y-67404318D02*
X151901853Y-67464434D01*
X151901853Y-67464434D02*
X152258506Y-67445742D01*
X152258506Y-67445742D02*
X152397429Y-67366935D01*
X152397429Y-67366935D02*
X152465022Y-67291866D01*
X152465022Y-67291866D02*
X152528876Y-67145466D01*
X152528876Y-67145466D02*
X152521399Y-67002805D01*
X152521399Y-67002805D02*
X152442592Y-66863882D01*
X152442592Y-66863882D02*
X152367523Y-66796290D01*
X152367523Y-66796290D02*
X152221124Y-66732435D01*
X152221124Y-66732435D02*
X151932063Y-66676058D01*
X151932063Y-66676058D02*
X151785663Y-66612204D01*
X151785663Y-66612204D02*
X151710594Y-66544611D01*
X151710594Y-66544611D02*
X151631787Y-66405688D01*
X151631787Y-66405688D02*
X151624310Y-66263027D01*
X151624310Y-66263027D02*
X151688164Y-66116627D01*
X151688164Y-66116627D02*
X151755757Y-66041558D01*
X151755757Y-66041558D02*
X151894680Y-65962751D01*
X151894680Y-65962751D02*
X152251333Y-65944060D01*
X152251333Y-65944060D02*
X152469063Y-66004175D01*
X153185805Y-67397145D02*
X153107301Y-65899200D01*
X153107301Y-65899200D02*
X153463954Y-65880509D01*
X153463954Y-65880509D02*
X153681685Y-65940625D01*
X153681685Y-65940625D02*
X153831823Y-66075809D01*
X153831823Y-66075809D02*
X153910630Y-66214733D01*
X153910630Y-66214733D02*
X153996914Y-66496317D01*
X153996914Y-66496317D02*
X154008128Y-66710309D01*
X154008128Y-66710309D02*
X153951751Y-66999370D01*
X153951751Y-66999370D02*
X153887897Y-67145770D01*
X153887897Y-67145770D02*
X153752712Y-67295908D01*
X153752712Y-67295908D02*
X153542458Y-67378453D01*
X153542458Y-67378453D02*
X153185805Y-67397145D01*
X154589989Y-66894395D02*
X155303296Y-66857012D01*
X154469757Y-67329855D02*
X154890568Y-65805743D01*
X154890568Y-65805743D02*
X155468387Y-67277520D01*
X155401448Y-82923894D02*
X156114755Y-82886512D01*
X155281217Y-83359355D02*
X155702027Y-81835243D01*
X155702027Y-81835243D02*
X156279846Y-83307019D01*
X156557995Y-81790383D02*
X157485294Y-81741786D01*
X157485294Y-81741786D02*
X157015886Y-82338599D01*
X157015886Y-82338599D02*
X157229878Y-82327384D01*
X157229878Y-82327384D02*
X157376277Y-82391238D01*
X157376277Y-82391238D02*
X157451346Y-82458831D01*
X157451346Y-82458831D02*
X157530154Y-82597754D01*
X157530154Y-82597754D02*
X157548845Y-82954407D01*
X157548845Y-82954407D02*
X157484991Y-83100807D01*
X157484991Y-83100807D02*
X157417398Y-83175876D01*
X157417398Y-83175876D02*
X157278475Y-83254683D01*
X157278475Y-83254683D02*
X156850491Y-83277113D01*
X156850491Y-83277113D02*
X156704092Y-83213259D01*
X156704092Y-83213259D02*
X156629023Y-83145666D01*
X154965992Y-99454420D02*
X155679299Y-99417038D01*
X154845761Y-99889881D02*
X155266571Y-98365769D01*
X155266571Y-98365769D02*
X155844390Y-99837545D01*
X156201347Y-98459832D02*
X156268939Y-98384763D01*
X156268939Y-98384763D02*
X156407862Y-98305956D01*
X156407862Y-98305956D02*
X156764515Y-98287265D01*
X156764515Y-98287265D02*
X156910915Y-98351119D01*
X156910915Y-98351119D02*
X156985984Y-98418711D01*
X156985984Y-98418711D02*
X157064791Y-98557634D01*
X157064791Y-98557634D02*
X157072268Y-98700296D01*
X157072268Y-98700296D02*
X157012152Y-98918026D01*
X157012152Y-98918026D02*
X156201043Y-99818854D01*
X156201043Y-99818854D02*
X157128342Y-99770256D01*
X146932471Y-114310137D02*
X147645778Y-114272755D01*
X146812240Y-114745598D02*
X147233050Y-113221486D01*
X147233050Y-113221486D02*
X147810869Y-114693262D01*
X149094821Y-114625973D02*
X148238853Y-114670832D01*
X148666837Y-114648403D02*
X148588333Y-113150458D01*
X148588333Y-113150458D02*
X148456887Y-113371927D01*
X148456887Y-113371927D02*
X148321702Y-113522065D01*
X148321702Y-113522065D02*
X148182779Y-113600872D01*
X134436799Y-125229074D02*
X135150106Y-125191692D01*
X134316568Y-125664535D02*
X134737378Y-124140423D01*
X134737378Y-124140423D02*
X135315197Y-125612199D01*
X136021330Y-124073134D02*
X136163992Y-124065657D01*
X136163992Y-124065657D02*
X136310391Y-124129511D01*
X136310391Y-124129511D02*
X136385460Y-124197104D01*
X136385460Y-124197104D02*
X136464268Y-124336027D01*
X136464268Y-124336027D02*
X136550551Y-124617611D01*
X136550551Y-124617611D02*
X136569243Y-124974265D01*
X136569243Y-124974265D02*
X136512865Y-125263326D01*
X136512865Y-125263326D02*
X136449011Y-125409725D01*
X136449011Y-125409725D02*
X136381419Y-125484794D01*
X136381419Y-125484794D02*
X136242496Y-125563601D01*
X136242496Y-125563601D02*
X136099834Y-125571078D01*
X136099834Y-125571078D02*
X135953435Y-125507224D01*
X135953435Y-125507224D02*
X135878366Y-125439631D01*
X135878366Y-125439631D02*
X135799558Y-125300708D01*
X135799558Y-125300708D02*
X135713275Y-125019124D01*
X135713275Y-125019124D02*
X135694583Y-124662471D01*
X135694583Y-124662471D02*
X135750961Y-124373410D01*
X135750961Y-124373410D02*
X135814815Y-124227010D01*
X135814815Y-124227010D02*
X135882407Y-124151941D01*
X135882407Y-124151941D02*
X136021330Y-124073134D01*
X105687930Y-85388197D02*
X105898184Y-85470742D01*
X105898184Y-85470742D02*
X106254837Y-85489434D01*
X106254837Y-85489434D02*
X106401237Y-85425580D01*
X106401237Y-85425580D02*
X106476306Y-85357987D01*
X106476306Y-85357987D02*
X106555113Y-85219064D01*
X106555113Y-85219064D02*
X106562589Y-85076403D01*
X106562589Y-85076403D02*
X106498735Y-84930003D01*
X106498735Y-84930003D02*
X106431143Y-84854934D01*
X106431143Y-84854934D02*
X106292220Y-84776127D01*
X106292220Y-84776127D02*
X106010635Y-84689843D01*
X106010635Y-84689843D02*
X105871712Y-84611036D01*
X105871712Y-84611036D02*
X105804120Y-84535967D01*
X105804120Y-84535967D02*
X105740266Y-84389567D01*
X105740266Y-84389567D02*
X105747742Y-84246906D01*
X105747742Y-84246906D02*
X105826550Y-84107983D01*
X105826550Y-84107983D02*
X105901619Y-84040391D01*
X105901619Y-84040391D02*
X106048018Y-83976536D01*
X106048018Y-83976536D02*
X106404672Y-83995228D01*
X106404672Y-83995228D02*
X106614925Y-84077773D01*
X107182135Y-85538032D02*
X107260639Y-84040087D01*
X107260639Y-84040087D02*
X107617293Y-84058779D01*
X107617293Y-84058779D02*
X107827547Y-84141324D01*
X107827547Y-84141324D02*
X107962731Y-84291462D01*
X107962731Y-84291462D02*
X108026585Y-84437862D01*
X108026585Y-84437862D02*
X108082963Y-84726923D01*
X108082963Y-84726923D02*
X108071748Y-84940915D01*
X108071748Y-84940915D02*
X107985464Y-85222499D01*
X107985464Y-85222499D02*
X107906657Y-85361422D01*
X107906657Y-85361422D02*
X107756519Y-85496607D01*
X107756519Y-85496607D02*
X107538789Y-85556723D01*
X107538789Y-85556723D02*
X107182135Y-85538032D01*
X108631179Y-85184813D02*
X109344486Y-85222196D01*
X108466088Y-85605321D02*
X109043906Y-84133544D01*
X109043906Y-84133544D02*
X109464717Y-85657657D01*
X105854063Y-82825991D02*
X106064317Y-82908536D01*
X106064317Y-82908536D02*
X106420970Y-82927228D01*
X106420970Y-82927228D02*
X106567370Y-82863374D01*
X106567370Y-82863374D02*
X106642439Y-82795781D01*
X106642439Y-82795781D02*
X106721246Y-82656858D01*
X106721246Y-82656858D02*
X106728722Y-82514197D01*
X106728722Y-82514197D02*
X106664868Y-82367797D01*
X106664868Y-82367797D02*
X106597276Y-82292728D01*
X106597276Y-82292728D02*
X106458353Y-82213921D01*
X106458353Y-82213921D02*
X106176768Y-82127637D01*
X106176768Y-82127637D02*
X106037845Y-82048830D01*
X106037845Y-82048830D02*
X105970253Y-81973761D01*
X105970253Y-81973761D02*
X105906399Y-81827361D01*
X105906399Y-81827361D02*
X105913875Y-81684700D01*
X105913875Y-81684700D02*
X105992683Y-81545777D01*
X105992683Y-81545777D02*
X106067752Y-81478185D01*
X106067752Y-81478185D02*
X106214151Y-81414330D01*
X106214151Y-81414330D02*
X106570805Y-81433022D01*
X106570805Y-81433022D02*
X106781058Y-81515567D01*
X108211713Y-82878024D02*
X108136644Y-82945616D01*
X108136644Y-82945616D02*
X107918914Y-83005732D01*
X107918914Y-83005732D02*
X107776253Y-82998255D01*
X107776253Y-82998255D02*
X107565999Y-82915710D01*
X107565999Y-82915710D02*
X107430814Y-82765572D01*
X107430814Y-82765572D02*
X107366960Y-82619172D01*
X107366960Y-82619172D02*
X107310582Y-82330111D01*
X107310582Y-82330111D02*
X107321797Y-82116119D01*
X107321797Y-82116119D02*
X107408081Y-81834535D01*
X107408081Y-81834535D02*
X107486888Y-81695612D01*
X107486888Y-81695612D02*
X107637026Y-81560427D01*
X107637026Y-81560427D02*
X107854756Y-81500311D01*
X107854756Y-81500311D02*
X107997418Y-81507787D01*
X107997418Y-81507787D02*
X108207672Y-81590333D01*
X108207672Y-81590333D02*
X108275264Y-81665402D01*
X109559520Y-83091712D02*
X108846213Y-83054329D01*
X108846213Y-83054329D02*
X108924717Y-81556385D01*
X106834243Y-78708937D02*
X106695320Y-78630130D01*
X106695320Y-78630130D02*
X106481328Y-78618915D01*
X106481328Y-78618915D02*
X106263598Y-78679031D01*
X106263598Y-78679031D02*
X106113460Y-78814216D01*
X106113460Y-78814216D02*
X106034653Y-78953139D01*
X106034653Y-78953139D02*
X105948369Y-79234723D01*
X105948369Y-79234723D02*
X105937154Y-79448715D01*
X105937154Y-79448715D02*
X105993532Y-79737776D01*
X105993532Y-79737776D02*
X106057386Y-79884176D01*
X106057386Y-79884176D02*
X106192571Y-80034314D01*
X106192571Y-80034314D02*
X106402824Y-80116860D01*
X106402824Y-80116860D02*
X106545486Y-80124336D01*
X106545486Y-80124336D02*
X106763216Y-80064220D01*
X106763216Y-80064220D02*
X106838285Y-79996628D01*
X106838285Y-79996628D02*
X106864453Y-79497313D01*
X106864453Y-79497313D02*
X106579130Y-79482360D01*
X107472785Y-80172934D02*
X107551288Y-78674990D01*
X107551288Y-78674990D02*
X108328753Y-80217793D01*
X108328753Y-80217793D02*
X108407257Y-78719849D01*
X109042060Y-80255176D02*
X109120564Y-78757232D01*
X109120564Y-78757232D02*
X109477217Y-78775923D01*
X109477217Y-78775923D02*
X109687471Y-78858469D01*
X109687471Y-78858469D02*
X109822656Y-79008607D01*
X109822656Y-79008607D02*
X109886510Y-79155006D01*
X109886510Y-79155006D02*
X109942888Y-79444067D01*
X109942888Y-79444067D02*
X109931673Y-79658059D01*
X109931673Y-79658059D02*
X109845389Y-79939644D01*
X109845389Y-79939644D02*
X109766582Y-80078567D01*
X109766582Y-80078567D02*
X109616444Y-80213752D01*
X109616444Y-80213752D02*
X109398713Y-80273867D01*
X109398713Y-80273867D02*
X109042060Y-80255176D01*
D12*
D11*
X119048923Y-119176119D02*
X119762230Y-119138737D01*
X118928692Y-119611580D02*
X119349502Y-118087468D01*
X119349502Y-118087468D02*
X119927321Y-119559244D01*
X120633454Y-118020179D02*
X120776116Y-118012702D01*
X120776116Y-118012702D02*
X120922515Y-118076556D01*
X120922515Y-118076556D02*
X120997584Y-118144149D01*
X120997584Y-118144149D02*
X121076392Y-118283072D01*
X121076392Y-118283072D02*
X121162675Y-118564656D01*
X121162675Y-118564656D02*
X121181367Y-118921310D01*
X121181367Y-118921310D02*
X121124989Y-119210371D01*
X121124989Y-119210371D02*
X121061135Y-119356770D01*
X121061135Y-119356770D02*
X120993543Y-119431839D01*
X120993543Y-119431839D02*
X120854620Y-119510646D01*
X120854620Y-119510646D02*
X120711958Y-119518123D01*
X120711958Y-119518123D02*
X120565559Y-119454269D01*
X120565559Y-119454269D02*
X120490490Y-119386676D01*
X120490490Y-119386676D02*
X120411682Y-119247753D01*
X120411682Y-119247753D02*
X120325399Y-118966169D01*
X120325399Y-118966169D02*
X120306707Y-118609516D01*
X120306707Y-118609516D02*
X120363085Y-118320455D01*
X120363085Y-118320455D02*
X120426939Y-118174055D01*
X120426939Y-118174055D02*
X120494531Y-118098986D01*
X120494531Y-118098986D02*
X120633454Y-118020179D01*
X98415092Y-117432191D02*
X97701786Y-117469574D01*
X97701786Y-117469574D02*
X97667838Y-118186619D01*
X97667838Y-118186619D02*
X97735430Y-118111550D01*
X97735430Y-118111550D02*
X97874353Y-118032743D01*
X97874353Y-118032743D02*
X98231007Y-118014051D01*
X98231007Y-118014051D02*
X98377406Y-118077905D01*
X98377406Y-118077905D02*
X98452475Y-118145498D01*
X98452475Y-118145498D02*
X98531283Y-118284421D01*
X98531283Y-118284421D02*
X98549974Y-118641074D01*
X98549974Y-118641074D02*
X98486120Y-118787474D01*
X98486120Y-118787474D02*
X98418527Y-118862543D01*
X98418527Y-118862543D02*
X98279604Y-118941350D01*
X98279604Y-118941350D02*
X97922951Y-118960042D01*
X97922951Y-118960042D02*
X97776551Y-118896187D01*
X97776551Y-118896187D02*
X97701482Y-118828595D01*
X98914407Y-117406023D02*
X99492226Y-118877799D01*
X99492226Y-118877799D02*
X99913036Y-117353687D01*
X106079116Y-75668726D02*
X106499927Y-77192838D01*
X106499927Y-77192838D02*
X107077746Y-75721062D01*
X108362001Y-77147372D02*
X108286932Y-77214964D01*
X108286932Y-77214964D02*
X108069202Y-77275080D01*
X108069202Y-77275080D02*
X107926540Y-77267604D01*
X107926540Y-77267604D02*
X107716287Y-77185058D01*
X107716287Y-77185058D02*
X107581102Y-77034920D01*
X107581102Y-77034920D02*
X107517248Y-76888521D01*
X107517248Y-76888521D02*
X107460870Y-76599460D01*
X107460870Y-76599460D02*
X107472085Y-76385468D01*
X107472085Y-76385468D02*
X107558369Y-76103883D01*
X107558369Y-76103883D02*
X107637176Y-75964960D01*
X107637176Y-75964960D02*
X107787314Y-75829775D01*
X107787314Y-75829775D02*
X108005044Y-75769659D01*
X108005044Y-75769659D02*
X108147706Y-75777136D01*
X108147706Y-75777136D02*
X108357959Y-75859681D01*
X108357959Y-75859681D02*
X108425552Y-75934750D01*
X109859945Y-77225876D02*
X109784876Y-77293468D01*
X109784876Y-77293468D02*
X109567146Y-77353584D01*
X109567146Y-77353584D02*
X109424485Y-77346108D01*
X109424485Y-77346108D02*
X109214231Y-77263562D01*
X109214231Y-77263562D02*
X109079046Y-77113424D01*
X109079046Y-77113424D02*
X109015192Y-76967024D01*
X109015192Y-76967024D02*
X108958814Y-76677963D01*
X108958814Y-76677963D02*
X108970029Y-76463971D01*
X108970029Y-76463971D02*
X109056313Y-76182387D01*
X109056313Y-76182387D02*
X109135120Y-76043464D01*
X109135120Y-76043464D02*
X109285258Y-75908279D01*
X109285258Y-75908279D02*
X109502989Y-75848163D01*
X109502989Y-75848163D02*
X109645650Y-75855640D01*
X109645650Y-75855640D02*
X109855904Y-75938185D01*
X109855904Y-75938185D02*
X109923496Y-76013254D01*
D13*
D12*
D13*
D12*
D13*
D12*
D13*
D12*
D13*
D12*
D13*
D12*
D13*
X116814040Y-100271335D02*
X116789112Y-100985185D01*
X116789112Y-100985185D02*
X116736536Y-101126294D01*
X116736536Y-101126294D02*
X116638032Y-101218150D01*
X116638032Y-101218150D02*
X116493600Y-101260754D01*
X116493600Y-101260754D02*
X116398420Y-101257431D01*
X117778531Y-101305625D02*
X117207451Y-101285683D01*
X117492991Y-101295654D02*
X117527891Y-100296263D01*
X117527891Y-100296263D02*
X117427725Y-100435709D01*
X117427725Y-100435709D02*
X117329221Y-100527566D01*
X117329221Y-100527566D02*
X117232379Y-100571832D01*
D12*
D13*
D12*
D13*
X112053590Y-80818300D02*
X112016208Y-81531607D01*
X112016208Y-81531607D02*
X111961177Y-81671776D01*
X111961177Y-81671776D02*
X111861085Y-81761899D01*
X111861085Y-81761899D02*
X111715932Y-81801976D01*
X111715932Y-81801976D02*
X111620824Y-81796992D01*
X112434021Y-80838237D02*
X113052220Y-80870636D01*
X113052220Y-80870636D02*
X112699406Y-81233621D01*
X112699406Y-81233621D02*
X112842067Y-81241097D01*
X112842067Y-81241097D02*
X112934683Y-81293635D01*
X112934683Y-81293635D02*
X112979744Y-81343681D01*
X112979744Y-81343681D02*
X113022314Y-81441281D01*
X113022314Y-81441281D02*
X113009853Y-81679050D01*
X113009853Y-81679050D02*
X112957315Y-81771666D01*
X112957315Y-81771666D02*
X112907269Y-81816727D01*
X112907269Y-81816727D02*
X112809669Y-81859297D01*
X112809669Y-81859297D02*
X112524346Y-81844343D01*
X112524346Y-81844343D02*
X112431731Y-81791805D01*
X112431731Y-81791805D02*
X112386669Y-81741759D01*
X102458502Y-99941859D02*
X102433574Y-100655709D01*
X102433574Y-100655709D02*
X102380998Y-100796818D01*
X102380998Y-100796818D02*
X102282494Y-100888674D01*
X102282494Y-100888674D02*
X102138062Y-100931278D01*
X102138062Y-100931278D02*
X102042882Y-100927955D01*
X102883489Y-100051996D02*
X102932741Y-100006068D01*
X102932741Y-100006068D02*
X103029583Y-99961801D01*
X103029583Y-99961801D02*
X103267533Y-99970111D01*
X103267533Y-99970111D02*
X103361051Y-100021025D01*
X103361051Y-100021025D02*
X103406979Y-100070277D01*
X103406979Y-100070277D02*
X103451245Y-100167119D01*
X103451245Y-100167119D02*
X103447922Y-100262299D01*
X103447922Y-100262299D02*
X103395346Y-100403407D01*
X103395346Y-100403407D02*
X102804323Y-100954545D01*
X102804323Y-100954545D02*
X103422993Y-100976149D01*
D12*
D13*
D12*
D13*
D12*
D13*
D12*
D13*
D12*
D13*
D12*
D14*
%TO.C,J1*%
X115184465Y-119998269D02*
X117842844Y-120091101D01*
X115718427Y-104707589D02*
X115184465Y-119998269D01*
X115718427Y-104707589D02*
X118376806Y-104800422D01*
X115762749Y-103438363D02*
X115809167Y-102109173D01*
X115809167Y-102109173D02*
X117138355Y-102155589D01*
X118376806Y-104800422D02*
X117842844Y-120091101D01*
%TO.C,J3*%
X110796998Y-85751879D02*
X113453353Y-85891092D01*
X111198939Y-78082404D02*
X110796998Y-85751879D01*
X111198939Y-78082404D02*
X113855293Y-78221618D01*
X111265407Y-76814145D02*
X111335014Y-75485967D01*
X111335014Y-75485967D02*
X112663189Y-75555575D01*
X113855293Y-78221618D02*
X113453353Y-85891092D01*
%TO.C,J2*%
X100824175Y-119769180D02*
X103482553Y-119862011D01*
X101358137Y-104478501D02*
X100824175Y-119769180D01*
X101358137Y-104478501D02*
X104016515Y-104571332D01*
X101402457Y-103209274D02*
X101448874Y-101880085D01*
X101448874Y-101880085D02*
X102778064Y-101926499D01*
X104016515Y-104571332D02*
X103482553Y-119862011D01*
%TD*%
M02*
