M48
; DRILL file {KiCad 8.0.8} date 2026-08-01T23:55:03+0300
; FORMAT={-:-/ absolute / metric / decimal}
; #@! TF.CreationDate,2026-08-01T23:55:03+03:00
; #@! TF.GenerationSoftware,Kicad,Pcbnew,8.0.8
; #@! TF.FileFunction,MixedPlating,1,2
FMAT,2
METRIC
; #@! TA.AperFunction,Plated,PTH,ComponentDrill
T1C0.800
; #@! TA.AperFunction,Plated,PTH,ComponentDrill
T2C2.500
%
G90
G05
T1
X102.2Y-118.486
X102.288Y-115.948
X102.377Y-113.41
X102.466Y-110.871
X102.554Y-108.333
X102.643Y-105.794
X102.732Y-103.256
X112.195Y-84.493
X112.328Y-81.957
X112.461Y-79.42
X112.594Y-76.884
X116.56Y-118.715
X116.649Y-116.177
X116.737Y-113.639
X116.826Y-111.1
X116.915Y-108.562
X117.003Y-106.023
X117.092Y-103.485
T2
X67.077Y-87.698
X69.681Y-71.368
X70.548Y-103.867
X78.008Y-57.08
X79.625Y-117.69
X90.935Y-46.766
X106.714Y-41.817
X123.215Y-42.903
X138.21Y-49.876
X140.13Y-121.671
X149.674Y-61.795
X150.94Y-109.156
X156.058Y-77.05
X156.5Y-93.581
M30
