%TF.GenerationSoftware,KiCad,Pcbnew,8.0.8*%
%TF.CreationDate,2026-08-01T23:54:53+03:00*%
%TF.ProjectId,Wearable Electronics,57656172-6162-46c6-9520-456c65637472,rev?*%
%TF.SameCoordinates,Original*%
%TF.FileFunction,Copper,L2,Bot*%
%TF.FilePolarity,Positive*%
%FSLAX46Y46*%
G04 Gerber Fmt 4.6, Leading zero omitted, Abs format (unit mm)*
G04 Created by KiCad (PCBNEW 8.0.8) date 2026-08-01 23:54:53*
%MOMM*%
%LPD*%
G01*
G04 APERTURE LIST*
G04 Aperture macros list*
%AMHorizOval*
0 Thick line with rounded ends*
0 $1 width*
0 $2 $3 position (X,Y) of the first rounded end (center of the circle)*
0 $4 $5 position (X,Y) of the second rounded end (center of the circle)*
0 Add line between two ends*
20,1,$1,$2,$3,$4,$5,0*
0 Add two circle primitives to create the rounded ends*
1,1,$1,$2,$3*
1,1,$1,$4,$5*%
%AMRotRect*
0 Rectangle, with rotation*
0 The origin of the aperture is its center*
0 $1 length*
0 $2 width*
0 $3 Rotation angle, in degrees counterclockwise*
0 Add horizontal line*
21,1,$1,$2,0,0,$3*%
G04 Aperture macros list end*
%TA.AperFunction,ComponentPad*%
%ADD10C,8.000000*%
%TD*%
%TA.AperFunction,ComponentPad*%
%ADD11RotRect,1.700000X1.700000X358.000000*%
%TD*%
%TA.AperFunction,ComponentPad*%
%ADD12HorizOval,1.700000X0.000000X0.000000X0.000000X0.000000X0*%
%TD*%
%TA.AperFunction,ComponentPad*%
%ADD13RotRect,1.700000X1.700000X357.000000*%
%TD*%
%TA.AperFunction,ComponentPad*%
%ADD14HorizOval,1.700000X0.000000X0.000000X0.000000X0.000000X0*%
%TD*%
%TA.AperFunction,Conductor*%
%ADD15C,0.700000*%
%TD*%
%TA.AperFunction,Conductor*%
%ADD16C,0.600000*%
%TD*%
G04 APERTURE END LIST*
D10*
%TO.P, ,1,Pin_1*%
%TO.N,A3*%
X156057729Y-77050279D03*
%TD*%
%TO.P, ,1,Pin_1*%
%TO.N,5V*%
X79625094Y-117690231D03*
%TD*%
%TO.P, ,1,Pin_1*%
%TO.N,MOSI*%
X69680859Y-71367642D03*
%TD*%
%TO.P, ,1,Pin_1*%
%TO.N,A0*%
X140130450Y-121670810D03*
%TD*%
%TO.P, ,1,Pin_1*%
%TO.N,MISO*%
X78008325Y-57080280D03*
%TD*%
%TO.P, ,1,Pin_1*%
%TO.N,SCL*%
X138210312Y-49876049D03*
%TD*%
D11*
%TO.P,J1,1,Pin_1*%
%TO.N,TX*%
X117091939Y-103484779D03*
D12*
%TO.P,J1,2,Pin_2*%
%TO.N,SCL*%
X117003294Y-106023233D03*
%TO.P,J1,3,Pin_3*%
%TO.N,SDA*%
X116914649Y-108561684D03*
%TO.P,J1,4,Pin_4*%
%TO.N,A3*%
X116826006Y-111100137D03*
%TO.P,J1,5,Pin_5*%
%TO.N,A2*%
X116737360Y-113638589D03*
%TO.P,J1,6,Pin_6*%
%TO.N,A1*%
X116648715Y-116177043D03*
%TO.P,J1,7,Pin_7*%
%TO.N,A0*%
X116560071Y-118715495D03*
%TD*%
D10*
%TO.P, ,1,Pin_1*%
%TO.N,RX*%
X106713889Y-41817262D03*
%TD*%
%TO.P, ,1,Pin_1*%
%TO.N,3V3*%
X67076785Y-87698415D03*
%TD*%
D13*
%TO.P,J3,1,Pin_1*%
%TO.N,5V*%
X112593583Y-76883751D03*
D14*
%TO.P,J3,2,Pin_2*%
%TO.N,GND*%
X112460649Y-79420271D03*
%TO.P,J3,3,Pin_3*%
%TO.N,SCL*%
X112327717Y-81956788D03*
%TO.P,J3,4,Pin_4*%
%TO.N,SDA*%
X112194783Y-84493309D03*
%TD*%
D11*
%TO.P,J2,1,Pin_1*%
%TO.N,RX*%
X102731648Y-103255690D03*
D12*
%TO.P,J2,2,Pin_2*%
%TO.N,SCK*%
X102643002Y-105794143D03*
%TO.P,J2,3,Pin_3*%
%TO.N,MISO*%
X102554359Y-108332595D03*
%TO.P,J2,4,Pin_4*%
%TO.N,MOSI*%
X102465713Y-110871050D03*
%TO.P,J2,5,Pin_5*%
%TO.N,3V3*%
X102377070Y-113409501D03*
%TO.P,J2,6,Pin_6*%
%TO.N,GND*%
X102288424Y-115947953D03*
%TO.P,J2,7,Pin_7*%
%TO.N,5V*%
X102199780Y-118486406D03*
%TD*%
D10*
%TO.P, ,1,Pin_1*%
%TO.N,A2*%
X156499853Y-93581457D03*
%TD*%
%TO.P, ,1,Pin_1*%
%TO.N,GND*%
X70547781Y-103867139D03*
%TD*%
%TO.P, ,1,Pin_1*%
%TO.N,TX*%
X123215306Y-42902870D03*
%TD*%
%TO.P, ,1,Pin_1*%
%TO.N,A1*%
X150940496Y-109156085D03*
%TD*%
%TO.P, ,1,Pin_1*%
%TO.N,SCK*%
X90934563Y-46765832D03*
%TD*%
%TO.P, ,1,Pin_1*%
%TO.N,SDA*%
X149673835Y-61795071D03*
%TD*%
D15*
%TO.N,GND*%
X107045753Y-75278143D02*
G75*
G03*
X105655554Y-79204040I4043847J-3641057D01*
G01*
X118333293Y-76536864D02*
G75*
G02*
X117657306Y-78445903I-2642393J-138536D01*
G01*
X76182369Y-103571844D02*
G75*
G02*
X80108279Y-104962060I284831J-5434056D01*
G01*
X107172107Y-108142203D02*
G75*
G02*
X105781883Y-112068105I-5434107J-284797D01*
G01*
X111431661Y-72788958D02*
G75*
G03*
X107672595Y-74581964I284839J-5434142D01*
G01*
X116935638Y-73752206D02*
G75*
G03*
X113856590Y-72661878I-2855638J-3171494D01*
G01*
X91265849Y-115008411D02*
G75*
G03*
X95191746Y-116398688I3641151J4043811D01*
G01*
X112499490Y-79455242D02*
G75*
G03*
X112590523Y-79487471I84410J93742D01*
G01*
X115829383Y-79317739D02*
G75*
G03*
X117657288Y-78445887I-138483J2642439D01*
G01*
X102251204Y-115989288D02*
G75*
G02*
X102158437Y-116033531I-99804J89888D01*
G01*
X117246104Y-74031758D02*
G75*
G02*
X118319972Y-76283237I-2180904J-2422042D01*
G01*
X102325643Y-115906615D02*
X102251204Y-115989288D01*
D16*
%TO.N,MISO*%
X99473744Y-107698064D02*
G75*
G03*
X101431752Y-108391414I1815956J2016864D01*
G01*
X79611428Y-87669286D02*
G75*
G03*
X81404417Y-91428354I5434072J284786D01*
G01*
%TO.N,MOSI*%
X75510486Y-88686746D02*
G75*
G03*
X77303472Y-92445817I5434104J284796D01*
G01*
X73171567Y-74510693D02*
G75*
G02*
X74964598Y-78269763I-3641067J-4043907D01*
G01*
X96372990Y-109616114D02*
G75*
G03*
X100245465Y-110987397I3591510J3988814D01*
G01*
D15*
%TO.N,5V*%
X90413595Y-118808274D02*
G75*
G03*
X94339500Y-120198501I3641105J4043874D01*
G01*
X110953978Y-76969666D02*
G75*
G03*
X108772289Y-78010263I165222J-3153734D01*
G01*
X86395904Y-117335403D02*
G75*
G02*
X90321826Y-118725616I284796J-5434197D01*
G01*
X108772302Y-78010275D02*
G75*
G03*
X107965445Y-80288788I2346998J-2113225D01*
G01*
X103100140Y-118387471D02*
G75*
G03*
X104522014Y-117709262I-107740J2055471D01*
G01*
X109511326Y-109786182D02*
G75*
G02*
X108121116Y-113712098I-5434126J-284818D01*
G01*
X100017877Y-119900915D02*
G75*
G03*
X101609992Y-119141540I-120577J2301515D01*
G01*
D16*
%TO.N,RX*%
X100970048Y-48196414D02*
G75*
G03*
X99579828Y-52122303I4043852J-3641086D01*
G01*
%TO.N,3V3*%
X94327823Y-112235366D02*
G75*
G03*
X98253718Y-113625575I3641077J4043866D01*
G01*
%TO.N,SCK*%
X93538442Y-96450780D02*
G75*
G03*
X95331429Y-100209846I5434058J284780D01*
G01*
X101204288Y-105497801D02*
G75*
G03*
X102118722Y-105821630I848112J941901D01*
G01*
%TO.N,A2*%
X123901957Y-111667127D02*
G75*
G02*
X120142887Y-113460104I-4043857J3641127D01*
G01*
X141629314Y-94360789D02*
G75*
G03*
X137870238Y-96153768I284786J-5434111D01*
G01*
D15*
%TO.N,SCL*%
X115069991Y-93683368D02*
G75*
G03*
X113679754Y-97609271I4043909J-3641132D01*
G01*
X113871436Y-101266501D02*
G75*
G03*
X115490642Y-104661202I4907364J257201D01*
G01*
D16*
X117258727Y-106009857D02*
G75*
G03*
X117400946Y-105942055I-10727J205557D01*
G01*
D15*
X117228991Y-88903651D02*
G75*
G02*
X115838737Y-92829527I-5434091J-284749D01*
G01*
X116939934Y-105966179D02*
G75*
G03*
X117088438Y-106018789I137766J152979D01*
G01*
D16*
X137221391Y-81547251D02*
G75*
G02*
X135831135Y-85473129I-5434091J-284749D01*
G01*
D15*
X114634004Y-82431826D02*
G75*
G03*
X113168152Y-81912744I-1359504J-1509874D01*
G01*
D16*
X136958807Y-51266006D02*
G75*
G03*
X135805217Y-54523758I3355693J-3021394D01*
G01*
D15*
X115505060Y-83216139D02*
G75*
G02*
X117106937Y-86574545I-3253060J-3612861D01*
G01*
X117088437Y-106018768D02*
X117258727Y-106009857D01*
D16*
%TO.N,SDA*%
X150160784Y-71086611D02*
G75*
G02*
X148770550Y-75012505I-5434084J-284789D01*
G01*
D15*
X111534232Y-101572505D02*
G75*
G03*
X113327225Y-105331557I5434068J284805D01*
G01*
D16*
X119223841Y-107827450D02*
G75*
G02*
X117779497Y-108516338I-1553741J1399050D01*
G01*
D15*
X111459766Y-85309645D02*
G75*
G03*
X110782208Y-87222958I1970834J-1774555D01*
G01*
D16*
%TO.N,A0*%
X128922954Y-120845590D02*
G75*
G03*
X132848850Y-122235843I3641146J4043890D01*
G01*
X127682386Y-119728577D02*
G75*
G03*
X123756491Y-118338350I-3641086J-4043823D01*
G01*
%TO.N,A1*%
X126500665Y-114064743D02*
G75*
G02*
X122741595Y-115857720I-4043865J3641143D01*
G01*
X133206576Y-108998960D02*
G75*
G03*
X129447537Y-110791972I284824J-5434040D01*
G01*
X150370330Y-108642706D02*
G75*
G03*
X149033983Y-108169462I-1239430J-1376494D01*
G01*
%TO.N,A3*%
X153178741Y-77201160D02*
G75*
G03*
X149419644Y-78994120I284759J-5434140D01*
G01*
X121989631Y-109458287D02*
G75*
G02*
X118759913Y-110998796I-3474431J3128387D01*
G01*
%TO.N,TX*%
X117642286Y-100812884D02*
G75*
G03*
X117040916Y-102511115I1749214J-1575016D01*
G01*
X125625135Y-89565144D02*
G75*
G02*
X124234893Y-93491032I-5434135J-284756D01*
G01*
X123198468Y-42921572D02*
G75*
G03*
X123182959Y-42965401I45132J-40628D01*
G01*
%TO.N,SDA*%
X148770552Y-75012507D02*
X119223841Y-107827450D01*
X117779499Y-108516367D02*
X116914649Y-108561692D01*
X150160784Y-71086611D02*
X149673835Y-61795071D01*
%TO.N,A3*%
X153178741Y-77201160D02*
X156057729Y-77050279D01*
X149419671Y-78994144D02*
X121989631Y-109458287D01*
X118759912Y-110998785D02*
X116826005Y-111100137D01*
%TO.N,A2*%
X141629314Y-94360789D02*
X156499853Y-93581457D01*
X123901957Y-111667127D02*
X137870244Y-96153773D01*
X120142887Y-113460112D02*
X116737360Y-113638588D01*
%TO.N,SCK*%
X93538442Y-96450780D02*
X90934563Y-46765832D01*
X95331425Y-100209851D02*
X101204288Y-105497801D01*
X102118721Y-105821618D02*
X102643001Y-105794143D01*
%TO.N,TX*%
X123198468Y-42921572D02*
X123215306Y-42902870D01*
X125625135Y-89565144D02*
X123182946Y-42965402D01*
X117642286Y-100812884D02*
X124234902Y-93491040D01*
X117040911Y-102511115D02*
X117091939Y-103484779D01*
D15*
%TO.N,GND*%
X112499490Y-79455242D02*
X112460649Y-79420269D01*
X112590523Y-79487479D02*
X115829383Y-79317739D01*
X118333293Y-76536864D02*
X118320000Y-76283236D01*
X116935638Y-73752206D02*
X117246104Y-74031758D01*
X105655524Y-79204042D02*
X107172107Y-108142203D01*
X105781872Y-112068095D02*
X102325643Y-115906615D01*
X111431661Y-72788958D02*
X113856589Y-72661855D01*
X95191744Y-116398643D02*
X102158437Y-116033535D01*
X107045753Y-75278143D02*
X107672594Y-74581963D01*
X80108264Y-104962077D02*
X91265849Y-115008411D01*
X76182369Y-103571844D02*
X70547781Y-103867139D01*
D16*
%TO.N,A0*%
X128922954Y-120845590D02*
X127682386Y-119728577D01*
X123756491Y-118338345D02*
X116560069Y-118715495D01*
X132848849Y-122235822D02*
X139957138Y-121863293D01*
%TO.N,A1*%
X133206576Y-108998960D02*
X149033984Y-108169481D01*
X150370330Y-108642706D02*
X150940496Y-109156085D01*
X126500665Y-114064743D02*
X129447506Y-110791944D01*
X122741595Y-115857728D02*
X116648715Y-116177042D01*
D15*
%TO.N,5V*%
X103100140Y-118387471D02*
X102248736Y-118432085D01*
%TO.N,SDA*%
X113327213Y-105331570D02*
X116914649Y-108561692D01*
X111534232Y-101572505D02*
X110782235Y-87222957D01*
X111459766Y-85309645D02*
X112194783Y-84493307D01*
D16*
%TO.N,SCL*%
X136958807Y-51266006D02*
X138210312Y-49876049D01*
D15*
X117228991Y-88903651D02*
X117106925Y-86574546D01*
D16*
X117400929Y-105942040D02*
X135831157Y-85473149D01*
D15*
X114634004Y-82431826D02*
X115505060Y-83216139D01*
X113679765Y-97609270D02*
X113871436Y-101266501D01*
D16*
X137221391Y-81547251D02*
X135805185Y-54523760D01*
D15*
X113168152Y-81912738D02*
X112327717Y-81956787D01*
X115490630Y-104661216D02*
X116939934Y-105966179D01*
X115069991Y-93683368D02*
X115838766Y-92829553D01*
D16*
%TO.N,3V3*%
X94327823Y-112235366D02*
X67076785Y-87698415D01*
X98253719Y-113625598D02*
X102377070Y-113409501D01*
%TO.N,RX*%
X99579812Y-52122304D02*
X102236246Y-102809629D01*
X100970048Y-48196414D02*
X106713889Y-41817262D01*
D15*
%TO.N,5V*%
X104522025Y-117709272D02*
X108121097Y-113712081D01*
X110953978Y-76969666D02*
X112593583Y-76883751D01*
X94339500Y-120198499D02*
X100017877Y-119900915D01*
X107965448Y-80288788D02*
X109511326Y-109786182D01*
X101609968Y-119141519D02*
X102248736Y-118432085D01*
X90413595Y-118808274D02*
X90321811Y-118725633D01*
X86395904Y-117335403D02*
X79625094Y-117690231D01*
D16*
%TO.N,MOSI*%
X77303471Y-92445818D02*
X96372990Y-109616114D01*
X73171567Y-74510693D02*
X69680859Y-71367642D01*
X75510486Y-88686746D02*
X74964551Y-78269765D01*
X100245466Y-110987419D02*
X102465713Y-110871049D01*
%TO.N,MISO*%
X99473744Y-107698064D02*
X81404414Y-91428357D01*
X79611428Y-87669286D02*
X78008325Y-57080280D01*
X101431753Y-108391430D02*
X102554358Y-108332595D01*
%TD*%
M02*
